<?xml version="1.0" standalone="no"?>
<!DOCTYPE svg PUBLIC "-//W3C//DTD SVG 1.1//EN" "http://www.w3.org/Graphics/SVG/1.1/DTD/svg11.dtd" >
<svg>
<metadata>
Created by FontForge 20090914 at Mon Jun  3 18:46:25 2013
 By www-data
Digitized data copyright &#195;&#130;&#194;&#169; 2012-2013, The Mozilla Corporation and Telefonica S.A.
</metadata>
<defs>
<font id="FeuraSans-Bold" horiz-adv-x="0" >
  <font-face 
    font-family="Feura Sans"
    font-weight="700"
    font-stretch="normal"
    units-per-em="1000"
    panose-1="2 11 6 3 5 0 0 2 0 4"
    ascent="790"
    descent="-210"
    x-height="530"
    cap-height="692"
    bbox="-700 -500 1193 1000"
    underline-thickness="50"
    underline-position="-50"
    unicode-range="U+000D-U+FEFF"
  />
<missing-glyph horiz-adv-x="666" 
d="M123 1000h420v-1500h-420v1500zM489 -448v1396h-311v-1396h311zM340 173c0 -7.33301 -2.66797 -13.165 -8.00098 -17.498s-11 -6.5 -17 -6.5c-6.66699 0 -12.5 2.16699 -17.5 6.5s-7.5 10.166 -7.5 17.499v84c36 2 60.167 8.66699 72.5 20s18.5 30.333 18.5 57
c0 19.333 -3.83301 35.666 -11.5 48.999s-24.167 20 -49.5 20c-19.333 0 -36.666 -3.66699 -51.999 -11c-5.33301 -2 -9.66602 -3 -12.999 -3c-7.33301 0 -13.166 2.16699 -17.499 6.5s-6.5 9.83301 -6.5 16.5s3 12.5 9 17.5s13.667 9 23 12s19.333 5.33301 30 7
s21 2.5 31 2.5c21.333 0 39.166 -3.16699 53.499 -9.5s25.666 -14.833 33.999 -25.5s14.333 -23 18 -37s5.5 -28.333 5.5 -43c0 -35.333 -7.33301 -62.5 -22 -81.5s-39 -31.167 -73 -36.5v-45zM279.999 85.001c0 10 3.33301 18.333 10 25s15 10 25 10
s18.333 -3.33301 25 -10s10 -15 10 -25c0 -10.667 -3.33301 -19.5 -10 -26.5s-15 -10.5 -25 -10.5s-18.333 3.5 -25 10.5s-10 15.833 -10 26.5z" />
    <glyph glyph-name="f_i" unicode="fi" horiz-adv-x="592" 
d="M389 0v436.002h-167v-436h-129v436h-80v94h80v52c0 24 3.83301 46.667 11.5 68s19.667 39.666 36 54.999s37.333 27.5 63 36.5s56.5 13.5 92.5 13.5c34 0 64 -3.33301 90 -10s50 -15.334 72 -26.001l-39 -85c-34 15.333 -70.333 23 -109 23c-36 0 -59.667 -6 -71 -18
s-17 -30.667 -17 -56v-53h295v-530h-128z" />
    <glyph glyph-name="f_l" unicode="fl" horiz-adv-x="610" 
d="M603 5c-12.667 -5.33301 -26.501 -9.66602 -41.501 -12.999s-30.5 -5 -46.5 -5c-36 0 -66 10.833 -90 32.5s-36 55.834 -36 102.501v523c-12 4 -24.833 7 -38.5 9s-26.834 3 -39.501 3c-35.333 0 -59 -6.16699 -71 -18.5s-18 -30.833 -18 -55.5v-53h102l-11 -94h-91v-436
h-129v436h-80v94h80v52c0 24 3.83301 46.667 11.5 68s19.834 39.666 36.501 54.999s37.834 27.5 63.501 36.5s56.5 13.5 92.5 13.5c38.667 0 75.667 -5.66699 111 -17l109 17v-627c0 -14.667 2.5 -24.834 7.5 -30.501s12.167 -8.5 21.5 -8.5c10 0 19.333 1.66699 28 5z" />
    <glyph glyph-name=".notdef" horiz-adv-x="666" 
d="M123 1000h420v-1500h-420v1500zM489 -448v1396h-311v-1396h311zM340 173c0 -7.33301 -2.66797 -13.165 -8.00098 -17.498s-11 -6.5 -17 -6.5c-6.66699 0 -12.5 2.16699 -17.5 6.5s-7.5 10.166 -7.5 17.499v84c36 2 60.167 8.66699 72.5 20s18.5 30.333 18.5 57
c0 19.333 -3.83301 35.666 -11.5 48.999s-24.167 20 -49.5 20c-19.333 0 -36.666 -3.66699 -51.999 -11c-5.33301 -2 -9.66602 -3 -12.999 -3c-7.33301 0 -13.166 2.16699 -17.499 6.5s-6.5 9.83301 -6.5 16.5s3 12.5 9 17.5s13.667 9 23 12s19.333 5.33301 30 7
s21 2.5 31 2.5c21.333 0 39.166 -3.16699 53.499 -9.5s25.666 -14.833 33.999 -25.5s14.333 -23 18 -37s5.5 -28.333 5.5 -43c0 -35.333 -7.33301 -62.5 -22 -81.5s-39 -31.167 -73 -36.5v-45zM279.999 85.001c0 10 3.33301 18.333 10 25s15 10 25 10
s18.333 -3.33301 25 -10s10 -15 10 -25c0 -10.667 -3.33301 -19.5 -10 -26.5s-15 -10.5 -25 -10.5s-18.333 3.5 -25 10.5s-10 15.833 -10 26.5z" />
    <glyph glyph-name=".null" 
 />
    <glyph glyph-name=".null" 
 />
    <glyph glyph-name="nonmarkingreturn" unicode="&#xd;" horiz-adv-x="253" 
 />
    <glyph glyph-name="space" unicode=" " horiz-adv-x="253" 
 />
    <glyph glyph-name="exclam" unicode="!" horiz-adv-x="253" 
d="M43 70c0 23.333 8.16699 43.166 24.5 59.499s36.166 24.5 59.499 24.5s43 -8.16699 59 -24.5s24 -36.166 24 -59.499s-8 -43 -24 -59s-35.667 -24 -59 -24s-43.166 8 -59.499 24s-24.5 35.667 -24.5 59zM72 250l-16 442h142l-16 -442h-110z" />
    <glyph glyph-name="quotedbl" unicode="&#x22;" horiz-adv-x="494" 
d="M107 420l-35 272h126v-272h-91zM305 420l-35 272h126v-272h-91z" />
    <glyph glyph-name="numbersign" unicode="#" horiz-adv-x="526" 
d="M436 433l-25 -189h73v-92h-85l-20 -152h-104l20 152h-113l-20 -152h-104l20 152h-70v92h82l25 189h-73v93h85l20 147h104l-19 -147h112l20 147h104l-19 -147h69v-93h-82zM194 244h113l25 189h-113z" />
    <glyph glyph-name="dollar" unicode="$" horiz-adv-x="526" 
d="M506 191c0 -54.667 -16.668 -99.3291 -50.001 -133.996s-81.333 -56 -144 -64v-151h-105v149c-40.667 5.33301 -77.834 16 -111.501 32s-62.167 35.667 -85.5 59l69 76c23.333 -22 48.5 -39.333 75.5 -52s57.833 -19 92.5 -19c35.333 0 65.166 8 89.499 24
s36.5 40.667 36.5 74c0 13.333 -1.83301 25.166 -5.5 35.499s-10.167 19.666 -19.5 27.999s-22.166 16 -38.499 23s-37.166 14.5 -62.499 22.5c-72.667 22.667 -126.5 49.834 -161.5 81.501s-52.5 73.167 -52.5 124.5c0 24 4.33301 46 13 66s20.667 37.5 36 52.5
s33.833 27.5 55.5 37.5s45.167 17 70.5 21v151h104v-150c36 -4.66699 68.333 -14 97 -28s54.667 -32.667 78 -56l-69 -73c-23.333 22 -47.166 38 -71.499 48s-50.5 15 -78.5 15s-52.333 -6.16699 -73 -18.5s-31 -32.166 -31 -59.499c0 -12 2 -22.5 6 -31.5
s11.167 -17.5 21.5 -25.5s24.5 -15.833 42.5 -23.5s41 -15.834 69 -24.501c28.667 -9.33301 55.334 -19.333 80.001 -30s46.167 -23.834 64.5 -39.501s32.666 -34.834 42.999 -57.501s15.5 -50.334 15.5 -83.001z" />
    <glyph glyph-name="percent" unicode="%" horiz-adv-x="859" 
d="M241 -35l-86 53l463 697l87 -53zM157 508c0 -11.333 1 -22.666 3 -33.999s5.5 -21.333 10.5 -30s12.167 -15.667 21.5 -21s21 -8 35 -8s25.667 2.66699 35 8s16.5 12.333 21.5 21s8.5 18.667 10.5 30s3 22.666 3 33.999s-1 22.666 -3 33.999s-5.5 21.333 -10.5 30
s-12.167 15.667 -21.5 21s-21 8 -35 8s-25.667 -2.66699 -35 -8s-16.5 -12.333 -21.5 -21s-8.5 -18.667 -10.5 -30s-3 -22.666 -3 -33.999zM398 508c0 -27.333 -4.33301 -51.833 -13 -73.5s-20.667 -40 -36 -55s-33.333 -26.667 -54 -35s-43.334 -12.5 -68.001 -12.5
c-24 0 -46.5 4.16699 -67.5 12.5s-39.333 20 -55 35s-27.834 33.333 -36.501 55s-13 46.167 -13 73.5c0 26.667 4.33301 51 13 73s20.834 40.5 36.501 55.5s34 26.667 55 35s43.5 12.5 67.5 12.5c24.667 0 47.334 -4.16699 68.001 -12.5s38.667 -20 54 -35
s27.333 -33.5 36 -55.5s13 -46.333 13 -73zM563 164c0 -11.333 1 -22.666 3 -33.999s5.5 -21.333 10.5 -30s12.167 -15.667 21.5 -21s21 -8 35 -8s25.667 2.66699 35 8s16.5 12.333 21.5 21s8.5 18.667 10.5 30s3 22.666 3 33.999s-1 22.666 -3 33.999s-5.5 21.333 -10.5 30
s-12.167 15.667 -21.5 21s-21 8 -35 8s-25.667 -2.66699 -35 -8s-16.5 -12.333 -21.5 -21s-8.5 -18.667 -10.5 -30s-3 -22.666 -3 -33.999zM804 164c0 -27.333 -4.33301 -51.833 -13 -73.5s-20.667 -40 -36 -55s-33.333 -26.667 -54 -35s-43.334 -12.5 -68.001 -12.5
c-24 0 -46.5 4.16699 -67.5 12.5s-39.333 20 -55 35s-27.834 33.333 -36.501 55s-13 46.167 -13 73.5c0 26.667 4.33301 51 13 73s20.834 40.5 36.501 55.5s34 26.667 55 35s43.5 12.5 67.5 12.5c24.667 0 47.334 -4.16699 68.001 -12.5s38.667 -20 54 -35
s27.333 -33.5 36 -55.5s13 -46.333 13 -73z" />
    <glyph glyph-name="ampersand" unicode="&#x26;" horiz-adv-x="777" 
d="M688 340c-12.667 -40.667 -26.667 -76.9961 -42 -108.996s-31.666 -60.667 -48.999 -86l161 -145h-162l-73 64c-32.667 -28.667 -66.667 -48.667 -102 -60s-70.666 -17 -105.999 -17c-82.667 0 -144.667 16.833 -186 50.5s-62 79.167 -62 136.5
c0 40 10.667 74.167 32 102.5s53.333 56.166 96 83.499c-16.667 15.333 -31.167 29.666 -43.5 42.999s-22.666 26.5 -30.999 39.5s-14.666 26 -18.999 39s-6.5 27.167 -6.5 42.5c0 22 4 42.833 12 62.5s20.167 36.667 36.5 51s37.166 25.666 62.499 33.999s55 12.5 89 12.5
c31.333 0 59.666 -3.83301 84.999 -11.5s46.833 -18.334 64.5 -32.001s31.167 -30 40.5 -49s14 -39.833 14 -62.5c0 -21.333 -3.66699 -40.5 -11 -57.5s-17.333 -32.667 -30 -47s-27 -27.5 -43 -39.5s-32.333 -23.333 -49 -34l152 -136c13.333 22 24.666 46.167 33.999 72.5
s17.666 54.5 24.999 84.5zM321 83.0039c48.667 0 91.667 16 129 48l-180 161c-26.667 -18 -45 -35.167 -55 -51.5s-15 -35.5 -15 -57.5c0 -31.333 10.333 -55.833 31 -73.5s50.667 -26.5 90 -26.5zM219 520.004c0 -18 6.49902 -34.833 19.499 -50.5
s30.833 -33.167 53.5 -52.5c24 15.333 43.667 31.5 59 48.5s23 36.167 23 57.5c0 22.667 -6.83301 40.167 -20.5 52.5s-32.5 18.5 -56.5 18.5c-25.333 0 -44.666 -6.5 -57.999 -19.5s-20 -31.167 -20 -54.5z" />
    <glyph glyph-name="quotesingle" unicode="'" horiz-adv-x="296" 
d="M107 420l-35 272h126v-272h-91z" />
    <glyph glyph-name="parenleft" unicode="(" horiz-adv-x="325" 
d="M159 350c0 -50.667 3 -96.1758 9 -136.509s14.833 -77.666 26.5 -111.999s26.334 -67.333 44.001 -99s38.167 -63.834 61.5 -96.501l-83 -56l-73 102.5c-23.333 33.667 -43.833 69.834 -61.5 108.501s-31.667 81.334 -42 128.001s-15.5 100.334 -15.5 161.001
s5.16699 114.334 15.5 161.001s24.333 89.334 42 128.001s38.167 74.834 61.5 108.501l73 102.5l83 -56c-23.333 -33.333 -43.833 -65.666 -61.5 -96.999s-32.334 -64.166 -44.001 -98.499s-20.5 -71.666 -26.5 -111.999s-9 -85.833 -9 -136.5z" />
    <glyph glyph-name="parenright" unicode=")" horiz-adv-x="325" 
d="M166 350c0 50.667 -3 96.1758 -9 136.509s-14.833 77.666 -26.5 111.999s-26.334 67.166 -44.001 98.499s-38.167 63.666 -61.5 96.999l83 56l73 -102.5c23.333 -33.667 43.833 -69.834 61.5 -108.501s31.667 -81.334 42 -128.001s15.5 -100.334 15.5 -161.001
s-5.16699 -114.334 -15.5 -161.001s-24.333 -89.334 -42 -128.001s-38.167 -74.834 -61.5 -108.501l-73 -102.5l-83 56c23.333 32.667 43.833 64.834 61.5 96.501s32.334 64.667 44.001 99s20.5 71.666 26.5 111.999s9 85.833 9 136.5z" />
    <glyph glyph-name="asterisk" unicode="*" horiz-adv-x="441" 
d="M260 596l132 59l34 -105l-141 -28l103 -101l-93 -69l-73 124l-69 -127l-95 65l100 108l-143 28l33 105l132 -59l-17 146h114z" />
    <glyph glyph-name="plus" unicode="+" horiz-adv-x="519" 
d="M205 362v153h108v-153h149v-101h-149v-152h-108v152h-149v101h149z" />
    <glyph glyph-name="comma" unicode="," horiz-adv-x="253" 
d="M43 70c0 23.333 8.16797 43.166 24.501 59.499s36.166 24.5 59.499 24.5s43 -8.16699 59 -24.5s24 -36.166 24 -59.499c0 -22.667 -7 -50 -21 -82l-72 -167h-81l41 181c-10 8 -18.167 18 -24.5 30s-9.5 24.667 -9.5 38z" />
    <glyph glyph-name="hyphen" unicode="-" horiz-adv-x="410" 
d="M53 262v102h303v-102h-303z" />
    <glyph glyph-name="period" unicode="." horiz-adv-x="253" 
d="M43 70c0 23.333 8.16699 43.166 24.5 59.499s36.166 24.5 59.499 24.5s43 -8.16699 59 -24.5s24 -36.166 24 -59.499s-8 -43 -24 -59s-35.667 -24 -59 -24s-43.166 8 -59.499 24s-24.5 35.667 -24.5 59z" />
    <glyph glyph-name="slash" unicode="/" horiz-adv-x="520" 
d="M199 -110l-112 26l235 899l111 -26z" />
    <glyph glyph-name="zero" unicode="0" horiz-adv-x="576" 
d="M182 335c0 -48 2.16699 -88 6.5 -120s11 -57.667 20 -77s20.167 -33.166 33.5 -41.499s28.666 -12.5 45.999 -12.5s32.666 4.16699 45.999 12.5s24.5 22.166 33.5 41.499s15.833 45 20.5 77s7 72 7 120s-2.33301 88 -7 120s-11.5 57.667 -20.5 77
s-20.167 33.166 -33.5 41.499s-28.666 12.5 -45.999 12.5s-32.666 -4.16699 -45.999 -12.5s-24.5 -22.166 -33.5 -41.499s-15.667 -45 -20 -77s-6.5 -72 -6.5 -120zM528 335c0 -112.667 -20.333 -199 -61 -259s-100.334 -90 -179.001 -90s-138.334 30 -179.001 90
s-61 146.333 -61 259s20.333 199 61 259s100.334 90 179.001 90s138.334 -30 179.001 -90s61 -146.333 61 -259z" />
    <glyph glyph-name="one" unicode="1" horiz-adv-x="432" 
d="M220 0v539l-147 -89l-58 87l218 136h111v-673h-124z" />
    <glyph glyph-name="two" unicode="2" horiz-adv-x="524" 
d="M456 489c0 -27.333 -3.83301 -54.167 -11.5 -80.5s-21.334 -54.5 -41.001 -84.5s-46.167 -63 -79.5 -99s-75.666 -77.333 -126.999 -124h277l-14 -101h-412v96l140 142.5c36 38.333 64 71.666 84 99.999s33.667 53.333 41 75s11 44.167 11 67.5
c0 32 -8.83301 56.667 -26.5 74s-41.5 26 -71.5 26c-24 0 -45.333 -5.16699 -64 -15.5s-38 -27.5 -58 -51.5l-82 64c26.667 34 57.5 60.167 92.5 78.5s75.5 27.5 121.5 27.5c36 0 67.667 -5.16699 95 -15.5s50.333 -24.166 69 -41.499s32.667 -38 42 -62s14 -49.333 14 -76z
" />
    <glyph glyph-name="three" unicode="3" horiz-adv-x="515" 
d="M467 195c0 -30 -5.49805 -57.6709 -16.498 -83.0039s-26.833 -47.166 -47.5 -65.499s-46 -32.833 -76 -43.5s-64 -16 -102 -16c-91.333 0 -164 32.667 -218 98l81 67c19.333 -23.333 39.666 -40.166 60.999 -50.499s45 -15.5 71 -15.5c36 0 64.333 10.167 85 30.5
s31 47.833 31 82.5c0 40 -10.167 67.5 -30.5 82.5s-50.166 22.5 -89.499 22.5h-47l15 93h31c31.333 0 56.666 8.5 75.999 25.5s29 41.833 29 74.5c0 27.333 -8.66699 48.666 -26 63.999s-41 23 -71 23c-24.667 0 -47 -4.66699 -67 -14s-40.667 -23.666 -62 -42.999l-66 71
c30 28 61.833 49.333 95.5 64s70.167 22 109.5 22c34.667 0 65.334 -4.66699 92.001 -14s49 -21.833 67 -37.5s31.5 -34 40.5 -55s13.5 -43.5 13.5 -67.5c0 -20.667 -3.33301 -39.667 -10 -57s-15.834 -32.5 -27.501 -45.5s-25.334 -23.833 -41.001 -32.5
s-32.5 -14.334 -50.5 -17.001v-4c19.333 -1.33301 38 -5.66602 56 -12.999s34 -17.666 48 -30.999s25.167 -29.666 33.5 -48.999s12.5 -41.333 12.5 -66z" />
    <glyph glyph-name="four" unicode="4" horiz-adv-x="555" 
d="M439 153v-153h-126v153h-276v86l190 446l106 -41l-162 -394h142l13 168h113v-168h79v-97h-79z" />
    <glyph glyph-name="five" unicode="5" horiz-adv-x="532" 
d="M484 219c0 -34 -5.66406 -65.168 -16.9971 -93.501s-27.666 -52.833 -48.999 -73.5s-47.333 -36.667 -78 -48s-65 -17 -103 -17c-46 0 -86.333 8 -121 24s-65.334 40 -92.001 72l81 68c18.667 -22.667 38.167 -39 58.5 -49s43.166 -15 68.499 -15
c37.333 0 66.5 11.833 87.5 35.5s31.5 55.5 31.5 95.5c0 23.333 -2.5 42.833 -7.5 58.5s-12 28.334 -21 38.001s-19.833 16.5 -32.5 20.5s-26.334 6 -41.001 6c-14 0 -27.167 -1.5 -39.5 -4.5s-25.833 -8.16699 -40.5 -15.5h-94v352h384l-13 -94h-249v-164
c17.333 8.66699 34.333 14.334 51 17.001s32.334 4 47.001 4c28 0 53.667 -4.83301 77 -14.5s43.166 -23.834 59.499 -42.501s29.166 -41.5 38.499 -68.5s14 -57.5 14 -91.5z" />
    <glyph glyph-name="six" unicode="6" horiz-adv-x="555" 
d="M410 562c-13.333 9.33301 -27.002 15.999 -41.002 19.999s-27.333 6 -40 6c-20 0 -38.833 -5 -56.5 -15s-33.167 -24.167 -46.5 -42.5s-24.166 -40.833 -32.499 -67.5s-13.5 -57 -15.5 -91c22 27.333 46.167 46.833 72.5 58.5s52.5 17.5 78.5 17.5
c25.333 0 49.333 -4.66699 72 -14s42.5 -23 59.5 -41s30.5 -40.667 40.5 -68s15 -59 15 -95s-5.66699 -68.833 -17 -98.5s-27.166 -55.167 -47.499 -76.5s-44.5 -38 -72.5 -50s-58.333 -18 -91 -18c-42.667 0 -79.167 8 -109.5 24s-55.166 38.667 -74.499 68
s-33.5 64.333 -42.5 105s-13.5 86 -13.5 136c0 53.333 6.83301 102.333 20.5 147s32.667 83 57 115s53.666 57 87.999 75s72.5 27 114.5 27c23.333 0 46.5 -3.66699 69.5 -11s44.167 -17.666 63.5 -30.999zM297.998 352.999c-22.667 0 -44.333 -6.66699 -65 -20
s-38.667 -31 -54 -53c1.33301 -70 10.333 -120.5 27 -151.5s44 -46.5 82 -46.5c32.667 0 57.167 12.833 73.5 38.5s24.5 60.167 24.5 103.5c0 48 -8.16699 81.5 -24.5 100.5s-37.5 28.5 -63.5 28.5z" />
    <glyph glyph-name="seven" unicode="7" horiz-adv-x="464" 
d="M188 -12l-115 36l235 552h-284v97h413v-88z" />
    <glyph glyph-name="eight" unicode="8" horiz-adv-x="571" 
d="M504 511c0 -28 -8.99902 -54.832 -26.999 -80.499s-45.667 -48.5 -83 -68.5c44.667 -20 78.667 -45 102 -75s35 -65.333 35 -106c0 -27.333 -5.66699 -52.833 -17 -76.5s-27.666 -44.167 -48.999 -61.5s-47.333 -31 -78 -41s-65.334 -15 -104.001 -15
c-38 0 -72 4.83301 -102 14.5s-55.5 23.167 -76.5 40.5s-37 37.5 -48 60.5s-16.5 48.167 -16.5 75.5c0 40.667 11.333 74.834 34 102.501s53.667 50.167 93 67.5c-36 20 -61.667 43.333 -77 70s-23 56 -23 88c0 30 6.33301 56.167 19 78.5s29.167 40.833 49.5 55.5
s43.666 25.667 69.999 33s53.5 11 81.5 11c30 0 58.167 -3.5 84.5 -10.5s49.333 -17.833 69 -32.5s35.167 -32.834 46.5 -54.501s17 -46.834 17 -75.501zM402.001 182.001c0 20 -3.5 36.666 -10.5 49.999s-17 24.833 -30 34.5s-28.833 18.167 -47.5 25.5s-39.667 15 -63 23
c-21.333 -11.333 -40 -27.166 -56 -47.499s-24 -48.5 -24 -84.5c0 -31.333 9.83301 -56 29.5 -74s47.5 -27 83.5 -27c38 0 67.167 9.66699 87.5 29s30.5 43 30.5 71zM192.001 504c0 -15.333 2.66699 -28.665 8 -39.998s13 -21.333 23 -30s22.167 -16.167 36.5 -22.5
s30.5 -12.5 48.5 -18.5c27.333 16.667 46.5 33.667 57.5 51s16.5 37.666 16.5 60.999c0 25.333 -8 46.166 -24 62.499s-39.667 24.5 -71 24.5c-30 0 -53.333 -7.66699 -70 -23s-25 -37 -25 -65z" />
    <glyph glyph-name="nine" unicode="9" horiz-adv-x="554" 
d="M96 66c80 21.333 143.67 50.6709 191.003 88.0039s74.666 85.333 81.999 144c-14 -18 -33.5 -33.167 -58.5 -45.5s-53.167 -18.5 -84.5 -18.5c-26.667 0 -51.334 5.16699 -74.001 15.5s-42.334 25.166 -59.001 44.499s-29.667 42.666 -39 69.999s-14 57.666 -14 90.999
c0 35.333 6 67.166 18 95.499s28.333 52.333 49 72s45.167 34.834 73.5 45.501s58.833 16 91.5 16c36.667 0 69.5 -6.33301 98.5 -19s53.5 -30.5 73.5 -53.5s35.333 -50.333 46 -82s16 -66.834 16 -105.501c0 -67.333 -7.83301 -125.666 -23.5 -174.999
s-39.5 -91.833 -71.5 -127.5s-72 -65.334 -120 -89.001s-104 -43.167 -168 -58.5zM260.003 329.005c23.333 0 44.667 6.16602 64 18.499s36.333 29.833 51 52.5v24c0 57.333 -8.66699 99 -26 125s-43.666 39 -78.999 39c-30 0 -54.5 -11 -73.5 -33s-28.5 -54.667 -28.5 -98
c0 -23.333 2.5 -43.166 7.5 -59.499s11.667 -29.5 20 -39.5s18.166 -17.333 29.499 -22s23 -7 35 -7z" />
    <glyph glyph-name="colon" unicode=":" horiz-adv-x="253" 
d="M43 70c0 23.333 8.16699 43.166 24.5 59.499s36.166 24.5 59.499 24.5s43 -8.16699 59 -24.5s24 -36.166 24 -59.499s-8 -43 -24 -59s-35.667 -24 -59 -24s-43.166 8 -59.499 24s-24.5 35.667 -24.5 59zM43 426c0 23.333 8.16699 43.166 24.5 59.499
s36.166 24.5 59.499 24.5s43 -8.16699 59 -24.5s24 -36.166 24 -59.499s-8 -43 -24 -59s-35.667 -24 -59 -24s-43.166 8 -59.499 24s-24.5 35.667 -24.5 59z" />
    <glyph glyph-name="semicolon" unicode=";" horiz-adv-x="253" 
d="M43 70c0 23.333 8.16797 43.166 24.501 59.499s36.166 24.5 59.499 24.5s43 -8.16699 59 -24.5s24 -36.166 24 -59.499c0 -22.667 -7 -50 -21 -82l-72 -167h-81l41 181c-10 8 -18.167 18 -24.5 30s-9.5 24.667 -9.5 38zM43.001 426c0 23.333 8.16699 43.166 24.5 59.499
s36.166 24.5 59.499 24.5s43 -8.16699 59 -24.5s24 -36.166 24 -59.499s-8 -43 -24 -59s-35.667 -24 -59 -24s-43.166 8 -59.499 24s-24.5 35.667 -24.5 59z" />
    <glyph glyph-name="less" unicode="&#x3c;" horiz-adv-x="519" 
d="M57 271v124l379 174l43 -93l-329 -143l329 -140l-43 -96z" />
    <glyph glyph-name="equal" unicode="=" horiz-adv-x="519" 
d="M57 159v101h406v-101h-406zM57 362v101h406v-101h-406z" />
    <glyph glyph-name="greater" unicode="&#x3e;" horiz-adv-x="519" 
d="M463 395v-124l-380 -174l-43 94l330 142l-330 141l43 95z" />
    <glyph glyph-name="question" unicode="?" horiz-adv-x="498" 
d="M281 250l-128.002 -0.00195312v24c0 28 4.16699 51.5 12.5 70.5s18.833 35.5 31.5 49.5s26.334 25.833 41.001 35.5s28.334 19.5 41.001 29.5s23.167 20.5 31.5 31.5s12.5 24.5 12.5 40.5c0 23.333 -7.66699 41 -23 53s-37 18 -65 18
c-21.333 0 -42.166 -5.16699 -62.499 -15.5s-40.5 -27.166 -60.5 -50.499l-85 66c29.333 34 62 59.667 98 77s76.667 26 122 26c34.667 0 65.167 -4.5 91.5 -13.5s48.166 -21 65.499 -36s30.333 -32.333 39 -52s13 -40.167 13 -61.5c0 -27.333 -4.33301 -50 -13 -68
s-19.5 -33.5 -32.5 -46.5s-27 -24.5 -42 -34.5s-29 -20.5 -42 -31.5s-23.833 -23.667 -32.5 -38s-13 -32.166 -13 -53.499v-20zM136.998 69.998c0 23.333 8.16699 43.166 24.5 59.499s36.166 24.5 59.499 24.5s43 -8.16699 59 -24.5s24 -36.166 24 -59.499s-8 -43 -24 -59
s-35.667 -24 -59 -24s-43.166 8 -59.499 24s-24.5 35.667 -24.5 59z" />
    <glyph glyph-name="at" unicode="@" horiz-adv-x="1020" 
d="M751 -178c-32 -12 -66.834 -21.666 -104.501 -28.999s-78.5 -11 -122.5 -11c-70 0 -133.667 10.667 -191 32s-106.5 52 -147.5 92s-72.667 88.167 -95 144.5s-33.5 119.5 -33.5 189.5c0 67.333 11.167 129.333 33.5 186s54 105.667 95 147s90.667 73.666 149 96.999
s123.5 35 195.5 35c70 0 132 -10.833 186 -32.5s99.333 -50.667 136 -87s64.334 -78.166 83.001 -125.499s28 -97 28 -149c0 -41.333 -4.5 -80.333 -13.5 -117s-22.167 -68.834 -39.5 -96.501s-39.333 -49.667 -66 -66s-57.334 -24.5 -92.001 -24.5
c-20.667 0 -38.667 3.16699 -54 9.5s-28.166 14.333 -38.499 24s-18.5 20.334 -24.5 32.001s-10 23.167 -12 34.5h-4c-10.667 -25.333 -27.5 -47.666 -50.5 -66.999s-53.5 -29 -91.5 -29c-30.667 0 -57.167 5.5 -79.5 16.5s-40.666 26.167 -54.999 45.5
s-25 42.666 -32 69.999s-10.5 57 -10.5 89c0 84 19.667 149.833 59 197.5s95 71.5 167 71.5c26.667 0 54 -3.5 82 -10.5s56.667 -18.5 86 -34.5v-284c0 -30.667 5.16699 -51.5 15.5 -62.5s23.166 -16.5 38.499 -16.5c29.333 0 51.833 16.667 67.5 50
s23.5 88.666 23.5 165.999c0 46 -6.5 87.167 -19.5 123.5s-32.5 67.166 -58.5 92.499s-58.333 44.833 -97 58.5s-83.334 20.5 -134.001 20.5c-58 0 -108.667 -9 -152 -27s-79.666 -43 -108.999 -75s-51.333 -70.167 -66 -114.5s-22 -93.166 -22 -146.499
c0 -54 7.33301 -103 22 -147s36.5 -81.667 65.5 -113s65 -55.5 108 -72.5s92.5 -25.5 148.5 -25.5c36 0 70.5 3.33301 103.5 10s62.833 14.667 89.5 24zM523.999 416.001c-34.667 0 -60.668 -14.333 -78.001 -43s-26 -75.667 -26 -141c0 -46 5.66699 -80.167 17 -102.5
s30 -33.5 56 -33.5c13.333 0 24.833 2.16699 34.5 6.5s18 10 25 17s12.833 14.333 17.5 22s8.66699 15.167 12 22.5v238c-17.333 9.33301 -36.666 14 -57.999 14z" />
    <glyph glyph-name="A" unicode="A" horiz-adv-x="595" 
d="M414 162h-237l-46 -162h-134l221 692h161l220 -692h-139zM205 262h182l-89 312h-5z" />
    <glyph glyph-name="B" unicode="B" horiz-adv-x="627" 
d="M443 202c0 21.333 -3.16699 39.0029 -9.5 53.0029s-15.166 25 -26.499 33s-24.5 13.667 -39.5 17s-31.5 5 -49.5 5h-101v-209h98c14.667 0 29.667 1.16699 45 3.5s29.166 7.16602 41.499 14.499s22.333 17.666 30 30.999s11.5 30.666 11.5 51.999zM417 503.003
c0 33.333 -9.5 56.667 -28.5 70s-46.833 20 -83.5 20h-88v-183h92c36 0 63 7 81 21s27 38 27 72zM581 201.004c0 -39.333 -7.83203 -71.999 -23.499 -97.999s-36.5 -46.667 -62.5 -62s-55.333 -26 -88 -32s-66 -9 -100 -9h-222v692h208
c33.333 0 65.666 -2.83301 96.999 -8.5s59 -15.334 83 -29.001s43.167 -31.834 57.5 -54.501s21.5 -51 21.5 -85c0 -21.333 -3.66699 -40.333 -11 -57s-16.833 -31 -28.5 -43s-24.5 -21.833 -38.5 -29.5s-28 -13.167 -42 -16.5v-4
c16.667 -3.33301 33.834 -8.66602 51.501 -15.999s33.667 -17.333 48 -30s26.166 -28.5 35.499 -47.5s14 -42.5 14 -70.5z" />
    <glyph glyph-name="C" unicode="C" horiz-adv-x="581" 
d="M357 94c35.333 0 64.335 6.16797 87.002 18.501s42.667 26.166 60 41.499l65 -82c-22.667 -22 -51.667 -41.667 -87 -59s-78.666 -26 -129.999 -26c-44 0 -84.5 7.66699 -121.5 23s-68.833 38.166 -95.5 68.499s-47.5 68 -62.5 113s-22.5 96.833 -22.5 155.5
c0 58 8 109.333 24 154s37.667 82 65 112s59.5 52.833 96.5 68.5s76.167 23.5 117.5 23.5c45.333 0 83.666 -6.5 114.999 -19.5s61 -30.833 89 -53.5l-68 -80c-38.667 32.667 -81.334 49 -128.001 49c-24.667 0 -47.5 -4.33301 -68.5 -13s-39.333 -23 -55 -43
s-27.834 -46.167 -36.501 -78.5s-13 -72.166 -13 -119.499c0 -46.667 4.33301 -86.167 13 -118.5s20.5 -58.5 35.5 -78.5s32.833 -34.333 53.5 -43s43 -13 67 -13z" />
    <glyph glyph-name="D" unicode="D" horiz-adv-x="659" 
d="M470 349c0 52.667 -5.33301 94.833 -16 126.5s-24.667 56.167 -42 73.5s-36.833 28.833 -58.5 34.5s-43.5 8.5 -65.5 8.5h-71v-492h70c23.333 0 46 3.66699 68 11s41.5 20.333 58.5 39s30.667 44 41 76s15.5 73 15.5 123zM608 348.999
c0 -71.333 -9.99902 -129.666 -29.999 -174.999s-45.833 -80.833 -77.5 -106.5s-67.334 -43.334 -107.001 -53.001s-79.167 -14.5 -118.5 -14.5h-190v692h178c42 0 83.5 -4.5 124.5 -13.5s77.833 -26 110.5 -51s59.167 -59.833 79.5 -104.5s30.5 -102.667 30.5 -174z" />
    <glyph glyph-name="E" unicode="E" horiz-adv-x="535" 
d="M217 593v-194h222v-99h-222v-201h273v-99h-405v692h401l-14 -99h-255z" />
    <glyph glyph-name="F" unicode="F" horiz-adv-x="493" 
d="M217 593v-207h214v-99h-214v-287h-132v692h393l-14 -99h-247z" />
    <glyph glyph-name="G" unicode="G" horiz-adv-x="644" 
d="M345 -13c-94.667 0 -167.499 30.167 -218.499 90.5s-76.5 150.166 -76.5 269.499c0 58.667 8.66699 110.334 26 155.001s40.5 82 69.5 112s62.5 52.667 100.5 68s77.667 23 119 23c48.667 0 90.5 -7.5 125.5 -22.5s66.5 -35.167 94.5 -60.5l-72 -75
c-21.333 19.333 -43.5 33.5 -66.5 42.5s-48.833 13.5 -77.5 13.5c-24 0 -47 -4.5 -69 -13.5s-41.167 -23.667 -57.5 -44s-29.5 -46.833 -39.5 -79.5s-15 -72.334 -15 -119.001c0 -47.333 3.5 -87.333 10.5 -120s17.333 -59.167 31 -79.5s30.667 -35.166 51 -44.499
s44.166 -14 71.499 -14c18 0 36.167 2 54.5 6s36.833 10.667 55.5 20v174h-112l-14 99h254v-337c-32.667 -20 -69.167 -35.667 -109.5 -47s-85.5 -17 -135.5 -17z" />
    <glyph glyph-name="H" unicode="H" horiz-adv-x="673" 
d="M456 0v310h-239v-310h-132v692h132v-279h239v279h132v-692h-132z" />
    <glyph glyph-name="I" unicode="I" horiz-adv-x="301" 
d="M85 0v692h132v-692h-132z" />
    <glyph glyph-name="J" unicode="J" horiz-adv-x="310" 
d="M-8 -42c22 8.66699 39.999 17.666 53.999 26.999s24.667 20.333 32 33s12.333 27.334 15 44.001s4 36.667 4 60v570h132v-577c0 -40 -5.33301 -74.333 -16 -103s-25.167 -53 -43.5 -73s-39.666 -36.5 -63.999 -49.5s-50.5 -23.833 -78.5 -32.5z" />
    <glyph glyph-name="K" unicode="K" horiz-adv-x="623" 
d="M217 0h-132v692h132v-692zM223 369l238 323h144l-238 -313l258 -379h-157z" />
    <glyph glyph-name="L" unicode="L" horiz-adv-x="514" 
d="M85 0v692h132v-586h279l-14 -106h-397z" />
    <glyph glyph-name="M" unicode="M" horiz-adv-x="801" 
d="M625 0l-26.001 353.001c-1.33301 21.333 -2.5 43.666 -3.5 66.999s-1.5 47 -1.5 71v33c0 11.333 0.333008 22.333 1 33h-4l-126 -487h-131l-132 487h-4c0.666992 -11.333 1 -24 1 -38v-43c0 -21.333 -0.166992 -43 -0.5 -65s-1.16602 -41.333 -2.49902 -58l-22 -353h-127
l54 692h171l129 -486h4l123 486h172l54 -692h-129z" />
    <glyph glyph-name="N" unicode="N" horiz-adv-x="675" 
d="M414 0l-221.999 541.001h-4c2 -24.667 4.33301 -50.334 7 -77.001c2 -23.333 3.83301 -49.333 5.5 -78s2.5 -57.667 2.5 -87v-299h-118v692h173l228 -542h4c-2.66699 21.333 -5.33398 45 -8.00098 71c-2 22 -3.83301 47.5 -5.5 76.5s-2.5 59.833 -2.5 92.5v302h117v-692
h-177z" />
    <glyph glyph-name="O" unicode="O" horiz-adv-x="703" 
d="M653 346c0 -57.333 -7.16699 -108.331 -21.5 -152.998s-34.5 -82.334 -60.5 -113.001s-57.5 -53.834 -94.5 -69.501s-78.5 -23.5 -124.5 -23.5s-87.667 7.66699 -125 23s-69 38.166 -95 68.499s-46.167 67.833 -60.5 112.5s-21.5 96.334 -21.5 155.001
c0 57.333 7.16699 108.333 21.5 153s34.5 82.167 60.5 112.5s57.667 53.5 95 69.5s79 24 125 24s87.5 -7.66699 124.5 -23s68.5 -38.166 94.5 -68.499s46.167 -67.833 60.5 -112.5s21.5 -96.334 21.5 -155.001zM515 346.002c0 46.667 -3.66602 86.334 -10.999 119.001
s-18 59.334 -32 80.001s-31 35.5 -51 44.5s-43 13.5 -69 13.5s-49.167 -4.5 -69.5 -13.5s-37.5 -23.833 -51.5 -44.5s-24.667 -47.334 -32 -80.001s-11 -72.334 -11 -119.001c0 -47.333 3.83301 -87.166 11.5 -119.499s18.5 -58.833 32.5 -79.5s31.167 -35.5 51.5 -44.5
s43.166 -13.5 68.499 -13.5c26 0 49 4.5 69 13.5s37 23.833 51 44.5s24.667 47.167 32 79.5s11 72.166 11 119.499z" />
    <glyph glyph-name="P" unicode="P" horiz-adv-x="594" 
d="M429 472c0 44.667 -12.167 76.332 -36.5 94.999s-56.833 28 -97.5 28h-78v-252h81c19.333 0 37 2 53 6s29.833 11 41.5 21s20.667 23.333 27 40s9.5 37.334 9.5 62.001zM567 473.998c0 -41.333 -6.66699 -76.332 -20 -104.999s-31.833 -52.334 -55.5 -71.001
s-52 -32.167 -85 -40.5s-68.833 -12.5 -107.5 -12.5h-82v-245h-132v692h202c43.333 0 82.333 -4.16699 117 -12.5s64 -21.5 88 -39.5s42.5 -40.667 55.5 -68s19.5 -60 19.5 -98z" />
    <glyph glyph-name="Q" unicode="Q" horiz-adv-x="703" 
d="M653 346c0 -70.667 -11.498 -130.831 -34.498 -180.498s-54.167 -88.834 -93.5 -117.501c37.333 -3.33301 71.166 -11.333 101.499 -24s55.166 -27 74.499 -43l-76 -104c-38.667 36.667 -81 65 -127 85s-92.333 30 -139 30c-48 0 -91 7.5 -129 22.5
s-70.333 37.167 -97 66.5s-47.167 66.166 -61.5 110.499s-21.5 95.833 -21.5 154.5c0 57.333 7.16699 108.333 21.5 153s34.5 82.167 60.5 112.5s57.667 53.5 95 69.5s79 24 125 24s87.5 -7.66699 124.5 -23s68.5 -38.166 94.5 -68.499s46.167 -67.833 60.5 -112.5
s21.5 -96.334 21.5 -155.001zM515.002 346.003c0 46.667 -3.66602 86.334 -10.999 119.001s-18 59.334 -32 80.001s-31 35.5 -51 44.5s-43 13.5 -69 13.5s-49.167 -4.5 -69.5 -13.5s-37.5 -23.833 -51.5 -44.5s-24.667 -47.334 -32 -80.001s-11 -72.334 -11 -119.001
c0 -47.333 3.83301 -87.166 11.5 -119.499s18.5 -58.833 32.5 -79.5s31.167 -35.5 51.5 -44.5s43.166 -13.5 68.499 -13.5c26 0 49 4.5 69 13.5s37 23.833 51 44.5s24.667 47.167 32 79.5s11 72.166 11 119.499z" />
    <glyph glyph-name="R" unicode="R" horiz-adv-x="613" 
d="M559 488c0 -50 -14 -90.999 -42 -122.999s-63 -54.667 -105 -68l189 -297h-154l-164 277h-66v-277h-132v692h199c89.333 0 157.5 -16.833 204.5 -50.5s70.5 -84.834 70.5 -153.501zM421 487.001c0 36.667 -10.167 63.833 -30.5 81.5s-52.833 26.5 -97.5 26.5h-76v-222h80
c40.667 0 71.5 9 92.5 27s31.5 47 31.5 87z" />
    <glyph glyph-name="S" unicode="S" horiz-adv-x="560" 
d="M528 198c0 -31.333 -5.83105 -60.001 -17.498 -86.001s-28.5 -48.333 -50.5 -67s-49.167 -33 -81.5 -43s-68.833 -15 -109.5 -15c-54 0 -102.167 8.66699 -144.5 26s-77.833 40.333 -106.5 69l72 83c23.333 -22 49.166 -39.667 77.499 -53s60.833 -20 97.5 -20
c17.333 0 33.666 2 48.999 6s28.833 10 40.5 18s20.834 18.167 27.501 30.5s10 27.166 10 44.499c0 13.333 -1.83301 25.166 -5.5 35.499s-10.5 20 -20.5 29s-23.5 17.333 -40.5 25s-38.833 15.5 -65.5 23.5c-36.667 11.333 -68.334 23.833 -95.001 37.5s-48.667 29 -66 46
s-30.166 36 -38.499 57s-12.5 44.833 -12.5 71.5c0 28.667 5.83301 54.5 17.5 77.5s27.834 42.833 48.501 59.5s45.167 29.5 73.5 38.5s59.5 13.5 93.5 13.5c48 0 90.5 -7.33301 127.5 -22s70.5 -36.334 100.5 -65.001l-70 -78c-23.333 22.667 -47.5 38.834 -72.5 48.501
s-51.5 14.5 -79.5 14.5c-30 0 -54.833 -6.5 -74.5 -19.5s-29.5 -33.167 -29.5 -60.5c0 -12 2 -22.833 6 -32.5s11.167 -18.5 21.5 -26.5s24.666 -16 42.999 -24s42.166 -16.667 71.499 -26s56.5 -19.666 81.5 -30.999s46.5 -25.166 64.5 -41.499s32 -36.166 42 -59.499
s15 -51.333 15 -84z" />
    <glyph glyph-name="T" unicode="T" horiz-adv-x="539" 
d="M338 586v-586h-132v586h-191v106h518l-15 -106h-180z" />
    <glyph glyph-name="U" unicode="U" horiz-adv-x="672" 
d="M592 229c0 -35.333 -5.33203 -67.667 -15.999 -97s-26.834 -54.833 -48.501 -76.5s-48.5 -38.5 -80.5 -50.5s-69 -18 -111 -18c-43.333 0 -81 5.83301 -113 17.5s-58.5 28.167 -79.5 49.5s-36.833 46.833 -47.5 76.5s-16 62.5 -16 98.5v463h132v-456
c0 -50 9.83301 -86.667 29.5 -110s51.167 -35 94.5 -35s74.833 11.667 94.5 35s29.5 60 29.5 110v456h132v-463z" />
    <glyph glyph-name="V" unicode="V" horiz-adv-x="617" 
d="M313 127l157 565h132l-218 -692h-151l-218 692h139l155 -565h4z" />
    <glyph glyph-name="W" unicode="W" horiz-adv-x="862" 
d="M710 0h-177l-101 537h-4l-104 -537h-170l-129 692h129l93 -578h4l110 578h143l110 -576h4l97 576h122z" />
    <glyph glyph-name="X" unicode="X" horiz-adv-x="585" 
d="M18 692h147l123 -238h4l131 238h139l-197 -318l217 -374h-147l-145 281h-4l-143 -281h-140l207 367z" />
    <glyph glyph-name="Y" unicode="Y" horiz-adv-x="586" 
d="M359 260v-260h-132v259l-222 433h142l147 -322h4l147 322h136z" />
    <glyph glyph-name="Z" unicode="Z" horiz-adv-x="540" 
d="M177 109h325l-15 -109h-460v103l325 482h-290v107h437v-104z" />
    <glyph glyph-name="bracketleft" unicode="[" horiz-adv-x="325" 
d="M44 -127v954h246v-103h-122v-749h122v-102h-246z" />
    <glyph glyph-name="backslash" unicode="\" horiz-adv-x="520" 
d="M87 789l111 26l235 -899l-112 -26z" />
    <glyph glyph-name="bracketright" unicode="]" horiz-adv-x="325" 
d="M35 -127v102h122v749h-122v103h246v-954h-246z" />
    <glyph glyph-name="asciicircum" unicode="^" horiz-adv-x="536" 
d="M327 844l189 -317h-132l-117 218l-116 -218h-131l189 317h118z" />
    <glyph glyph-name="underscore" unicode="_" horiz-adv-x="520" 
d="M10 -157v102h500v-102h-500z" />
    <glyph glyph-name="grave" unicode="`" horiz-adv-x="322" 
d="M256 629l-226 95l58 95l204 -126z" />
    <glyph glyph-name="a" unicode="a" horiz-adv-x="559" 
d="M478 137c0 -19.333 2.66602 -33.333 7.99902 -42s14 -15.334 26 -20.001l-30 -87c-28 3.33301 -51.333 10.166 -70 20.499s-33 26.166 -43 47.499c-19.333 -23.333 -42.5 -40.666 -69.5 -51.999s-56.5 -17 -88.5 -17c-54 0 -96.5 15 -127.5 45s-46.5 70 -46.5 120
c0 56.667 21.333 100.167 64 130.5s105.667 45.5 189 45.5h63v27c0 34.667 -8.5 58.334 -25.5 71.001s-43.833 19 -80.5 19c-16.667 0 -36.667 -2.16699 -60 -6.5s-48.333 -11.166 -75 -20.499l-31 90c33.333 12.667 65.833 21.667 97.5 27s60.834 8 87.501 8
c75.333 0 129.5 -15.667 162.5 -47s49.5 -75.333 49.5 -132v-227zM248.999 78c21.333 0 40.668 5.5 58.001 16.5s32.666 26.5 45.999 46.5v108h-47c-50 0 -84.333 -8.16699 -103 -24.5s-28 -38.5 -28 -66.5c0 -26.667 5.83301 -46.667 17.5 -60s30.5 -20 56.5 -20z" />
    <glyph glyph-name="b" unicode="b" horiz-adv-x="597" 
d="M208 472c19.333 23.333 41.667 40.999 67 52.999s52.333 18 81 18c35.333 0 65.333 -6.66699 90 -20s44.834 -32.166 60.501 -56.499s27 -53.5 34 -87.5s10.5 -71.667 10.5 -113c0 -39.333 -4.5 -76 -13.5 -110s-22.5 -63.5 -40.5 -88.5s-40.167 -44.667 -66.5 -59
s-56.833 -21.5 -91.5 -21.5c-28.667 0 -54.834 5 -78.501 15s-44.167 25.667 -61.5 47l-6 -49h-113v741l128 14v-283zM305.001 81.999c34.667 0 61.666 14.668 80.999 44.001s29 75.666 29 138.999c0 66 -8.83301 112.833 -26.5 140.5s-42.167 41.5 -73.5 41.5
c-21.333 0 -41.166 -6.5 -59.499 -19.5s-34.166 -29.167 -47.499 -48.5v-244c25.333 -35.333 57.666 -53 96.999 -53z" />
    <glyph glyph-name="c" unicode="c" horiz-adv-x="483" 
d="M299 90c17.333 0 34.001 3.00098 50.001 9.00098s34.667 16.667 56 32l59 -85c-25.333 -20 -52.666 -34.833 -81.999 -44.5s-58 -14.5 -86 -14.5c-42 0 -78.667 6.66699 -110 20s-57.5 32 -78.5 56s-36.667 52.833 -47 86.5s-15.5 71.167 -15.5 112.5
c0 40 5.33301 77.167 16 111.5s26.5 64 47.5 89s47 44.667 78 59s67.167 21.5 108.5 21.5c30 0 59.667 -4.66699 89 -14s56.666 -24.666 81.999 -45.999l-59 -80c-20 15.333 -38.333 25.666 -55 30.999s-33.667 8 -51 8c-36.667 0 -65.834 -14.333 -87.501 -43
s-32.5 -74.334 -32.5 -137.001c0 -31.333 2.83301 -58 8.5 -80s13.5 -39.833 23.5 -53.5s22.333 -23.5 37 -29.5s31 -9 49 -9z" />
    <glyph glyph-name="d" unicode="d" horiz-adv-x="600" 
d="M255 543c28 0 53.501 -4.33203 76.501 -12.999s43.167 -22.334 60.5 -41.001v266l128 -14v-741h-113l-8 63c-17.333 -24 -39 -42.667 -65 -56s-54.667 -20 -86 -20c-36 0 -66.667 6.5 -92 19.5s-46.333 31.667 -63 56s-28.834 53.5 -36.501 87.5s-11.5 72 -11.5 114
c0 40 4.66699 77 14 111s23 63.5 41 88.5s40 44.5 66 58.5s55.667 21 89 21zM292.001 447.001c-36 0 -63.499 -14.332 -82.499 -42.999s-28.5 -75.334 -28.5 -140.001c0 -65.333 9 -112 27 -140s43 -42 75 -42c22.667 0 43.167 6.5 61.5 19.5s34.166 29.167 47.499 48.5v247
c-12 16 -26.667 28.333 -44 37s-36 13 -56 13z" />
    <glyph glyph-name="e" unicode="e" horiz-adv-x="547" 
d="M179 225c5.33301 -50 18.668 -85.666 40.001 -106.999s50 -32 86 -32c21.333 0 41.666 3.16699 60.999 9.5s40.666 18.166 63.999 35.499l55 -80c-25.333 -19.333 -53.666 -34.833 -84.999 -46.5s-65 -17.5 -101 -17.5c-43.333 0 -80.833 6.66699 -112.5 20
s-58 32.333 -79 57s-36.667 54 -47 88s-15.5 71.667 -15.5 113c0 39.333 5.16699 75.833 15.5 109.5s25.5 63 45.5 88s44.667 44.667 74 59s63 21.5 101 21.5c72 0 127.667 -23.167 167 -69.5s59 -111.833 59 -196.5c0 -9.33301 -0.166992 -18.5 -0.5 -27.5
s-0.833008 -17.167 -1.5 -24.5h-326zM282.002 449.001c-30 0 -53.833 -11 -71.5 -33s-28.167 -57.333 -31.5 -106h203c-1.33301 45.333 -9.83301 79.833 -25.5 103.5s-40.5 35.5 -74.5 35.5z" />
    <glyph glyph-name="f" unicode="f" horiz-adv-x="350" 
d="M279 755c28.667 0 53.835 -2.66797 75.502 -8.00098s43.167 -12.666 64.5 -21.999l-37 -87c-16.667 7.33301 -32.334 12.333 -47.001 15s-28.667 4 -42 4c-26.667 0 -45.167 -5.5 -55.5 -16.5s-15.5 -29.167 -15.5 -54.5v-56h125l-14 -94h-111v-436h-129v436h-80v94h80
v55c0 24 4 46.5 12 67.5s19.667 39 35 54s34.666 26.833 57.999 35.5s50.333 13 81 13z" />
    <glyph glyph-name="g" unicode="g" horiz-adv-x="554" 
d="M148 -30c-2 -5.33301 -3.83301 -11.001 -5.5 -17.001s-2.5 -12.333 -2.5 -19c0 -19.333 9.33301 -34.5 28 -45.5s52 -16.5 100 -16.5c26.667 0 48.667 1.66699 66 5s31 7.66602 41 12.999s17 11.833 21 19.5s6 15.834 6 24.501c0 9.33301 -1.5 17.666 -4.5 24.999
s-9 13.5 -18 18.5s-21.5 9.33301 -37.5 13s-37 6.5 -63 8.5c-36 2.66699 -66.5 6.83398 -91.5 12.501s-45.5 13 -61.5 22s-27.5 20 -34.5 33s-10.5 28.167 -10.5 45.5s4.83301 33.333 14.5 48s23.167 28.334 40.5 41.001c-27.333 16.667 -48.666 37.834 -63.999 63.501
s-23 55.167 -23 88.5c0 27.333 5 52.5 15 75.5s24.5 43 43.5 60s42.5 30.333 70.5 40s59.667 14.5 95 14.5l269 1v-101l-122 25v-4c19.333 -12 35.166 -28.333 47.499 -49s18.5 -44.667 18.5 -72c0 -24.667 -4.66699 -47.667 -14 -69s-23 -39.833 -41 -55.5s-40 -28 -66 -37
s-56 -13.5 -90 -13.5c-20 0 -41.667 2.66699 -65 8c-4.66699 -5.33301 -8.5 -10.5 -11.5 -15.5s-4.5 -10.167 -4.5 -15.5c0 -6 1.33301 -11.333 4 -16s8.83398 -8.66699 18.501 -12s23.5 -6.33301 41.5 -9s42 -5.33398 72 -8.00098c38.667 -3.33301 71 -9.66602 97 -18.999
s46.667 -21 62 -35s26.166 -29.667 32.499 -47s9.5 -35.666 9.5 -54.999c0 -28.667 -6.33301 -53.334 -19 -74.001s-30.5 -37.5 -53.5 -50.5s-50.667 -22.5 -83 -28.5s-67.833 -9 -106.5 -9c-45.333 0 -83.5 3.33301 -114.5 10s-56 16 -75 28s-32.667 26 -41 42
s-12.5 33.333 -12.5 52c0 12 1.5 25.167 4.5 39.5s9.16699 28.166 18.5 41.499zM180 353.999c0 -32 8.00098 -57.168 24.001 -75.501s39 -27.5 69 -27.5s52.5 9.33301 67.5 28s22.5 44.334 22.5 77.001c0 32 -7.5 56.667 -22.5 74s-37.5 26 -67.5 26
c-30.667 0 -53.834 -9.5 -69.501 -28.5s-23.5 -43.5 -23.5 -73.5z" />
    <glyph glyph-name="h" unicode="h" horiz-adv-x="585" 
d="M80 0l0.00195312 740.001l128 14v-282c22 23.333 46.667 41 74 53s56 18 86 18c49.333 0 85.166 -13.333 107.499 -40s33.5 -65 33.5 -115v-388h-128v379c0 25.333 -4.83301 43 -14.5 53s-25.834 15 -48.501 15c-22 0 -42.333 -6.83301 -61 -20.5
s-35 -29.834 -49 -48.501v-378h-128z" />
    <glyph glyph-name="i" unicode="i" horiz-adv-x="277" 
d="M222 724c0 -23.333 -7.66699 -42.666 -23 -57.999s-35.333 -23 -60 -23c-25.333 0 -45.666 7.66699 -60.999 23s-23 34.666 -23 57.999c0 22.667 7.66699 41.834 23 57.501s35.666 23.5 60.999 23.5c24.667 0 44.667 -7.83301 60 -23.5s23 -34.834 23 -57.501zM75 0v530
h128v-530h-128z" />
    <glyph glyph-name="j" unicode="j" horiz-adv-x="277" 
d="M-30 -126c16.667 8 31.499 15.833 44.499 23.5s24 17.5 33 29.5s15.833 26.667 20.5 44s7 39.333 7 66v493h128v-481c0 -41.333 -4.33301 -76.333 -13 -105s-21.167 -53 -37.5 -73s-36.166 -37 -59.499 -51s-49.333 -26.667 -78 -38zM221.999 724
c0 -23.333 -7.66699 -42.666 -23 -57.999s-35.333 -23 -60 -23c-25.333 0 -45.666 7.66699 -60.999 23s-23 34.666 -23 57.999c0 22.667 7.66699 41.834 23 57.501s35.666 23.5 60.999 23.5c24.667 0 44.667 -7.83301 60 -23.5s23 -34.834 23 -57.501z" />
    <glyph glyph-name="k" unicode="k" horiz-adv-x="541" 
d="M80 0v741l127 14v-755h-127zM213 290l179 240h135l-177 -231l193 -299h-149z" />
    <glyph glyph-name="l" unicode="l" horiz-adv-x="296" 
d="M289 5c-12.667 -5.33301 -26.5 -9.66797 -41.5 -13.001s-30.167 -5 -45.5 -5c-36 0 -66.167 10.833 -90.5 32.5s-36.5 55.834 -36.5 102.501v619l128 14v-626c0 -15.333 2.5 -25.833 7.5 -31.5s12.167 -8.5 21.5 -8.5s19 1.66699 29 5z" />
    <glyph glyph-name="m" unicode="m" horiz-adv-x="856" 
d="M80 0v529.998h110l11 -64c22 25.333 46.333 44.5 73 57.5s54 19.5 82 19.5c66 0 108 -26.333 126 -79c22 26 47.167 45.667 75.5 59s56.5 20 84.5 20c48 0 83.167 -13.333 105.5 -40s33.5 -65 33.5 -115v-388h-128v370c0 29.333 -4.16699 49.5 -12.5 60.5
s-22.833 16.5 -43.5 16.5c-18.667 0 -37 -6.66699 -55 -20s-34 -29.666 -48 -48.999v-378h-128v379c0 25.333 -4.33301 43 -13 53s-22.667 15 -42 15c-18.667 0 -37 -6.66699 -55 -20s-34 -29.666 -48 -48.999v-378h-128z" />
    <glyph glyph-name="n" unicode="n" horiz-adv-x="585" 
d="M80 0v530.001h110l11 -64c22.667 25.333 48.5 44.5 77.5 57.5s58.833 19.5 89.5 19.5c49.333 0 85.166 -13.333 107.499 -40s33.5 -65 33.5 -115v-388h-128v373c0 28 -4.66699 47.333 -14 58s-25.666 16 -48.999 16c-22 0 -42.333 -6.83301 -61 -20.5
s-35 -29.834 -49 -48.501v-378h-128z" />
    <glyph glyph-name="o" unicode="o" horiz-adv-x="587" 
d="M407 265c0 64 -9.66699 110 -29 138s-47.333 42 -84 42c-37.333 0 -65.666 -14 -84.999 -42s-29 -74 -29 -138s9.66699 -110 29 -138s47.666 -42 84.999 -42c36.667 0 64.667 14 84 42s29 74 29 138zM45 265c0 40 5.5 77 16.5 111s27.167 63.333 48.5 88s47.333 44 78 58
s66 21 106 21s75.333 -6.83301 106 -20.5s56.5 -32.667 77.5 -57s37 -53.666 48 -87.999s16.5 -71.833 16.5 -112.5c0 -41.333 -5.5 -79 -16.5 -113s-27 -63.333 -48 -88s-46.833 -43.667 -77.5 -57s-66 -20 -106 -20s-75.5 6.5 -106.5 19.5s-57 31.667 -78 56
s-37 53.666 -48 87.999s-16.5 72.5 -16.5 114.5z" />
    <glyph glyph-name="p" unicode="p" horiz-adv-x="597" 
d="M80 -218l-0.000976562 748h110l9 -66c20 25.333 43.333 44.833 70 58.5s55.667 20.5 87 20.5c35.333 0 65.333 -6.66699 90 -20s44.834 -32.166 60.501 -56.499s27 -53.5 34 -87.5s10.5 -71.667 10.5 -113c0 -39.333 -4.5 -76 -13.5 -110s-22.5 -63.5 -40.5 -88.5
s-40.167 -44.667 -66.5 -59s-56.833 -21.5 -91.5 -21.5c-26 0 -50 4.16699 -72 12.5s-41.667 21.166 -59 38.499v-242zM304.999 84c34.667 0 61.667 14.3311 81 42.998s29 74.667 29 138c0 65.333 -8.5 112 -25.5 140s-41.5 42 -73.5 42c-22 0 -42.167 -6.66699 -60.5 -20
s-34.166 -29.666 -47.499 -48.999v-243c12.667 -17.333 27.167 -30.166 43.5 -38.499s34.166 -12.5 53.499 -12.5z" />
    <glyph glyph-name="q" unicode="q" horiz-adv-x="597" 
d="M388 -204l-0.00195312 257c-17.333 -22 -38.666 -38.5 -63.999 -49.5s-52 -16.5 -80 -16.5c-36 0 -66.667 6.5 -92 19.5s-46.166 31.667 -62.499 56s-28.333 53.5 -36 87.5s-11.5 72 -11.5 114c0 40 4.66699 77 14 111s23 63.5 41 88.5s40 44.5 66 58.5s55.667 21 89 21
c63.333 0 112.333 -22.333 147 -67l8 54h109v-748zM288.998 447c-36 0 -63.499 -14.332 -82.499 -42.999s-28.5 -75.334 -28.5 -140.001c0 -65.333 9 -111.666 27 -138.999s43 -41 75 -41c22 0 42.167 6.16699 60.5 18.5s34.166 28.166 47.499 47.499v247
c-12 16 -26.5 28.333 -43.5 37s-35.5 13 -55.5 13z" />
    <glyph glyph-name="r" unicode="r" horiz-adv-x="395" 
d="M77 0v530.001h114l11 -97c15.333 34.667 34.833 61.167 58.5 79.5s50.5 27.5 80.5 27.5c8 0 16.5 -0.333008 25.5 -1s17.5 -2.33398 25.5 -5.00098l-22 -123c-8.66699 2.66699 -16 4.5 -22 5.5s-14 1.5 -24 1.5c-16 0 -30.5 -3.66699 -43.5 -11s-24.5 -17 -34.5 -29
s-18.333 -26 -25 -42s-12 -32.333 -16 -49v-287h-128z" />
    <glyph glyph-name="s" unicode="s" horiz-adv-x="491" 
d="M229 86c28.667 0 51.002 5.49512 67.002 16.4951s24 26.167 24 45.5c0 10 -1.66699 18.5 -5 25.5s-9.33301 13.333 -18 19s-20.834 11.334 -36.501 17.001s-35.834 11.834 -60.501 18.501c-24 6.66699 -45.667 14.5 -65 23.5s-35.833 20 -49.5 33
s-24.334 27.833 -32.001 44.5s-11.5 35.667 -11.5 57c0 22.667 4.83301 43.667 14.5 63s23.5 36 41.5 50s40 24.833 66 32.5s55.333 11.5 88 11.5c38 0 72.667 -5.33301 104 -16s58 -24 80 -40l-55 -79c-19.333 12.667 -39.333 22.334 -60 29.001s-43.667 10 -69 10
c-24.667 0 -44 -4.66699 -58 -14s-21 -22.333 -21 -39c0 -9.33301 2 -17 6 -23s10.5 -11.667 19.5 -17s21.167 -10.5 36.5 -15.5s34 -10.5 56 -16.5c22.667 -6.66699 44 -14.167 64 -22.5s37.5 -18.666 52.5 -30.999s26.833 -27.666 35.5 -45.999s13 -40.5 13 -66.5
c0 -29.333 -6.16699 -54.5 -18.5 -75.5s-29 -38.5 -50 -52.5s-45 -24.333 -72 -31s-54.833 -10 -83.5 -10c-45.333 0 -86.166 7 -122.499 21s-66.166 32 -89.499 54l67 77c43.333 -35.333 90.666 -53 141.999 -53z" />
    <glyph glyph-name="t" unicode="t" horiz-adv-x="376" 
d="M380 25c-16.667 -12 -36.667 -21.333 -60 -28s-46.333 -10 -69 -10c-58.667 0 -100.167 15.5 -124.5 46.5s-36.5 73.167 -36.5 126.5v276h-80v94h80v115l128 15v-130h129l-15 -94h-114v-274c0 -25.333 4.16699 -43.833 12.5 -55.5s22.5 -17.5 42.5 -17.5
c18 0 38.333 6.66699 61 20z" />
    <glyph glyph-name="u" unicode="u" horiz-adv-x="580" 
d="M205 530v-373c0 -27.333 4.5 -46.5 13.5 -57.5s24.833 -16.5 47.5 -16.5c21.333 0 41.166 5.83301 59.499 17.5s33.833 28.167 46.5 49.5v380h128v-530h-111l-9 64c-19.333 -25.333 -42.666 -44.5 -69.999 -57.5s-57 -19.5 -89 -19.5c-50 0 -86.5 13.833 -109.5 41.5
s-34.5 66.5 -34.5 116.5v385h128z" />
    <glyph glyph-name="v" unicode="v" horiz-adv-x="521" 
d="M336 0h-148l-180 530h139l115 -420h4l115 420h132z" />
    <glyph glyph-name="w" unicode="w" horiz-adv-x="757" 
d="M624 0h-164l-78 384h-4l-83 -384h-159l-118 530h130l71 -429h4l94 429h133l85 -427h4l75 427h124z" />
    <glyph glyph-name="x" unicode="x" horiz-adv-x="510" 
d="M250 203l-109 -203h-141l181 279l-161 251h146l88 -174h4l91 174h140l-160 -247l181 -283h-150l-106 203h-4z" />
    <glyph glyph-name="y" unicode="y" horiz-adv-x="521" 
d="M337 -4c-19.333 -60.667 -50 -110.001 -92 -148.001s-101.333 -60 -178 -66l-16 96c25.333 4 47 9.16699 65 15.5s33.333 14.333 46 24s23 21.334 31 35.001s15 29.5 21 47.5h-40l-166 530h137l110 -437h4l121 437h132z" />
    <glyph glyph-name="z" unicode="z" horiz-adv-x="457" 
d="M168 102h261l-14 -102h-393v93l257 335h-234v102h378v-94z" />
    <glyph glyph-name="braceleft" unicode="{" horiz-adv-x="325" 
d="M116 348c15.333 -3.33301 29.166 -8.16211 41.499 -14.4951s22.666 -14.833 30.999 -25.5s14.5 -24.334 18.5 -41.001s5.33301 -37.334 4 -62.001l-10 -171c-1.33301 -24.667 5 -41.834 19 -51.501s39.333 -14.5 76 -14.5v-95c-73.333 0 -128.833 11.333 -166.5 34
s-55.167 60 -52.5 112l9 203c1.33301 30 -4 49.833 -16 59.5s-31 14.5 -57 14.5v108c26 0 45 4.83301 57 14.5s17.333 29.5 16 59.5l-9 203c-2.66699 52 14.833 89.333 52.5 112s93.167 34 166.5 34v-95c-36.667 0 -62 -4.83301 -76 -14.5s-20.333 -26.834 -19 -51.501
l10 -171c1.33301 -24.667 0 -45.334 -4 -62.001s-10.167 -30.334 -18.5 -41.001s-18.666 -19.167 -30.999 -25.5s-26.166 -11.166 -41.499 -14.499v-4z" />
    <glyph glyph-name="bar" unicode="|" horiz-adv-x="394" 
d="M137 812h120v-919h-120v919z" />
    <glyph glyph-name="braceright" unicode="}" horiz-adv-x="325" 
d="M208 352c-15.333 3.33301 -29.166 8.16211 -41.499 14.4951s-22.666 14.833 -30.999 25.5s-14.5 24.334 -18.5 41.001s-5.33301 37.334 -4 62.001l10 171c1.33301 24.667 -5 41.834 -19 51.501s-39.333 14.5 -76 14.5v95c73.333 0 128.833 -11.333 166.5 -34
s55.167 -60 52.5 -112l-9 -203c-1.33301 -30 4 -49.833 16 -59.5s31 -14.5 57 -14.5v-108c-26 0 -45 -4.83301 -57 -14.5s-17.333 -29.5 -16 -59.5l9 -203c2.66699 -52 -14.833 -89.333 -52.5 -112s-93.167 -34 -166.5 -34v95c36.667 0 62 4.83301 76 14.5
s20.333 26.834 19 51.501l-10 171c-1.33301 24.667 0 45.334 4 62.001s10.167 30.334 18.5 41.001s18.666 19.167 30.999 25.5s26.166 11.166 41.499 14.499v4z" />
    <glyph glyph-name="asciitilde" unicode="~" horiz-adv-x="526" 
d="M341 236c-22.667 0 -41.667 3.16406 -57 9.49707s-29 13.166 -41 20.499l-33 20.5c-10 6.33301 -20.667 9.5 -32 9.5c-17.333 0 -30.833 -5.33301 -40.5 -16s-18.5 -23 -26.5 -37l-76 39c6 12.667 13.333 25.334 22 38.001s19 24.334 31 35.001
s25.833 19.334 41.5 26.001s34.167 10 55.5 10c22.667 0 41.667 -3.16699 57 -9.5s29 -13.166 41 -20.499l33 -20.5c10 -6.33301 20.667 -9.5 32 -9.5c17.333 0 30.833 5.33301 40.5 16s18.5 23 26.5 37l76 -39c-6 -12.667 -13.333 -25.5 -22 -38.5s-19 -24.667 -31 -35
s-26 -18.833 -42 -25.5s-34.333 -10 -55 -10z" />
    <glyph glyph-name="uni00A0" unicode="&#xa0;" horiz-adv-x="253" 
 />
    <glyph glyph-name="exclamdown" unicode="&#xa1;" horiz-adv-x="253" 
d="M210 417c0 -23.333 -8.16699 -43.166 -24.5 -59.499s-36.166 -24.5 -59.499 -24.5s-43 8.16699 -59 24.5s-24 36.166 -24 59.499s8 43 24 59s35.667 24 59 24s43.166 -8 59.499 -24s24.5 -35.667 24.5 -59zM181 237l16 -442h-142l16 442h110z" />
    <glyph glyph-name="cent" unicode="&#xa2;" horiz-adv-x="479" 
d="M295 89c17.333 0 34.3281 2.99902 50.9951 8.99902s35.667 16.667 57 32l57 -84c-19.333 -15.333 -39.166 -27.166 -59.499 -35.499s-41.166 -14.166 -62.499 -17.499v-151h-104v152c-64.667 11.333 -112.834 40.666 -144.501 87.999s-47.5 107.333 -47.5 180
c0 35.333 4.16699 68.333 12.5 99s20.5 58 36.5 82s36.167 44 60.5 60s52.5 27 84.5 33v153h102v-151c44.667 -7.33301 86.334 -25.666 125.001 -54.999l-59 -79c-21.333 15.333 -40.166 25.666 -56.499 30.999s-33.166 8 -50.499 8c-37.333 0 -66.5 -14.167 -87.5 -42.5
s-31.5 -74.5 -31.5 -138.5c0 -63.333 10.333 -108 31 -134s49.334 -39 86.001 -39z" />
    <glyph glyph-name="sterling" unicode="&#xa3;" horiz-adv-x="529" 
d="M110 482c0 28.667 4.33203 55.334 12.999 80.001s21.834 46 39.501 64s39.5 32.167 65.5 42.5s56.667 15.5 92 15.5c82.667 0 146.667 -32.333 192 -97l-81 -60c-15.333 21.333 -31 36.166 -47 44.499s-34.667 12.5 -56 12.5c-30 0 -52.667 -8.66699 -68 -26
s-23 -42.333 -23 -75v-99h197v-75h-197v-76c0 -24.667 -3.5 -49 -10.5 -73s-22.5 -42.333 -46.5 -55v-4h316l-14 -101h-457v95c20.667 5.33301 36.667 12.333 48 21s19.833 18.5 25.5 29.5s9 22.833 10 35.5s1.5 25.667 1.5 39v89h-80v75h80v98z" />
    <glyph glyph-name="currency" unicode="&#xa4;" horiz-adv-x="634" 
d="M196 532c35.333 20.667 76.001 30.9971 122.001 30.9971s86.667 -10.667 122 -32l89 90l68 -68l-88 -88c10 -17.333 18 -36.166 24 -56.499s9 -42.5 9 -66.5c0 -24.667 -3 -47.167 -9 -67.5s-14.333 -39.166 -25 -56.499l89 -88l-68 -68l-90 89
c-34 -20 -74.333 -30 -121 -30c-47.333 0 -88.333 10 -123 30l-90 -90l-68 68l90 90c-10.667 17.333 -18.834 36 -24.501 56s-8.5 42.333 -8.5 67c0 23.333 2.83301 45.333 8.5 66s13.5 39.334 23.5 56.001l-89 90l68 68zM318.001 208.997c38.667 0 67.667 11.667 87 35
s29 56 29 98s-9.66699 74.667 -29 98s-48.333 35 -87 35c-39.333 0 -68.666 -11.667 -87.999 -35s-29 -56 -29 -98s9.66699 -74.667 29 -98s48.666 -35 87.999 -35z" />
    <glyph glyph-name="yen" unicode="&#xa5;" horiz-adv-x="538" 
d="M172 349l-179 324h139l138 -281h4l138 281h133l-179 -324h111v-75h-142v-79h142v-75h-142v-120h-131v120h-141v75h141v79h-141v75h109z" />
    <glyph glyph-name="brokenbar" unicode="&#xa6;" horiz-adv-x="394" 
d="M137 812h120v-362h-120v362zM137 255h120v-362h-120v362z" />
    <glyph glyph-name="section" unicode="&#xa7;" horiz-adv-x="519" 
d="M48 309c0 25.333 6.99805 47.835 20.998 67.502s30.667 36.167 50 49.5c-15.333 13.333 -27.666 28.666 -36.999 45.999s-14 37 -14 59c0 23.333 5.33301 44.333 16 63s25.5 34.667 44.5 48s41.333 23.666 67 30.999s53.834 11 84.501 11
c36.667 0 69.667 -4.83301 99 -14.5s56 -22.834 80 -39.501l-49 -82c-18.667 12.667 -38.5 22.5 -59.5 29.5s-44.167 10.5 -69.5 10.5c-27.333 0 -48.333 -4.33301 -63 -13s-22 -21.667 -22 -39c0 -9.33301 1.66699 -17.333 5 -24s9.33301 -13 18 -19s20.667 -12 36 -18
s35 -12.667 59 -20c26 -8 48.667 -16.667 68 -26s35.5 -20 48.5 -32s22.667 -25.833 29 -41.5s9.5 -34.167 9.5 -55.5c0 -24.667 -7 -47 -21 -67s-30.667 -36.667 -50 -50c15.333 -13.333 27.833 -28.833 37.5 -46.5s14.5 -37.167 14.5 -58.5
c0 -23.333 -5.16699 -44.5 -15.5 -63.5s-25 -35.167 -44 -48.5s-41.833 -23.5 -68.5 -30.5s-56.334 -10.5 -89.001 -10.5c-37.333 0 -71.166 4.83301 -101.499 14.5s-57.5 22.834 -81.5 39.501l48 83c19.333 -12.667 40 -22.667 62 -30s46 -11 72 -11
c26.667 0 48.167 4.5 64.5 13.5s24.5 22.167 24.5 39.5c0 9.33301 -1.66699 17.333 -5 24s-9.33301 13 -18 19s-20.667 12 -36 18s-35 12.667 -59 20c-26 8 -48.667 16.5 -68 25.5s-35.5 19.5 -48.5 31.5s-22.667 25.833 -29 41.5s-9.5 34.167 -9.5 55.5zM167.998 321.002
c0 -12 2.16699 -21.9971 6.5 -29.9971s12.166 -15.333 23.499 -22s27 -13.5 47 -20.5s45.667 -15.167 77 -24.5c18 21.333 27 42.333 27 63c0 11.333 -2.16699 21.166 -6.5 29.499s-12.166 16 -23.499 23s-27 14.167 -47 21.5s-45.333 15.666 -76 24.999
c-8.66699 -10.667 -15.5 -21.834 -20.5 -33.501s-7.5 -22.167 -7.5 -31.5z" />
    <glyph glyph-name="dieresis" unicode="&#xa8;" horiz-adv-x="432" 
d="M102 660c-19.333 0 -36.166 6.83301 -50.499 20.5s-21.5 30.5 -21.5 50.5s7.16699 36.833 21.5 50.5s31.166 20.5 50.499 20.5c20.667 0 38 -6.83301 52 -20.5s21 -30.5 21 -50.5s-7 -36.833 -21 -50.5s-31.333 -20.5 -52 -20.5zM330 660c-20.667 0 -38 6.83301 -52 20.5
s-21 30.5 -21 50.5s7 36.833 21 50.5s31.333 20.5 52 20.5c20 0 37 -6.83301 51 -20.5s21 -30.5 21 -50.5s-7 -36.833 -21 -50.5s-31 -20.5 -51 -20.5z" />
    <glyph glyph-name="copyright" unicode="&#xa9;" horiz-adv-x="803" 
d="M409 313c17.333 0 32.6699 3.16797 46.0029 9.50098s25.666 15.166 36.999 26.499l42 -64c-13.333 -12.667 -31.333 -24.5 -54 -35.5s-48.334 -16.5 -77.001 -16.5c-52.667 0 -95 16.833 -127 50.5s-48 82.834 -48 147.501c0 31.333 4.5 59.166 13.5 83.499
s21.333 45 37 62s34.167 30 55.5 39s44.333 13.5 69 13.5c26 0 49 -4 69 -12s39.333 -19.667 58 -35l-45 -58c-13.333 10 -25.833 17.167 -37.5 21.5s-23.834 6.5 -36.501 6.5c-23.333 0 -43 -9.33301 -59 -28s-24 -49.667 -24 -93c0 -40.667 7.5 -70.5 22.5 -89.5
s34.5 -28.5 58.5 -28.5zM403.004 171.001c36 0 69.167 6.83301 99.5 20.5s56.666 32.167 78.999 55.5s39.833 50.833 52.5 82.5s19 65.5 19 101.5s-6.33301 69.833 -19 101.5s-30.167 59.334 -52.5 83.001s-48.666 42.334 -78.999 56.001s-63.5 20.5 -99.5 20.5
s-69.333 -6.83301 -100 -20.5s-57.167 -32.334 -79.5 -56.001s-39.833 -51.334 -52.5 -83.001s-19 -65.5 -19 -101.5s6.33301 -69.833 19 -101.5s30.167 -59.167 52.5 -82.5s48.833 -41.833 79.5 -55.5s64 -20.5 100 -20.5zM403.004 101.001c-46 0 -89 8.66699 -129 26
s-75 40.833 -105 70.5s-53.667 64.5 -71 104.5s-26 83 -26 129s8.66699 89 26 129s41 75 71 105s65 53.667 105 71s83 26 129 26c45.333 0 88 -8.66699 128 -26s74.833 -41 104.5 -71s53 -65 70 -105s25.5 -83 25.5 -129s-8.5 -89 -25.5 -129s-40.333 -74.833 -70 -104.5
s-64.5 -53.167 -104.5 -70.5s-82.667 -26 -128 -26z" />
    <glyph glyph-name="ordfeminine" unicode="&#xaa;" horiz-adv-x="600" 
d="M465 431c0 -13.333 2.49609 -23.5029 7.49609 -30.5029s12.833 -12.167 23.5 -15.5l-27 -77c-26 2.66699 -47.167 8.33398 -63.5 17.001s-29.166 21.667 -38.499 39c-34 -38 -77 -57 -129 -57c-46 0 -82.5 12.333 -109.5 37s-40.5 57.667 -40.5 99
c0 45.333 18.333 80.5 55 105.5s90.334 37.5 161.001 37.5h48c0 30.667 -5.5 51.834 -16.5 63.501s-33.167 17.5 -66.5 17.5c-13.333 0 -30 -1.83301 -50 -5.5s-41.667 -9.5 -65 -17.5l-30 80c30.667 11.333 59.334 19.333 86.001 24s51.667 7 75 7
c64.667 0 110.834 -12.667 138.501 -38s41.5 -61.666 41.5 -108.999v-177zM269.996 388.997c32 0 59.333 15.667 82 47v76h-35c-39.333 0 -66.5 -5.66699 -81.5 -17s-22.5 -27.333 -22.5 -48c0 -19.333 4.5 -33.833 13.5 -43.5s23.5 -14.5 43.5 -14.5z" />
    <glyph glyph-name="guillemotleft" unicode="&#xab;" horiz-adv-x="596" 
d="M308 82l-77 -50l-189 215v85l188 216l78 -50l-132 -208zM554 82l-78 -50l-188 215v85l188 216l78 -50l-133 -208z" />
    <glyph glyph-name="logicalnot" unicode="&#xac;" horiz-adv-x="519" 
d="M463 115h-106v147h-300v101h406v-248z" />
    <glyph glyph-name="uni00AD" unicode="&#xad;" horiz-adv-x="410" 
d="M53 262v102h303v-102h-303z" />
    <glyph glyph-name="registered" unicode="&#xae;" horiz-adv-x="600" 
d="M300 226c-36.667 0 -71.167 6.83301 -103.5 20.5s-60.5 32.5 -84.5 56.5s-42.833 52.167 -56.5 84.5s-20.5 66.833 -20.5 103.5s6.83301 71.167 20.5 103.5s32.5 60.5 56.5 84.5s52.167 42.833 84.5 56.5s66.833 20.5 103.5 20.5s71.167 -6.83301 103.5 -20.5
s60.5 -32.5 84.5 -56.5s42.833 -52.167 56.5 -84.5s20.5 -66.833 20.5 -103.5s-6.83301 -71.167 -20.5 -103.5s-32.5 -60.5 -56.5 -84.5s-52.167 -42.833 -84.5 -56.5s-66.833 -20.5 -103.5 -20.5zM300 282c28.667 0 55.334 5.5 80.001 16.5s46 26 64 45s32 41.167 42 66.5
s15 52.333 15 81s-5 55.667 -15 81s-24 47.5 -42 66.5s-39.333 34 -64 45s-51.334 16.5 -80.001 16.5s-55.334 -5.5 -80.001 -16.5s-46 -26 -64 -45s-32 -41.167 -42 -66.5s-15 -52.333 -15 -81s5 -55.667 15 -81s24 -47.5 42 -66.5s39.333 -34 64 -45
s51.334 -16.5 80.001 -16.5zM413 549c0 -19.333 -5.83301 -35.667 -17.5 -49s-26.5 -23.333 -44.5 -30l80 -119h-78l-66 106h-25v-106h-68v286h87c88 0 132 -29.333 132 -88zM343 549.999c0 23.333 -18.667 35 -56 35h-25v-74h26c18 0 31.667 3 41 9s14 16 14 30z" />
    <glyph glyph-name="macron" unicode="&#xaf;" horiz-adv-x="358" 
d="M328 675h-298v92h298v-92z" />
    <glyph glyph-name="degree" unicode="&#xb0;" horiz-adv-x="503" 
d="M217 454c21.333 0 39.833 6.83301 55.5 20.5s23.5 35.167 23.5 64.5s-7.83301 51 -23.5 65s-34.167 21 -55.5 21s-39.833 -6.66699 -55.5 -20s-23.5 -35 -23.5 -65s7.83301 -51.833 23.5 -65.5s34.167 -20.5 55.5 -20.5zM217 374c-22 0 -43.5 3.66699 -64.5 11
s-39.667 18 -56 32s-29.5 31.333 -39.5 52s-15 44.334 -15 71.001s5 50.167 15 70.5s23.167 37.5 39.5 51.5s35 24.667 56 32s42.5 11 64.5 11s43.333 -3.66699 64 -11s39.334 -18 56.001 -32s30 -31.333 40 -52s15 -44.334 15 -71.001s-5 -50.167 -15 -70.5
s-23.333 -37.5 -40 -51.5s-35.334 -24.667 -56.001 -32s-42 -11 -64 -11z" />
    <glyph glyph-name="plusminus" unicode="&#xb1;" horiz-adv-x="519" 
d="M314 264v-107h-109v107h-148v101h148v153h109v-153h148v-101h-148zM57 0v101h405v-101h-405z" />
    <glyph glyph-name="twosuperior" unicode="&#xb2;" horiz-adv-x="400" 
d="M340 589c0 -32.667 -12.502 -67 -37.502 -103s-66.167 -78.333 -123.5 -127h174l-11 -77h-288v68c36.667 32.667 66.834 60.834 90.501 84.501s42.5 44.5 56.5 62.5s23.667 33.667 29 47s8 26.666 8 39.999c0 16.667 -5.33301 29.334 -16 38.001s-23.667 13 -39 13
c-13.333 0 -25.833 -3 -37.5 -9s-24.5 -17 -38.5 -33l-65 48c19.333 23.333 41 41.166 65 53.499s51.667 18.5 83 18.5c48.667 0 85.834 -12 111.501 -36s38.5 -53.333 38.5 -88z" />
    <glyph glyph-name="threesuperior" unicode="&#xb3;" horiz-adv-x="400" 
d="M355 406c0 -18.667 -3.83008 -36 -11.4971 -52s-18.834 -30 -33.501 -42s-32.334 -21.5 -53.001 -28.5s-44.334 -10.5 -71.001 -10.5c-62 0 -112.667 21.667 -152 65l59 53c13.333 -15.333 27.333 -26.5 42 -33.5s29.667 -10.5 45 -10.5c23.333 0 41.333 5.66699 54 17
s19 26 19 44c0 21.333 -6.33301 36.333 -19 45s-29.667 13 -51 13h-40l12 71h27c17.333 0 31.666 4.16699 42.999 12.5s17 21.166 17 38.499c0 16 -5.5 28.167 -16.5 36.5s-25.167 12.5 -42.5 12.5c-28.667 0 -56.667 -12.667 -84 -38l-52 56
c21.333 19.333 44.166 33.5 68.499 42.5s49.5 13.5 75.5 13.5c48.667 0 85.834 -10.667 111.501 -32s38.5 -47.666 38.5 -78.999c0 -19.333 -6.5 -37.666 -19.5 -54.999s-31.833 -29.333 -56.5 -36v-2c24.667 -4.66699 45.834 -16.334 63.501 -35.001s26.5 -40.667 26.5 -66
z" />
    <glyph glyph-name="acute" unicode="&#xb4;" horiz-adv-x="322" 
d="M30 694l204 125l58 -94l-226 -94z" />
    <glyph glyph-name="mu" unicode="&#xb5;" horiz-adv-x="584" 
d="M208 530l0.000976562 -373.001c0 -27.333 4.5 -46.5 13.5 -57.5s24.833 -16.5 47.5 -16.5c21.333 0 41.166 5.83301 59.499 17.5s33.833 28.167 46.5 49.5v380h128v-530h-113l-8 62c-14.667 -21.333 -33 -39.166 -55 -53.499s-46 -21.5 -72 -21.5
c-14.667 0 -27.5 1.66699 -38.5 5s-20.5 7.66602 -28.5 12.999l-2 -3c7.33301 -13.333 12.833 -27.166 16.5 -41.499s5.5 -28.833 5.5 -43.5v-121l-128 -14v748h128z" />
    <glyph glyph-name="paragraph" unicode="&#xb6;" horiz-adv-x="773" 
d="M541 -218v810.999h-98v-800l-118 -11v486c-40.667 0.666992 -76.334 6.33398 -107.001 17.001s-56.5 25.5 -77.5 44.5s-36.833 41.167 -47.5 66.5s-16 53 -16 83c0 30.667 5.5 59 16.5 85s27.5 48.5 49.5 67.5s49.333 33.833 82 44.5s70.334 16 113.001 16h321v-899z" />
    <glyph glyph-name="periodcentered" unicode="&#xb7;" horiz-adv-x="253" 
d="M43 337c0 23.333 8.16699 43.166 24.5 59.499s36.166 24.5 59.499 24.5s43 -8.16699 59 -24.5s24 -36.166 24 -59.499s-8 -43 -24 -59s-35.667 -24 -59 -24s-43.166 8 -59.499 24s-24.5 35.667 -24.5 59z" />
    <glyph glyph-name="cedilla" unicode="&#xb8;" horiz-adv-x="314" 
d="M187 -141c0 16 -7.33105 26.5 -21.998 31.5s-37 7.5 -67 7.5l10 118h78v-66c34.667 -3.33301 59.667 -13.833 75 -31.5s23 -37.5 23 -59.5c0 -34.667 -12.833 -61.667 -38.5 -81s-58.834 -29 -99.501 -29c-22.667 0 -44.334 2.83301 -65.001 8.5s-37.667 12.5 -51 20.5
l34 63c10 -5.33301 20.833 -9.66602 32.5 -12.999s23.167 -5 34.5 -5c17.333 0 31 2.66699 41 8s15 14.666 15 27.999z" />
    <glyph glyph-name="onesuperior" unicode="&#xb9;" horiz-adv-x="400" 
d="M198 281v320l-88 -49l-47 64l150 87h83v-422h-98z" />
    <glyph glyph-name="ordmasculine" unicode="&#xba;" horiz-adv-x="600" 
d="M390 531c0 48 -7.66699 82.667 -23 104s-37.666 32 -66.999 32s-51.666 -10.667 -66.999 -32s-23 -56 -23 -104c0 -48.667 7.66699 -83.5 23 -104.5s37.666 -31.5 66.999 -31.5s51.666 10.5 66.999 31.5s23 55.833 23 104.5zM88 531c0 32.667 4.83301 62.667 14.5 90
s23.5 51 41.5 71s40.167 35.5 66.5 46.5s56.166 16.5 89.499 16.5s63.166 -5.5 89.499 -16.5s48.5 -26.333 66.5 -46s31.833 -43.334 41.5 -71.001s14.5 -57.834 14.5 -90.501c0 -33.333 -4.83301 -63.666 -14.5 -90.999s-23.5 -50.833 -41.5 -70.5s-40.167 -35 -66.5 -46
s-56.166 -16.5 -89.499 -16.5s-63.166 5.33301 -89.499 16s-48.5 25.834 -66.5 45.501s-31.833 43.167 -41.5 70.5s-14.5 58 -14.5 92z" />
    <glyph glyph-name="guillemotright" unicode="&#xbb;" horiz-adv-x="596" 
d="M175 290l-133 208l78 50l188 -216v-85l-189 -215l-77 50zM420 290l-132 208l77 50l189 -216v-85l-189 -215l-77 50z" />
    <glyph glyph-name="onequarter" unicode="&#xbc;" horiz-adv-x="900" 
d="M197 281v320l-44 -24.5l-44 -24.5l-47 64l151 87h82v-422h-98zM807 91v-91h-100v91h-176v63l120 278l82 -31l-98 -237h73l12 100h87v-100h50v-73h-50zM291 -83l-82 40l405 800l80 -40z" />
    <glyph glyph-name="onehalf" unicode="&#xbd;" horiz-adv-x="900" 
d="M197 281v320l-44 -24.5l-44 -24.5l-47 64l151 87h82v-422h-98zM872 307c0 -32.667 -12.667 -67.1689 -38 -103.502s-66.333 -78.833 -123 -127.5h174l-11 -76h-289v67c36.667 33.333 66.834 61.833 90.501 85.5s42.5 44.334 56.5 62.001s23.667 33.334 29 47.001
s8 26.834 8 39.501c0 16.667 -5.16699 29.5 -15.5 38.5s-23.5 13.5 -39.5 13.5c-13.333 0 -25.833 -3 -37.5 -9s-24.5 -17.333 -38.5 -34l-65 49c19.333 22.667 41.166 40.167 65.499 52.5s51.833 18.5 82.5 18.5c49.333 0 86.833 -11.833 112.5 -35.5
s38.5 -52.834 38.5 -87.501zM291 -83.002l-82 40l405 800l80 -40z" />
    <glyph glyph-name="threequarters" unicode="&#xbe;" horiz-adv-x="900" 
d="M353 406c0 -18.667 -3.83105 -36 -11.498 -52s-18.834 -30 -33.501 -42s-32.334 -21.5 -53.001 -28.5s-44.334 -10.5 -71.001 -10.5c-62 0 -112.667 21.667 -152 65l59 53c13.333 -15.333 27.333 -26.5 42 -33.5s29.667 -10.5 45 -10.5c23.333 0 41.333 5.66699 54 17
s19 26 19 44c0 21.333 -6.33301 36.333 -19 45s-29.667 13 -51 13h-40l12 71h27c17.333 0 31.5 4.16699 42.5 12.5s16.5 21.166 16.5 38.499c0 16 -5.33301 28.167 -16 36.5s-24.667 12.5 -42 12.5c-28.667 0 -56.667 -12.667 -84 -38l-52 56
c21.333 19.333 44.166 33.5 68.499 42.5s49.5 13.5 75.5 13.5c48.667 0 85.834 -10.667 111.501 -32s38.5 -47.666 38.5 -78.999c0 -19.333 -6.5 -37.666 -19.5 -54.999s-31.833 -29.333 -56.5 -36v-2c24.667 -4.66699 45.834 -16.334 63.501 -35.001s26.5 -40.667 26.5 -66
zM816.002 91v-91h-100v91h-177v63l121 278l82 -31l-98 -237h73l12 100h87v-100h50v-73h-50zM302.002 -83l-82 40l405 800l81 -40z" />
    <glyph glyph-name="questiondown" unicode="&#xbf;" horiz-adv-x="498" 
d="M218 237l128.001 0.00195312v-24c0 -28 -4.16699 -51.5 -12.5 -70.5s-18.833 -35.5 -31.5 -49.5s-26.334 -25.833 -41.001 -35.5s-28.334 -19.5 -41.001 -29.5s-23.167 -20.5 -31.5 -31.5s-12.5 -24.5 -12.5 -40.5c0 -23.333 7.5 -41 22.5 -53s36.5 -18 64.5 -18
c21.333 0 42.166 5.16699 62.499 15.5s40.5 27.166 60.5 50.499l85 -66c-58.667 -68.667 -131.667 -103 -219 -103c-35.333 0 -66.166 4.5 -92.499 13.5s-48.166 21 -65.499 36s-30.333 32.333 -39 52s-13 40.167 -13 61.5c0 26.667 4.33301 49.167 13 67.5s19.5 34 32.5 47
s27.167 24.5 42.5 34.5s29.5 20.5 42.5 31.5s23.833 23.667 32.5 38s13 32.166 13 53.499v20zM361.001 417.002c0 -11.333 -2.16699 -22.166 -6.5 -32.499s-10.333 -19.333 -18 -27s-16.5 -13.667 -26.5 -18s-21 -6.5 -33 -6.5c-23.333 0 -43 8.16699 -59 24.5
s-24 36.166 -24 59.499s8 43 24 59s35.667 24 59 24c12 0 23 -2.16699 33 -6.5s18.833 -10.333 26.5 -18s13.667 -16.5 18 -26.5s6.5 -20.667 6.5 -32z" />
    <glyph glyph-name="Agrave" unicode="&#xc0;" horiz-adv-x="595" 
d="M414 162h-237l-46 -162h-134l221 692h161l220 -692h-139zM205 262h182l-89 312h-5zM392 752l-226 95l58 95l204 -126z" />
    <glyph glyph-name="Aacute" unicode="&#xc1;" horiz-adv-x="595" 
d="M414 162h-237l-46 -162h-134l221 692h161l220 -692h-139zM205 262h182l-89 312h-5zM165 817l205 125l57 -94l-225 -94z" />
    <glyph glyph-name="Acircumflex" unicode="&#xc2;" horiz-adv-x="595" 
d="M414 162h-237l-46 -162h-134l221 692h161l220 -692h-139zM205 262h182l-89 312h-5zM163 757l-48 55l144 121h79l143 -121l-48 -55l-135 83z" />
    <glyph glyph-name="Atilde" unicode="&#xc3;" horiz-adv-x="595" 
d="M414 162h-237l-46 -162h-134l221 692h161l220 -692h-139zM205 262h182l-89 312h-5zM351 773c-15.333 0 -28.332 2.49902 -38.999 7.49902s-20 10.5 -28 16.5l-22.5 16.5c-7 5 -14.5 7.5 -22.5 7.5c-12.667 0 -22.667 -3.83301 -30 -11.5s-15 -18.5 -23 -32.5l-70 32
c5.33301 14 12 27.333 20 40s17.167 23.834 27.5 33.501s22.166 17.334 35.499 23.001s28 8.5 44 8.5c15.333 0 28.333 -2.5 39 -7.5s20 -10.667 28 -17s15.5 -12 22.5 -17s14.5 -7.5 22.5 -7.5c13.333 0 23.5 3.83301 30.5 11.5s14.5 18.5 22.5 32.5l70 -32
c-5.33301 -14 -12 -27.167 -20 -39.5s-17.333 -23.333 -28 -33s-22.5 -17.334 -35.5 -23.001s-27.5 -8.5 -43.5 -8.5z" />
    <glyph glyph-name="Adieresis" unicode="&#xc4;" horiz-adv-x="595" 
d="M414 162h-237l-46 -162h-134l221 692h161l220 -692h-139zM205 262h182l-89 312h-5zM184 783c-20 0 -37 6.83301 -51 20.5s-21 30.5 -21 50.5s7 36.833 21 50.5s31 20.5 51 20.5c20.667 0 37.834 -6.83301 51.501 -20.5s20.5 -30.5 20.5 -50.5
s-6.83301 -36.833 -20.5 -50.5s-30.834 -20.5 -51.501 -20.5zM411 783c-20 0 -37 6.83301 -51 20.5s-21 30.5 -21 50.5s7 36.833 21 50.5s31 20.5 51 20.5s37.167 -6.83301 51.5 -20.5s21.5 -30.5 21.5 -50.5s-7.16699 -36.833 -21.5 -50.5s-31.5 -20.5 -51.5 -20.5z" />
    <glyph glyph-name="Aring" unicode="&#xc5;" horiz-adv-x="595" 
d="M414 162h-237l-46 -162h-134l221 692h161l220 -692h-139zM205 262h182l-89 312h-5zM246 860c0 -17.333 4.66699 -30.666 14 -39.999s21.666 -14 36.999 -14s27.666 4.66699 36.999 14s14 22.666 14 39.999s-4.66699 30.666 -14 39.999s-21.666 14 -36.999 14
s-27.666 -4.66699 -36.999 -14s-14 -22.666 -14 -39.999zM427 860c0 -16.667 -3.16699 -32.334 -9.5 -47.001s-15.333 -27.5 -27 -38.5s-25.5 -19.667 -41.5 -26s-33.333 -9.5 -52 -9.5c-19.333 0 -37 3.16699 -53 9.5s-29.667 15 -41 26s-20.166 23.833 -26.499 38.5
s-9.5 30.334 -9.5 47.001s3.16699 32.167 9.5 46.5s15.166 27 26.499 38s25 19.667 41 26s33.667 9.5 53 9.5c18.667 0 36 -3.16699 52 -9.5s29.833 -15 41.5 -26s20.667 -23.667 27 -38s9.5 -29.833 9.5 -46.5z" />
    <glyph glyph-name="AE" unicode="&#xc6;" horiz-adv-x="818" 
d="M420 162h-245l-59 -162h-133l274 692h495l-14 -99h-292l45 -194h254v-99h-230l47 -201h228v-99h-336zM210 262h189l-68 318h-5z" />
    <glyph glyph-name="Ccedilla" unicode="&#xc7;" horiz-adv-x="581" 
d="M369 -141c0 16 -7.49902 26.4971 -22.499 31.4971s-37.5 7.5 -67.5 7.5l8 95c-35.333 6.66699 -67.666 19.334 -96.999 38.001s-54.333 42.834 -75 72.501s-36.667 64.834 -48 105.501s-17 86.667 -17 138c0 58 8 109.333 24 154s37.667 82 65 112s59.5 52.833 96.5 68.5
s76.167 23.5 117.5 23.5c45.333 0 83.666 -6.5 114.999 -19.5s61 -30.833 89 -53.5l-68 -80c-38.667 32.667 -81.334 49 -128.001 49c-24.667 0 -47.5 -4.33301 -68.5 -13s-39.333 -23 -55 -43s-27.834 -46.167 -36.501 -78.5s-13 -72.166 -13 -119.499
c0 -46.667 4.33301 -86.167 13 -118.5s20.5 -58.5 35.5 -78.5s32.833 -34.333 53.5 -43s43 -13 67 -13c35.333 0 64.333 6.16699 87 18.5s42.667 26.166 60 41.499l65 -82c-21.333 -21.333 -48.5 -40.333 -81.5 -57s-73.167 -26 -120.5 -28v-37
c34.667 -3.33301 59.834 -13.833 75.501 -31.5s23.5 -37.5 23.5 -59.5c0 -34.667 -13 -61.667 -39 -81s-59 -29 -99 -29c-23.333 0 -45.166 2.83301 -65.499 8.5s-37.166 12.5 -50.499 20.5l34 63c10 -5.33301 20.667 -9.66602 32 -12.999s22.666 -5 33.999 -5
c17.333 0 31.166 2.66699 41.499 8s15.5 14.666 15.5 27.999z" />
    <glyph glyph-name="Egrave" unicode="&#xc8;" horiz-adv-x="535" 
d="M217 593v-194h222v-99h-222v-201h273v-99h-405v692h401l-14 -99h-255zM378 752l-226 95l58 95l204 -126z" />
    <glyph glyph-name="Eacute" unicode="&#xc9;" horiz-adv-x="535" 
d="M217 593v-194h222v-99h-222v-201h273v-99h-405v692h401l-14 -99h-255zM159 817l205 125l57 -94l-225 -94z" />
    <glyph glyph-name="Ecircumflex" unicode="&#xca;" horiz-adv-x="535" 
d="M217 593v-194h222v-99h-222v-201h273v-99h-405v692h401l-14 -99h-255zM145 757l-48 55l144 121h79l143 -121l-48 -55l-135 83z" />
    <glyph glyph-name="Edieresis" unicode="&#xcb;" horiz-adv-x="535" 
d="M217 593v-194h222v-99h-222v-201h273v-99h-405v692h401l-14 -99h-255zM167 783c-20 0 -37 6.83301 -51 20.5s-21 30.5 -21 50.5s7 36.833 21 50.5s31 20.5 51 20.5c20.667 0 37.834 -6.83301 51.501 -20.5s20.5 -30.5 20.5 -50.5s-6.83301 -36.833 -20.5 -50.5
s-30.834 -20.5 -51.501 -20.5zM394 783c-20 0 -37 6.83301 -51 20.5s-21 30.5 -21 50.5s7 36.833 21 50.5s31 20.5 51 20.5s37.167 -6.83301 51.5 -20.5s21.5 -30.5 21.5 -50.5s-7.16699 -36.833 -21.5 -50.5s-31.5 -20.5 -51.5 -20.5z" />
    <glyph glyph-name="Igrave" unicode="&#xcc;" horiz-adv-x="301" 
d="M85 0v692h132v-692h-132zM246 752l-226 95l58 95l204 -126z" />
    <glyph glyph-name="Iacute" unicode="&#xcd;" horiz-adv-x="301" 
d="M85 0v692h132v-692h-132zM19 817l205 125l57 -94l-225 -94z" />
    <glyph glyph-name="Icircumflex" unicode="&#xce;" horiz-adv-x="301" 
d="M85 0v692h132v-692h-132zM15 757l-48 55l144 121h79l143 -121l-48 -55l-135 83z" />
    <glyph glyph-name="Idieresis" unicode="&#xcf;" horiz-adv-x="301" 
d="M85 0v692h132v-692h-132zM37 783c-20 0 -37 6.83301 -51 20.5s-21 30.5 -21 50.5s7 36.833 21 50.5s31 20.5 51 20.5c20.667 0 37.834 -6.83301 51.501 -20.5s20.5 -30.5 20.5 -50.5s-6.83301 -36.833 -20.5 -50.5s-30.834 -20.5 -51.501 -20.5zM264 783
c-20 0 -37 6.83301 -51 20.5s-21 30.5 -21 50.5s7 36.833 21 50.5s31 20.5 51 20.5s37.167 -6.83301 51.5 -20.5s21.5 -30.5 21.5 -50.5s-7.16699 -36.833 -21.5 -50.5s-31.5 -20.5 -51.5 -20.5z" />
    <glyph glyph-name="Eth" unicode="&#xd0;" horiz-adv-x="662" 
d="M612 349c0 -71.333 -10 -129.666 -30 -174.999s-46 -80.833 -78 -106.5s-67.833 -43.334 -107.5 -53.001s-79.167 -14.5 -118.5 -14.5h-190v308h-77v89h77v295h178c42 0 83.5 -4.5 124.5 -13.5s78 -26 111 -51s59.667 -59.833 80 -104.5s30.5 -102.667 30.5 -174z
M373 308l-152.997 -0.000976562v-208h70c23.333 0 46.166 3.66699 68.499 11s42 20.333 59 39s30.667 44 41 76s15.5 73 15.5 123c0 52.667 -5.33301 94.834 -16 126.501s-24.834 56.167 -42.501 73.5s-37.334 28.833 -59.001 34.5s-43.5 8.5 -65.5 8.5h-71v-195h153v-89z
" />
    <glyph glyph-name="Ntilde" unicode="&#xd1;" horiz-adv-x="675" 
d="M414 0l-221.999 541.001h-4c2 -24.667 4.33301 -50.334 7 -77.001c2 -23.333 3.83301 -49.333 5.5 -78s2.5 -57.667 2.5 -87v-299h-118v692h173l228 -542h4c-2.66699 21.333 -5.33398 45 -8.00098 71c-2 22 -3.83301 47.5 -5.5 76.5s-2.5 59.833 -2.5 92.5v302h117v-692
h-177zM388.001 773.001c-15.333 0 -28.332 2.49902 -38.999 7.49902s-20 10.5 -28 16.5l-22.5 16.5c-7 5 -14.5 7.5 -22.5 7.5c-12.667 0 -22.667 -3.83301 -30 -11.5s-15 -18.5 -23 -32.5l-70 32c5.33301 14 12 27.333 20 40s17.167 23.834 27.5 33.501
s22.166 17.334 35.499 23.001s28 8.5 44 8.5c15.333 0 28.333 -2.5 39 -7.5s20 -10.667 28 -17s15.5 -12 22.5 -17s14.5 -7.5 22.5 -7.5c13.333 0 23.5 3.83301 30.5 11.5s14.5 18.5 22.5 32.5l70 -32c-5.33301 -14 -12 -27.167 -20 -39.5s-17.333 -23.333 -28 -33
s-22.5 -17.334 -35.5 -23.001s-27.5 -8.5 -43.5 -8.5z" />
    <glyph glyph-name="Ograve" unicode="&#xd2;" horiz-adv-x="703" 
d="M653 346c0 -57.333 -7.16699 -108.331 -21.5 -152.998s-34.5 -82.334 -60.5 -113.001s-57.5 -53.834 -94.5 -69.501s-78.5 -23.5 -124.5 -23.5s-87.667 7.66699 -125 23s-69 38.166 -95 68.499s-46.167 67.833 -60.5 112.5s-21.5 96.334 -21.5 155.001
c0 57.333 7.16699 108.333 21.5 153s34.5 82.167 60.5 112.5s57.667 53.5 95 69.5s79 24 125 24s87.5 -7.66699 124.5 -23s68.5 -38.166 94.5 -68.499s46.167 -67.833 60.5 -112.5s21.5 -96.334 21.5 -155.001zM515 346.002c0 46.667 -3.66602 86.334 -10.999 119.001
s-18 59.334 -32 80.001s-31 35.5 -51 44.5s-43 13.5 -69 13.5s-49.167 -4.5 -69.5 -13.5s-37.5 -23.833 -51.5 -44.5s-24.667 -47.334 -32 -80.001s-11 -72.334 -11 -119.001c0 -47.333 3.83301 -87.166 11.5 -119.499s18.5 -58.833 32.5 -79.5s31.167 -35.5 51.5 -44.5
s43.166 -13.5 68.499 -13.5c26 0 49 4.5 69 13.5s37 23.833 51 44.5s24.667 47.167 32 79.5s11 72.166 11 119.499zM447.001 752.002l-226 95l58 95l204 -126z" />
    <glyph glyph-name="Oacute" unicode="&#xd3;" horiz-adv-x="703" 
d="M653 346c0 -57.333 -7.16699 -108.331 -21.5 -152.998s-34.5 -82.334 -60.5 -113.001s-57.5 -53.834 -94.5 -69.501s-78.5 -23.5 -124.5 -23.5s-87.667 7.66699 -125 23s-69 38.166 -95 68.499s-46.167 67.833 -60.5 112.5s-21.5 96.334 -21.5 155.001
c0 57.333 7.16699 108.333 21.5 153s34.5 82.167 60.5 112.5s57.667 53.5 95 69.5s79 24 125 24s87.5 -7.66699 124.5 -23s68.5 -38.166 94.5 -68.499s46.167 -67.833 60.5 -112.5s21.5 -96.334 21.5 -155.001zM515 346.002c0 46.667 -3.66602 86.334 -10.999 119.001
s-18 59.334 -32 80.001s-31 35.5 -51 44.5s-43 13.5 -69 13.5s-49.167 -4.5 -69.5 -13.5s-37.5 -23.833 -51.5 -44.5s-24.667 -47.334 -32 -80.001s-11 -72.334 -11 -119.001c0 -47.333 3.83301 -87.166 11.5 -119.499s18.5 -58.833 32.5 -79.5s31.167 -35.5 51.5 -44.5
s43.166 -13.5 68.499 -13.5c26 0 49 4.5 69 13.5s37 23.833 51 44.5s24.667 47.167 32 79.5s11 72.166 11 119.499zM220.001 817.002l205 125l57 -94l-225 -94z" />
    <glyph glyph-name="Ocircumflex" unicode="&#xd4;" horiz-adv-x="703" 
d="M653 346c0 -57.333 -7.16699 -108.331 -21.5 -152.998s-34.5 -82.334 -60.5 -113.001s-57.5 -53.834 -94.5 -69.501s-78.5 -23.5 -124.5 -23.5s-87.667 7.66699 -125 23s-69 38.166 -95 68.499s-46.167 67.833 -60.5 112.5s-21.5 96.334 -21.5 155.001
c0 57.333 7.16699 108.333 21.5 153s34.5 82.167 60.5 112.5s57.667 53.5 95 69.5s79 24 125 24s87.5 -7.66699 124.5 -23s68.5 -38.166 94.5 -68.499s46.167 -67.833 60.5 -112.5s21.5 -96.334 21.5 -155.001zM515 346.002c0 46.667 -3.66602 86.334 -10.999 119.001
s-18 59.334 -32 80.001s-31 35.5 -51 44.5s-43 13.5 -69 13.5s-49.167 -4.5 -69.5 -13.5s-37.5 -23.833 -51.5 -44.5s-24.667 -47.334 -32 -80.001s-11 -72.334 -11 -119.001c0 -47.333 3.83301 -87.166 11.5 -119.499s18.5 -58.833 32.5 -79.5s31.167 -35.5 51.5 -44.5
s43.166 -13.5 68.499 -13.5c26 0 49 4.5 69 13.5s37 23.833 51 44.5s24.667 47.167 32 79.5s11 72.166 11 119.499zM216.001 757.002l-48 55l144 121h79l143 -121l-48 -55l-135 83z" />
    <glyph glyph-name="Otilde" unicode="&#xd5;" horiz-adv-x="703" 
d="M653 346c0 -57.333 -7.16699 -108.331 -21.5 -152.998s-34.5 -82.334 -60.5 -113.001s-57.5 -53.834 -94.5 -69.501s-78.5 -23.5 -124.5 -23.5s-87.667 7.66699 -125 23s-69 38.166 -95 68.499s-46.167 67.833 -60.5 112.5s-21.5 96.334 -21.5 155.001
c0 57.333 7.16699 108.333 21.5 153s34.5 82.167 60.5 112.5s57.667 53.5 95 69.5s79 24 125 24s87.5 -7.66699 124.5 -23s68.5 -38.166 94.5 -68.499s46.167 -67.833 60.5 -112.5s21.5 -96.334 21.5 -155.001zM515 346.002c0 46.667 -3.66602 86.334 -10.999 119.001
s-18 59.334 -32 80.001s-31 35.5 -51 44.5s-43 13.5 -69 13.5s-49.167 -4.5 -69.5 -13.5s-37.5 -23.833 -51.5 -44.5s-24.667 -47.334 -32 -80.001s-11 -72.334 -11 -119.001c0 -47.333 3.83301 -87.166 11.5 -119.499s18.5 -58.833 32.5 -79.5s31.167 -35.5 51.5 -44.5
s43.166 -13.5 68.499 -13.5c26 0 49 4.5 69 13.5s37 23.833 51 44.5s24.667 47.167 32 79.5s11 72.166 11 119.499zM405.001 773.002c-15.333 0 -28.332 2.49902 -38.999 7.49902s-20 10.5 -28 16.5l-22.5 16.5c-7 5 -14.5 7.5 -22.5 7.5
c-12.667 0 -22.667 -3.83301 -30 -11.5s-15 -18.5 -23 -32.5l-70 32c5.33301 14 12 27.333 20 40s17.167 23.834 27.5 33.501s22.166 17.334 35.499 23.001s28 8.5 44 8.5c15.333 0 28.333 -2.5 39 -7.5s20 -10.667 28 -17s15.5 -12 22.5 -17s14.5 -7.5 22.5 -7.5
c13.333 0 23.5 3.83301 30.5 11.5s14.5 18.5 22.5 32.5l70 -32c-5.33301 -14 -12 -27.167 -20 -39.5s-17.333 -23.333 -28 -33s-22.5 -17.334 -35.5 -23.001s-27.5 -8.5 -43.5 -8.5z" />
    <glyph glyph-name="Odieresis" unicode="&#xd6;" horiz-adv-x="703" 
d="M653 346c0 -57.333 -7.16699 -108.331 -21.5 -152.998s-34.5 -82.334 -60.5 -113.001s-57.5 -53.834 -94.5 -69.501s-78.5 -23.5 -124.5 -23.5s-87.667 7.66699 -125 23s-69 38.166 -95 68.499s-46.167 67.833 -60.5 112.5s-21.5 96.334 -21.5 155.001
c0 57.333 7.16699 108.333 21.5 153s34.5 82.167 60.5 112.5s57.667 53.5 95 69.5s79 24 125 24s87.5 -7.66699 124.5 -23s68.5 -38.166 94.5 -68.499s46.167 -67.833 60.5 -112.5s21.5 -96.334 21.5 -155.001zM515 346.002c0 46.667 -3.66602 86.334 -10.999 119.001
s-18 59.334 -32 80.001s-31 35.5 -51 44.5s-43 13.5 -69 13.5s-49.167 -4.5 -69.5 -13.5s-37.5 -23.833 -51.5 -44.5s-24.667 -47.334 -32 -80.001s-11 -72.334 -11 -119.001c0 -47.333 3.83301 -87.166 11.5 -119.499s18.5 -58.833 32.5 -79.5s31.167 -35.5 51.5 -44.5
s43.166 -13.5 68.499 -13.5c26 0 49 4.5 69 13.5s37 23.833 51 44.5s24.667 47.167 32 79.5s11 72.166 11 119.499zM238.001 783.002c-20 0 -37 6.83301 -51 20.5s-21 30.5 -21 50.5s7 36.833 21 50.5s31 20.5 51 20.5c20.667 0 37.834 -6.83301 51.501 -20.5
s20.5 -30.5 20.5 -50.5s-6.83301 -36.833 -20.5 -50.5s-30.834 -20.5 -51.501 -20.5zM465.001 783.002c-20 0 -37 6.83301 -51 20.5s-21 30.5 -21 50.5s7 36.833 21 50.5s31 20.5 51 20.5s37.167 -6.83301 51.5 -20.5s21.5 -30.5 21.5 -50.5s-7.16699 -36.833 -21.5 -50.5
s-31.5 -20.5 -51.5 -20.5z" />
    <glyph glyph-name="multiply" unicode="&#xd7;" horiz-adv-x="519" 
d="M187 295l-115 116l73 73l115 -116l115 115l72 -72l-115 -114l115 -116l-72 -73l-116 116l-115 -115l-72 71z" />
    <glyph glyph-name="Oslash" unicode="&#xd8;" horiz-adv-x="703" 
d="M651 346c0 -57.333 -7.16797 -108.332 -21.501 -152.999s-34.5 -82.334 -60.5 -113.001s-57.5 -53.834 -94.5 -69.501s-78.5 -23.5 -124.5 -23.5c-9.33301 0 -18.166 0.333008 -26.499 1s-16.5 1.66699 -24.5 3l-37 -126l-105 28l40 131
c-46.667 26.667 -83 66.834 -109 120.501s-39 120.834 -39 201.501c0 57.333 7.16699 108.333 21.5 153s34.5 82.167 60.5 112.5s57.5 53.5 94.5 69.5s78.5 24 124.5 24c20.667 0 38.667 -1.33301 54 -4l38 124l105 -28l-41 -131c46 -27.333 81.667 -67.833 107 -121.5
s38 -119.834 38 -198.501zM186.999 346.001c0 -60.667 5.33301 -108.831 16 -144.498s26 -62.167 46 -79.5l139 478c-12 2 -24.667 3 -38 3c-26 0 -49 -4.5 -69 -13.5s-37 -23.833 -51 -44.5s-24.667 -47.334 -32 -80.001s-11 -72.334 -11 -119.001zM512.999 346.004
c0 59.333 -5.00098 106.501 -15.001 141.501s-24.333 61.167 -43 78.5l-140 -474c10.667 -2 22.334 -3 35.001 -3c26 0 49 4.5 69 13.5s37 23.833 51 44.5s24.667 47.167 32 79.5s11 72.166 11 119.499z" />
    <glyph glyph-name="Ugrave" unicode="&#xd9;" horiz-adv-x="672" 
d="M592 229c0 -35.333 -5.33203 -67.667 -15.999 -97s-26.834 -54.833 -48.501 -76.5s-48.5 -38.5 -80.5 -50.5s-69 -18 -111 -18c-43.333 0 -81 5.83301 -113 17.5s-58.5 28.167 -79.5 49.5s-36.833 46.833 -47.5 76.5s-16 62.5 -16 98.5v463h132v-456
c0 -50 9.83301 -86.667 29.5 -110s51.167 -35 94.5 -35s74.833 11.667 94.5 35s29.5 60 29.5 110v456h132v-463zM424.001 751.999l-226 95l58 95l204 -126z" />
    <glyph glyph-name="Uacute" unicode="&#xda;" horiz-adv-x="672" 
d="M592 229c0 -35.333 -5.33203 -67.667 -15.999 -97s-26.834 -54.833 -48.501 -76.5s-48.5 -38.5 -80.5 -50.5s-69 -18 -111 -18c-43.333 0 -81 5.83301 -113 17.5s-58.5 28.167 -79.5 49.5s-36.833 46.833 -47.5 76.5s-16 62.5 -16 98.5v463h132v-456
c0 -50 9.83301 -86.667 29.5 -110s51.167 -35 94.5 -35s74.833 11.667 94.5 35s29.5 60 29.5 110v456h132v-463zM211.001 816.999l205 125l57 -94l-225 -94z" />
    <glyph glyph-name="Ucircumflex" unicode="&#xdb;" horiz-adv-x="672" 
d="M592 229c0 -35.333 -5.33203 -67.667 -15.999 -97s-26.834 -54.833 -48.501 -76.5s-48.5 -38.5 -80.5 -50.5s-69 -18 -111 -18c-43.333 0 -81 5.83301 -113 17.5s-58.5 28.167 -79.5 49.5s-36.833 46.833 -47.5 76.5s-16 62.5 -16 98.5v463h132v-456
c0 -50 9.83301 -86.667 29.5 -110s51.167 -35 94.5 -35s74.833 11.667 94.5 35s29.5 60 29.5 110v456h132v-463zM201.001 756.999l-48 55l144 121h79l143 -121l-48 -55l-135 83z" />
    <glyph glyph-name="Udieresis" unicode="&#xdc;" horiz-adv-x="672" 
d="M592 229c0 -35.333 -5.33203 -67.667 -15.999 -97s-26.834 -54.833 -48.501 -76.5s-48.5 -38.5 -80.5 -50.5s-69 -18 -111 -18c-43.333 0 -81 5.83301 -113 17.5s-58.5 28.167 -79.5 49.5s-36.833 46.833 -47.5 76.5s-16 62.5 -16 98.5v463h132v-456
c0 -50 9.83301 -86.667 29.5 -110s51.167 -35 94.5 -35s74.833 11.667 94.5 35s29.5 60 29.5 110v456h132v-463zM222.001 782.999c-20 0 -37 6.83301 -51 20.5s-21 30.5 -21 50.5s7 36.833 21 50.5s31 20.5 51 20.5c20.667 0 37.834 -6.83301 51.501 -20.5
s20.5 -30.5 20.5 -50.5s-6.83301 -36.833 -20.5 -50.5s-30.834 -20.5 -51.501 -20.5zM449.001 782.999c-20 0 -37 6.83301 -51 20.5s-21 30.5 -21 50.5s7 36.833 21 50.5s31 20.5 51 20.5s37.167 -6.83301 51.5 -20.5s21.5 -30.5 21.5 -50.5s-7.16699 -36.833 -21.5 -50.5
s-31.5 -20.5 -51.5 -20.5z" />
    <glyph glyph-name="Yacute" unicode="&#xdd;" horiz-adv-x="586" 
d="M359 260v-260h-132v259l-222 433h142l147 -322h4l147 322h136zM168 817l205 125l57 -94l-225 -94z" />
    <glyph glyph-name="Thorn" unicode="&#xde;" horiz-adv-x="597" 
d="M436 353c0 44 -11.333 76.167 -34 96.5s-55 30.5 -97 30.5h-88v-261h91c40 0 71.333 10 94 30s34 54.667 34 104zM574 354c0 -40.667 -6.49902 -75.667 -19.499 -105s-31.333 -53.5 -55 -72.5s-51.834 -33 -84.501 -42s-69 -13.5 -109 -13.5h-89v-121h-132v692h132v-115
h77c86.667 0 155 -18.167 205 -54.5s75 -92.5 75 -168.5z" />
    <glyph glyph-name="germandbls" unicode="&#xdf;" horiz-adv-x="608" 
d="M80 530c0 72.667 19.332 128.331 57.999 166.998s93.667 58 165 58c30.667 0 57.834 -3.83301 81.501 -11.5s43.667 -18.334 60 -32.001s28.833 -29.834 37.5 -48.501s13 -39 13 -61c0 -23.333 -5.33301 -42.5 -16 -57.5s-22.5 -28.5 -35.5 -40.5
s-24.833 -23.5 -35.5 -34.5s-16 -23.833 -16 -38.5c0 -14 4.66699 -26.167 14 -36.5s21.166 -20.5 35.499 -30.5l46.5 -31.5c16.667 -11 32.167 -23.833 46.5 -38.5s26.166 -32.167 35.499 -52.5s14 -44.833 14 -73.5c0 -30 -5.16699 -56.167 -15.5 -78.5
s-24.5 -41.166 -42.5 -56.499s-38.833 -26.833 -62.5 -34.5s-48.834 -11.5 -75.501 -11.5s-51.167 2.83301 -73.5 8.5s-42.166 13.834 -59.499 24.501l45 86c11.333 -6 23.333 -10.667 36 -14s24 -5 34 -5c25.333 0 45.5 6.33301 60.5 19s22.5 32 22.5 58
c0 19.333 -4.5 35.833 -13.5 49.5s-20.167 25.834 -33.5 36.501s-27.833 21 -43.5 31s-30.167 21 -43.5 33s-24.5 26 -33.5 42s-13.5 35.333 -13.5 58c0 23.333 5.33301 42.166 16 56.499s22.334 27.333 35.001 39s24.334 23.334 35.001 35.001s16 26.834 16 45.501
c0 8 -1.16699 16 -3.5 24s-6.33301 15.333 -12 22s-13.167 12.167 -22.5 16.5s-21.333 6.5 -36 6.5c-30 0 -52.833 -9.5 -68.5 -28.5s-23.5 -50.167 -23.5 -93.5v-537h-128v530z" />
    <glyph glyph-name="agrave" unicode="&#xe0;" horiz-adv-x="559" 
d="M478 137c0 -19.333 2.66602 -33.333 7.99902 -42s14 -15.334 26 -20.001l-30 -87c-28 3.33301 -51.333 10.166 -70 20.499s-33 26.166 -43 47.499c-19.333 -23.333 -42.5 -40.666 -69.5 -51.999s-56.5 -17 -88.5 -17c-54 0 -96.5 15 -127.5 45s-46.5 70 -46.5 120
c0 56.667 21.333 100.167 64 130.5s105.667 45.5 189 45.5h63v27c0 34.667 -8.5 58.334 -25.5 71.001s-43.833 19 -80.5 19c-16.667 0 -36.667 -2.16699 -60 -6.5s-48.333 -11.166 -75 -20.499l-31 90c33.333 12.667 65.833 21.667 97.5 27s60.834 8 87.501 8
c75.333 0 129.5 -15.667 162.5 -47s49.5 -75.333 49.5 -132v-227zM248.999 78c21.333 0 40.668 5.5 58.001 16.5s32.666 26.5 45.999 46.5v108h-47c-50 0 -84.333 -8.16699 -103 -24.5s-28 -38.5 -28 -66.5c0 -26.667 5.83301 -46.667 17.5 -60s30.5 -20 56.5 -20z
M362.001 616l-222 101l58 95l202 -132z" />
    <glyph glyph-name="aacute" unicode="&#xe1;" horiz-adv-x="559" 
d="M478 137c0 -19.333 2.66602 -33.333 7.99902 -42s14 -15.334 26 -20.001l-30 -87c-28 3.33301 -51.333 10.166 -70 20.499s-33 26.166 -43 47.499c-19.333 -23.333 -42.5 -40.666 -69.5 -51.999s-56.5 -17 -88.5 -17c-54 0 -96.5 15 -127.5 45s-46.5 70 -46.5 120
c0 56.667 21.333 100.167 64 130.5s105.667 45.5 189 45.5h63v27c0 34.667 -8.5 58.334 -25.5 71.001s-43.833 19 -80.5 19c-16.667 0 -36.667 -2.16699 -60 -6.5s-48.333 -11.166 -75 -20.499l-31 90c33.333 12.667 65.833 21.667 97.5 27s60.834 8 87.501 8
c75.333 0 129.5 -15.667 162.5 -47s49.5 -75.333 49.5 -132v-227zM248.999 78c21.333 0 40.668 5.5 58.001 16.5s32.666 26.5 45.999 46.5v108h-47c-50 0 -84.333 -8.16699 -103 -24.5s-28 -38.5 -28 -66.5c0 -26.667 5.83301 -46.667 17.5 -60s30.5 -20 56.5 -20z
M140.001 681l203 132l57 -95l-222 -101z" />
    <glyph glyph-name="acircumflex" unicode="&#xe2;" horiz-adv-x="559" 
d="M478 137c0 -19.333 2.66602 -33.333 7.99902 -42s14 -15.334 26 -20.001l-30 -87c-28 3.33301 -51.333 10.166 -70 20.499s-33 26.166 -43 47.499c-19.333 -23.333 -42.5 -40.666 -69.5 -51.999s-56.5 -17 -88.5 -17c-54 0 -96.5 15 -127.5 45s-46.5 70 -46.5 120
c0 56.667 21.333 100.167 64 130.5s105.667 45.5 189 45.5h63v27c0 34.667 -8.5 58.334 -25.5 71.001s-43.833 19 -80.5 19c-16.667 0 -36.667 -2.16699 -60 -6.5s-48.333 -11.166 -75 -20.499l-31 90c33.333 12.667 65.833 21.667 97.5 27s60.834 8 87.501 8
c75.333 0 129.5 -15.667 162.5 -47s49.5 -75.333 49.5 -132v-227zM248.999 78c21.333 0 40.668 5.5 58.001 16.5s32.666 26.5 45.999 46.5v108h-47c-50 0 -84.333 -8.16699 -103 -24.5s-28 -38.5 -28 -66.5c0 -26.667 5.83301 -46.667 17.5 -60s30.5 -20 56.5 -20z
M139.001 620l-51 57l143 131h79l143 -131l-51 -57l-131 95z" />
    <glyph glyph-name="atilde" unicode="&#xe3;" horiz-adv-x="559" 
d="M478 137c0 -19.333 2.66602 -33.333 7.99902 -42s14 -15.334 26 -20.001l-30 -87c-28 3.33301 -51.333 10.166 -70 20.499s-33 26.166 -43 47.499c-19.333 -23.333 -42.5 -40.666 -69.5 -51.999s-56.5 -17 -88.5 -17c-54 0 -96.5 15 -127.5 45s-46.5 70 -46.5 120
c0 56.667 21.333 100.167 64 130.5s105.667 45.5 189 45.5h63v27c0 34.667 -8.5 58.334 -25.5 71.001s-43.833 19 -80.5 19c-16.667 0 -36.667 -2.16699 -60 -6.5s-48.333 -11.166 -75 -20.499l-31 90c33.333 12.667 65.833 21.667 97.5 27s60.834 8 87.501 8
c75.333 0 129.5 -15.667 162.5 -47s49.5 -75.333 49.5 -132v-227zM248.999 78c21.333 0 40.668 5.5 58.001 16.5s32.666 26.5 45.999 46.5v108h-47c-50 0 -84.333 -8.16699 -103 -24.5s-28 -38.5 -28 -66.5c0 -26.667 5.83301 -46.667 17.5 -60s30.5 -20 56.5 -20z
M324.001 643c-15.333 0 -28.333 2.49902 -39 7.49902s-20 10.5 -28 16.5l-22.5 16.5c-7 5 -14.5 7.5 -22.5 7.5c-12.667 0 -22.667 -3.83301 -30 -11.5s-15 -18.5 -23 -32.5l-70 32c11.333 28 27.333 52.5 48 73.5s47 31.5 79 31.5c15.333 0 28.333 -2.5 39 -7.5
s20.167 -10.667 28.5 -17l23 -17c7 -5 14.5 -7.5 22.5 -7.5c12.667 0 22.5 3.83301 29.5 11.5s14.5 18.834 22.5 33.501l70 -32c-11.333 -28 -27.333 -52.5 -48 -73.5s-47 -31.5 -79 -31.5z" />
    <glyph glyph-name="adieresis" unicode="&#xe4;" horiz-adv-x="559" 
d="M478 137c0 -19.333 2.66602 -33.333 7.99902 -42s14 -15.334 26 -20.001l-30 -87c-28 3.33301 -51.333 10.166 -70 20.499s-33 26.166 -43 47.499c-19.333 -23.333 -42.5 -40.666 -69.5 -51.999s-56.5 -17 -88.5 -17c-54 0 -96.5 15 -127.5 45s-46.5 70 -46.5 120
c0 56.667 21.333 100.167 64 130.5s105.667 45.5 189 45.5h63v27c0 34.667 -8.5 58.334 -25.5 71.001s-43.833 19 -80.5 19c-16.667 0 -36.667 -2.16699 -60 -6.5s-48.333 -11.166 -75 -20.499l-31 90c33.333 12.667 65.833 21.667 97.5 27s60.834 8 87.501 8
c75.333 0 129.5 -15.667 162.5 -47s49.5 -75.333 49.5 -132v-227zM248.999 78c21.333 0 40.668 5.5 58.001 16.5s32.666 26.5 45.999 46.5v108h-47c-50 0 -84.333 -8.16699 -103 -24.5s-28 -38.5 -28 -66.5c0 -26.667 5.83301 -46.667 17.5 -60s30.5 -20 56.5 -20z
M160.001 653c-20 0 -37 6.83301 -51 20.5s-21 30.5 -21 50.5s7 36.833 21 50.5s31 20.5 51 20.5c20.667 0 38 -6.83301 52 -20.5s21 -30.5 21 -50.5s-7 -36.833 -21 -50.5s-31.333 -20.5 -52 -20.5zM387.001 653c-20 0 -37 6.83301 -51 20.5s-21 30.5 -21 50.5
s7 36.833 21 50.5s31 20.5 51 20.5s37.167 -6.83301 51.5 -20.5s21.5 -30.5 21.5 -50.5s-7.16699 -36.833 -21.5 -50.5s-31.5 -20.5 -51.5 -20.5z" />
    <glyph glyph-name="aring" unicode="&#xe5;" horiz-adv-x="559" 
d="M478 137c0 -19.333 2.66602 -33.333 7.99902 -42s14 -15.334 26 -20.001l-30 -87c-28 3.33301 -51.333 10.166 -70 20.499s-33 26.166 -43 47.499c-19.333 -23.333 -42.5 -40.666 -69.5 -51.999s-56.5 -17 -88.5 -17c-54 0 -96.5 15 -127.5 45s-46.5 70 -46.5 120
c0 56.667 21.333 100.167 64 130.5s105.667 45.5 189 45.5h63v27c0 34.667 -8.5 58.334 -25.5 71.001s-43.833 19 -80.5 19c-16.667 0 -36.667 -2.16699 -60 -6.5s-48.333 -11.166 -75 -20.499l-31 90c33.333 12.667 65.833 21.667 97.5 27s60.834 8 87.501 8
c75.333 0 129.5 -15.667 162.5 -47s49.5 -75.333 49.5 -132v-227zM248.999 78c21.333 0 40.668 5.5 58.001 16.5s32.666 26.5 45.999 46.5v108h-47c-50 0 -84.333 -8.16699 -103 -24.5s-28 -38.5 -28 -66.5c0 -26.667 5.83301 -46.667 17.5 -60s30.5 -20 56.5 -20z
M220.001 730c0 -17.333 4.5 -30.666 13.5 -39.999s21.5 -14 37.5 -14c15.333 0 27.666 4.66699 36.999 14s14 22.666 14 39.999s-4.66699 30.833 -14 40.5s-21.666 14.5 -36.999 14.5c-16 0 -28.5 -4.83301 -37.5 -14.5s-13.5 -23.167 -13.5 -40.5zM401.001 730
c0 -16.667 -3.16699 -32.167 -9.5 -46.5s-15.333 -27 -27 -38s-25.5 -19.667 -41.5 -26s-33.333 -9.5 -52 -9.5c-19.333 0 -37 3.16699 -53 9.5s-29.833 15 -41.5 26s-20.667 23.667 -27 38s-9.5 29.833 -9.5 46.5s3.16699 32.334 9.5 47.001s15.333 27.5 27 38.5
s25.5 19.667 41.5 26s33.667 9.5 53 9.5c18.667 0 36 -3.16699 52 -9.5s29.833 -15 41.5 -26s20.667 -23.833 27 -38.5s9.5 -30.334 9.5 -47.001z" />
    <glyph glyph-name="ae" unicode="&#xe6;" horiz-adv-x="848" 
d="M472 225c5.33301 -50 19.0049 -85.668 41.0049 -107.001s51 -32 87 -32c22 0 42.667 3.16699 62 9.5s40.666 18.166 63.999 35.499l55 -80c-25.333 -19.333 -53.666 -34.833 -84.999 -46.5s-65.333 -17.5 -102 -17.5c-45.333 0 -83.333 7.16699 -114 21.5
s-55.667 34.5 -75 60.5c-44.667 -54.667 -106.667 -82 -186 -82c-58.667 0 -103.667 15 -135 45s-47 70 -47 120c0 56.667 21.167 100.167 63.5 130.5s105.166 45.5 188.499 45.5h64v27c0 34.667 -8.5 58.334 -25.5 71.001s-43.833 19 -80.5 19
c-16.667 0 -36.834 -2.16699 -60.501 -6.5s-48.834 -11.166 -75.501 -20.499l-30 90c33.333 12.667 65.666 21.667 96.999 27s60.666 8 87.999 8c42 0 75.5 -6.5 100.5 -19.5s44.5 -30.5 58.5 -52.5c17.333 22 38.333 39.5 63 52.5s54 19.5 88 19.5
c72.667 0 128.167 -23.167 166.5 -69.5s57.5 -111.833 57.5 -196.5c0 -9.33301 -0.166992 -18.5 -0.5 -27.5s-0.833008 -17.167 -1.5 -24.5h-326zM249.005 77.999c23.333 0 44.999 6.83398 64.999 20.501s37 32.5 51 56.5c-3.33301 14.667 -6.16602 29.667 -8.49902 45
s-3.5 31.666 -3.5 48.999h-48c-50 0 -84.167 -8.16699 -102.5 -24.5s-27.5 -38.5 -27.5 -66.5c0 -26.667 5.83301 -46.667 17.5 -60s30.5 -20 56.5 -20zM575.004 449c-30.667 0 -54.667 -11 -72 -33s-28 -57.333 -32 -106h204c-1.33301 45.333 -9.83301 79.833 -25.5 103.5
s-40.5 35.5 -74.5 35.5z" />
    <glyph glyph-name="ccedilla" unicode="&#xe7;" horiz-adv-x="483" 
d="M317 -141c0 16 -7.49902 26.502 -22.499 31.502s-37.5 7.5 -67.5 7.5l9 94c-64 11.333 -111.833 41.166 -143.5 89.499s-47.5 108.5 -47.5 180.5c0 40 5.33301 77.167 16 111.5s26.5 64 47.5 89s47 44.667 78 59s67.167 21.5 108.5 21.5c30 0 59.667 -4.66699 89 -14
s56.666 -24.666 81.999 -45.999l-59 -80c-20 15.333 -38.333 25.666 -55 30.999s-33.667 8 -51 8c-36.667 0 -65.834 -14.333 -87.501 -43s-32.5 -74.334 -32.5 -137.001c0 -31.333 2.83301 -58 8.5 -80s13.5 -39.833 23.5 -53.5s22.333 -23.5 37 -29.5s31 -9 49 -9
c17.333 0 34 3 50 9s34.667 16.667 56 32l59 -85c-23.333 -18 -47.666 -31.667 -72.999 -41s-50.666 -15 -75.999 -17v-38c34.667 -3.33301 59.834 -13.833 75.501 -31.5s23.5 -37.5 23.5 -59.5c0 -34.667 -12.833 -61.667 -38.5 -81s-58.834 -29 -99.501 -29
c-22.667 0 -44.334 2.83301 -65.001 8.5s-37.667 12.5 -51 20.5l34 63c10 -5.33301 20.833 -9.66602 32.5 -12.999s23.167 -5 34.5 -5c17.333 0 31 2.66699 41 8s15 14.666 15 27.999z" />
    <glyph glyph-name="egrave" unicode="&#xe8;" horiz-adv-x="547" 
d="M179 225c5.33301 -50 18.668 -85.666 40.001 -106.999s50 -32 86 -32c21.333 0 41.666 3.16699 60.999 9.5s40.666 18.166 63.999 35.499l55 -80c-25.333 -19.333 -53.666 -34.833 -84.999 -46.5s-65 -17.5 -101 -17.5c-43.333 0 -80.833 6.66699 -112.5 20
s-58 32.333 -79 57s-36.667 54 -47 88s-15.5 71.667 -15.5 113c0 39.333 5.16699 75.833 15.5 109.5s25.5 63 45.5 88s44.667 44.667 74 59s63 21.5 101 21.5c72 0 127.667 -23.167 167 -69.5s59 -111.833 59 -196.5c0 -9.33301 -0.166992 -18.5 -0.5 -27.5
s-0.833008 -17.167 -1.5 -24.5h-326zM282.002 449.001c-30 0 -53.833 -11 -71.5 -33s-28.167 -57.333 -31.5 -106h203c-1.33301 45.333 -9.83301 79.833 -25.5 103.5s-40.5 35.5 -74.5 35.5zM371.002 616.001l-222 101l58 95l202 -132z" />
    <glyph glyph-name="eacute" unicode="&#xe9;" horiz-adv-x="547" 
d="M179 225c5.33301 -50 18.668 -85.666 40.001 -106.999s50 -32 86 -32c21.333 0 41.666 3.16699 60.999 9.5s40.666 18.166 63.999 35.499l55 -80c-25.333 -19.333 -53.666 -34.833 -84.999 -46.5s-65 -17.5 -101 -17.5c-43.333 0 -80.833 6.66699 -112.5 20
s-58 32.333 -79 57s-36.667 54 -47 88s-15.5 71.667 -15.5 113c0 39.333 5.16699 75.833 15.5 109.5s25.5 63 45.5 88s44.667 44.667 74 59s63 21.5 101 21.5c72 0 127.667 -23.167 167 -69.5s59 -111.833 59 -196.5c0 -9.33301 -0.166992 -18.5 -0.5 -27.5
s-0.833008 -17.167 -1.5 -24.5h-326zM282.002 449.001c-30 0 -53.833 -11 -71.5 -33s-28.167 -57.333 -31.5 -106h203c-1.33301 45.333 -9.83301 79.833 -25.5 103.5s-40.5 35.5 -74.5 35.5zM148.002 681.001l203 132l57 -95l-222 -101z" />
    <glyph glyph-name="ecircumflex" unicode="&#xea;" horiz-adv-x="547" 
d="M179 225c5.33301 -50 18.668 -85.666 40.001 -106.999s50 -32 86 -32c21.333 0 41.666 3.16699 60.999 9.5s40.666 18.166 63.999 35.499l55 -80c-25.333 -19.333 -53.666 -34.833 -84.999 -46.5s-65 -17.5 -101 -17.5c-43.333 0 -80.833 6.66699 -112.5 20
s-58 32.333 -79 57s-36.667 54 -47 88s-15.5 71.667 -15.5 113c0 39.333 5.16699 75.833 15.5 109.5s25.5 63 45.5 88s44.667 44.667 74 59s63 21.5 101 21.5c72 0 127.667 -23.167 167 -69.5s59 -111.833 59 -196.5c0 -9.33301 -0.166992 -18.5 -0.5 -27.5
s-0.833008 -17.167 -1.5 -24.5h-326zM282.002 449.001c-30 0 -53.833 -11 -71.5 -33s-28.167 -57.333 -31.5 -106h203c-1.33301 45.333 -9.83301 79.833 -25.5 103.5s-40.5 35.5 -74.5 35.5zM147.002 620.001l-51 57l143 131h79l143 -131l-51 -57l-131 95z" />
    <glyph glyph-name="edieresis" unicode="&#xeb;" horiz-adv-x="547" 
d="M179 225c5.33301 -50 18.668 -85.666 40.001 -106.999s50 -32 86 -32c21.333 0 41.666 3.16699 60.999 9.5s40.666 18.166 63.999 35.499l55 -80c-25.333 -19.333 -53.666 -34.833 -84.999 -46.5s-65 -17.5 -101 -17.5c-43.333 0 -80.833 6.66699 -112.5 20
s-58 32.333 -79 57s-36.667 54 -47 88s-15.5 71.667 -15.5 113c0 39.333 5.16699 75.833 15.5 109.5s25.5 63 45.5 88s44.667 44.667 74 59s63 21.5 101 21.5c72 0 127.667 -23.167 167 -69.5s59 -111.833 59 -196.5c0 -9.33301 -0.166992 -18.5 -0.5 -27.5
s-0.833008 -17.167 -1.5 -24.5h-326zM282.002 449.001c-30 0 -53.833 -11 -71.5 -33s-28.167 -57.333 -31.5 -106h203c-1.33301 45.333 -9.83301 79.833 -25.5 103.5s-40.5 35.5 -74.5 35.5zM164.002 653.001c-20 0 -37 6.83301 -51 20.5s-21 30.5 -21 50.5
s7 36.833 21 50.5s31 20.5 51 20.5c20.667 0 38 -6.83301 52 -20.5s21 -30.5 21 -50.5s-7 -36.833 -21 -50.5s-31.333 -20.5 -52 -20.5zM391.002 653.001c-20 0 -37 6.83301 -51 20.5s-21 30.5 -21 50.5s7 36.833 21 50.5s31 20.5 51 20.5s37.167 -6.83301 51.5 -20.5
s21.5 -30.5 21.5 -50.5s-7.16699 -36.833 -21.5 -50.5s-31.5 -20.5 -51.5 -20.5z" />
    <glyph glyph-name="igrave" unicode="&#xec;" horiz-adv-x="277" 
d="M75 0v530h128v-530h-128zM231 616l-222 101l58 95l202 -132z" />
    <glyph glyph-name="iacute" unicode="&#xed;" horiz-adv-x="277" 
d="M75 0v530h128v-530h-128zM8 681l203 132l57 -95l-222 -101z" />
    <glyph glyph-name="icircumflex" unicode="&#xee;" horiz-adv-x="277" 
d="M7 620l-51 57l143 131h79l143 -131l-51 -57l-131 95zM75 0v530h128v-530h-128z" />
    <glyph glyph-name="idieresis" unicode="&#xef;" horiz-adv-x="277" 
d="M25 653c-20 0 -37 6.83301 -51 20.5s-21 30.5 -21 50.5s7 36.833 21 50.5s31 20.5 51 20.5c20.667 0 38 -6.83301 52 -20.5s21 -30.5 21 -50.5s-7 -36.833 -21 -50.5s-31.333 -20.5 -52 -20.5zM252 653c-20 0 -37 6.83301 -51 20.5s-21 30.5 -21 50.5s7 36.833 21 50.5
s31 20.5 51 20.5s37.167 -6.83301 51.5 -20.5s21.5 -30.5 21.5 -50.5s-7.16699 -36.833 -21.5 -50.5s-31.5 -20.5 -51.5 -20.5zM75 0v530h128v-530h-128z" />
    <glyph glyph-name="eth" unicode="&#xf0;" horiz-adv-x="574" 
d="M123 567l69 70.999c-28 10.667 -59 19.667 -93 27l27 91c26 -5.33301 50.667 -11.333 74 -18s45.333 -14.334 66 -23.001l72 76l71 -63l-56 -58c62 -41.333 106.5 -95.333 133.5 -162s40.5 -146.334 40.5 -239.001c0 -41.333 -5.83301 -79.166 -17.5 -113.499
s-28.334 -64 -50.001 -89s-47.5 -44.5 -77.5 -58.5s-63.333 -21 -100 -21c-33.333 0 -64.333 5.5 -93 16.5s-53.667 27 -75 48s-38.166 47 -50.499 78s-18.5 66.5 -18.5 106.5c0 38 5.5 72.333 16.5 103s25.833 56.834 44.5 78.501s40.334 38.334 65.001 50.001
s50.667 17.5 78 17.5c28.667 0 53.5 -4.33301 74.5 -13s38.5 -19.667 52.5 -33c-8.66699 32 -20.834 60.833 -36.501 86.5s-36.167 48.167 -61.5 67.5l-67 -68zM397 254.999c0 27.333 -0.998047 53.667 -2.99805 79c-14 18 -30.5 31.833 -49.5 41.5s-41.167 14.5 -66.5 14.5
c-14 0 -27.167 -2.83301 -39.5 -8.5s-23.333 -14.5 -33 -26.5s-17.334 -27.5 -23.001 -46.5s-8.5 -41.833 -8.5 -68.5c0 -55.333 10.167 -95.333 30.5 -120s46.166 -37 77.499 -37c34 0 61.667 13.667 83 41s32 71 32 131z" />
    <glyph glyph-name="ntilde" unicode="&#xf1;" horiz-adv-x="585" 
d="M80 0v530.001h110l11 -64c22.667 25.333 48.5 44.5 77.5 57.5s58.833 19.5 89.5 19.5c49.333 0 85.166 -13.333 107.499 -40s33.5 -65 33.5 -115v-388h-128v373c0 28 -4.66699 47.333 -14 58s-25.666 16 -48.999 16c-22 0 -42.333 -6.83301 -61 -20.5
s-35 -29.834 -49 -48.501v-378h-128zM359 643.001c-15.333 0 -28.333 2.49902 -39 7.49902s-20 10.5 -28 16.5l-22.5 16.5c-7 5 -14.5 7.5 -22.5 7.5c-12.667 0 -22.667 -3.83301 -30 -11.5s-15 -18.5 -23 -32.5l-70 32c11.333 28 27.333 52.5 48 73.5s47 31.5 79 31.5
c15.333 0 28.333 -2.5 39 -7.5s20.167 -10.667 28.5 -17l23 -17c7 -5 14.5 -7.5 22.5 -7.5c12.667 0 22.5 3.83301 29.5 11.5s14.5 18.834 22.5 33.501l70 -32c-11.333 -28 -27.333 -52.5 -48 -73.5s-47 -31.5 -79 -31.5z" />
    <glyph glyph-name="ograve" unicode="&#xf2;" horiz-adv-x="587" 
d="M407 265c0 64 -9.66699 110 -29 138s-47.333 42 -84 42c-37.333 0 -65.666 -14 -84.999 -42s-29 -74 -29 -138s9.66699 -110 29 -138s47.666 -42 84.999 -42c36.667 0 64.667 14 84 42s29 74 29 138zM45 265c0 40 5.5 77 16.5 111s27.167 63.333 48.5 88s47.333 44 78 58
s66 21 106 21s75.333 -6.83301 106 -20.5s56.5 -32.667 77.5 -57s37 -53.666 48 -87.999s16.5 -71.833 16.5 -112.5c0 -41.333 -5.5 -79 -16.5 -113s-27 -63.333 -48 -88s-46.833 -43.667 -77.5 -57s-66 -20 -106 -20s-75.5 6.5 -106.5 19.5s-57 31.667 -78 56
s-37 53.666 -48 87.999s-16.5 72.5 -16.5 114.5zM386 616l-222 101l58 95l202 -132z" />
    <glyph glyph-name="oacute" unicode="&#xf3;" horiz-adv-x="587" 
d="M407 265c0 64 -9.66699 110 -29 138s-47.333 42 -84 42c-37.333 0 -65.666 -14 -84.999 -42s-29 -74 -29 -138s9.66699 -110 29 -138s47.666 -42 84.999 -42c36.667 0 64.667 14 84 42s29 74 29 138zM45 265c0 40 5.5 77 16.5 111s27.167 63.333 48.5 88s47.333 44 78 58
s66 21 106 21s75.333 -6.83301 106 -20.5s56.5 -32.667 77.5 -57s37 -53.666 48 -87.999s16.5 -71.833 16.5 -112.5c0 -41.333 -5.5 -79 -16.5 -113s-27 -63.333 -48 -88s-46.833 -43.667 -77.5 -57s-66 -20 -106 -20s-75.5 6.5 -106.5 19.5s-57 31.667 -78 56
s-37 53.666 -48 87.999s-16.5 72.5 -16.5 114.5zM163 681l203 132l57 -95l-222 -101z" />
    <glyph glyph-name="ocircumflex" unicode="&#xf4;" horiz-adv-x="587" 
d="M407 265c0 64 -9.66699 110 -29 138s-47.333 42 -84 42c-37.333 0 -65.666 -14 -84.999 -42s-29 -74 -29 -138s9.66699 -110 29 -138s47.666 -42 84.999 -42c36.667 0 64.667 14 84 42s29 74 29 138zM45 265c0 40 5.5 77 16.5 111s27.167 63.333 48.5 88s47.333 44 78 58
s66 21 106 21s75.333 -6.83301 106 -20.5s56.5 -32.667 77.5 -57s37 -53.666 48 -87.999s16.5 -71.833 16.5 -112.5c0 -41.333 -5.5 -79 -16.5 -113s-27 -63.333 -48 -88s-46.833 -43.667 -77.5 -57s-66 -20 -106 -20s-75.5 6.5 -106.5 19.5s-57 31.667 -78 56
s-37 53.666 -48 87.999s-16.5 72.5 -16.5 114.5zM162 620l-51 57l143 131h79l143 -131l-51 -57l-131 95z" />
    <glyph glyph-name="otilde" unicode="&#xf5;" horiz-adv-x="587" 
d="M407 265c0 64 -9.66699 110 -29 138s-47.333 42 -84 42c-37.333 0 -65.666 -14 -84.999 -42s-29 -74 -29 -138s9.66699 -110 29 -138s47.666 -42 84.999 -42c36.667 0 64.667 14 84 42s29 74 29 138zM45 265c0 40 5.5 77 16.5 111s27.167 63.333 48.5 88s47.333 44 78 58
s66 21 106 21s75.333 -6.83301 106 -20.5s56.5 -32.667 77.5 -57s37 -53.666 48 -87.999s16.5 -71.833 16.5 -112.5c0 -41.333 -5.5 -79 -16.5 -113s-27 -63.333 -48 -88s-46.833 -43.667 -77.5 -57s-66 -20 -106 -20s-75.5 6.5 -106.5 19.5s-57 31.667 -78 56
s-37 53.666 -48 87.999s-16.5 72.5 -16.5 114.5zM347 643c-15.333 0 -28.333 2.49902 -39 7.49902s-20 10.5 -28 16.5l-22.5 16.5c-7 5 -14.5 7.5 -22.5 7.5c-12.667 0 -22.667 -3.83301 -30 -11.5s-15 -18.5 -23 -32.5l-70 32c11.333 28 27.333 52.5 48 73.5
s47 31.5 79 31.5c15.333 0 28.333 -2.5 39 -7.5s20.167 -10.667 28.5 -17l23 -17c7 -5 14.5 -7.5 22.5 -7.5c12.667 0 22.5 3.83301 29.5 11.5s14.5 18.834 22.5 33.501l70 -32c-11.333 -28 -27.333 -52.5 -48 -73.5s-47 -31.5 -79 -31.5z" />
    <glyph glyph-name="odieresis" unicode="&#xf6;" horiz-adv-x="587" 
d="M407 265c0 64 -9.66699 110 -29 138s-47.333 42 -84 42c-37.333 0 -65.666 -14 -84.999 -42s-29 -74 -29 -138s9.66699 -110 29 -138s47.666 -42 84.999 -42c36.667 0 64.667 14 84 42s29 74 29 138zM45 265c0 40 5.5 77 16.5 111s27.167 63.333 48.5 88s47.333 44 78 58
s66 21 106 21s75.333 -6.83301 106 -20.5s56.5 -32.667 77.5 -57s37 -53.666 48 -87.999s16.5 -71.833 16.5 -112.5c0 -41.333 -5.5 -79 -16.5 -113s-27 -63.333 -48 -88s-46.833 -43.667 -77.5 -57s-66 -20 -106 -20s-75.5 6.5 -106.5 19.5s-57 31.667 -78 56
s-37 53.666 -48 87.999s-16.5 72.5 -16.5 114.5zM180 653c-20 0 -37 6.83301 -51 20.5s-21 30.5 -21 50.5s7 36.833 21 50.5s31 20.5 51 20.5c20.667 0 38 -6.83301 52 -20.5s21 -30.5 21 -50.5s-7 -36.833 -21 -50.5s-31.333 -20.5 -52 -20.5zM407 653
c-20 0 -37 6.83301 -51 20.5s-21 30.5 -21 50.5s7 36.833 21 50.5s31 20.5 51 20.5s37.167 -6.83301 51.5 -20.5s21.5 -30.5 21.5 -50.5s-7.16699 -36.833 -21.5 -50.5s-31.5 -20.5 -51.5 -20.5z" />
    <glyph glyph-name="divide" unicode="&#xf7;" horiz-adv-x="519" 
d="M57 262v101h406v-101h-406zM178 110c0 22.667 7.83301 42 23.5 58s35.167 24 58.5 24c22.667 0 42 -8 58 -24s24 -35.333 24 -58s-8 -41.834 -24 -57.501s-35.333 -23.5 -58 -23.5c-23.333 0 -42.833 7.83301 -58.5 23.5s-23.5 34.834 -23.5 57.501zM178 516
c0 22 7.83301 41 23.5 57s35.167 24 58.5 24c22.667 0 42 -8 58 -24s24 -35 24 -57c0 -22.667 -8 -42 -24 -58s-35.333 -24 -58 -24c-23.333 0 -42.833 8 -58.5 24s-23.5 35.333 -23.5 58z" />
    <glyph glyph-name="oslash" unicode="&#xf8;" horiz-adv-x="587" 
d="M45 265c0 40 5.49902 76.999 16.499 110.999s27.167 63.333 48.5 88s47.333 44 78 58s66 21 106 21c12 0 24.667 -1 38 -3l39 123l98 -30l-41 -126c36.667 -23.333 64.834 -55.833 84.501 -97.5s29.5 -89.834 29.5 -144.501c0 -41.333 -5.5 -79 -16.5 -113
s-27 -63.333 -48 -88s-46.833 -43.667 -77.5 -57s-66 -20 -106 -20c-13.333 0 -26 1 -38 3l-39 -126l-99 29l42 128c-37.333 22.667 -65.833 54.834 -85.5 96.501s-29.5 90.834 -29.5 147.501zM178.999 264.999c0 -70.667 11.667 -119 35 -145l102 323
c-4 1.33301 -8 2 -12 2h-10c-37.333 0 -65.833 -14 -85.5 -42s-29.5 -74 -29.5 -138zM407.999 264.999c0 35.333 -2.83301 64.5 -8.5 87.5s-14.167 41.167 -25.5 54.5l-102 -320c3.33301 -1.33301 6.66602 -2 9.99902 -2h12c36.667 0 64.834 14 84.501 42s29.5 74 29.5 138z
" />
    <glyph glyph-name="ugrave" unicode="&#xf9;" horiz-adv-x="580" 
d="M205 530v-373c0 -27.333 4.5 -46.5 13.5 -57.5s24.833 -16.5 47.5 -16.5c21.333 0 41.166 5.83301 59.499 17.5s33.833 28.167 46.5 49.5v380h128v-530h-111l-9 64c-19.333 -25.333 -42.666 -44.5 -69.999 -57.5s-57 -19.5 -89 -19.5c-50 0 -86.5 13.833 -109.5 41.5
s-34.5 66.5 -34.5 116.5v385h128zM374 616l-222 101l58 95l202 -132z" />
    <glyph glyph-name="uacute" unicode="&#xfa;" horiz-adv-x="580" 
d="M205 530v-373c0 -27.333 4.5 -46.5 13.5 -57.5s24.833 -16.5 47.5 -16.5c21.333 0 41.166 5.83301 59.499 17.5s33.833 28.167 46.5 49.5v380h128v-530h-111l-9 64c-19.333 -25.333 -42.666 -44.5 -69.999 -57.5s-57 -19.5 -89 -19.5c-50 0 -86.5 13.833 -109.5 41.5
s-34.5 66.5 -34.5 116.5v385h128zM171 681l203 132l57 -95l-222 -101z" />
    <glyph glyph-name="ucircumflex" unicode="&#xfb;" horiz-adv-x="580" 
d="M205 530v-373c0 -27.333 4.5 -46.5 13.5 -57.5s24.833 -16.5 47.5 -16.5c21.333 0 41.166 5.83301 59.499 17.5s33.833 28.167 46.5 49.5v380h128v-530h-111l-9 64c-19.333 -25.333 -42.666 -44.5 -69.999 -57.5s-57 -19.5 -89 -19.5c-50 0 -86.5 13.833 -109.5 41.5
s-34.5 66.5 -34.5 116.5v385h128zM157 620l-51 57l143 131h79l143 -131l-51 -57l-131 95z" />
    <glyph glyph-name="udieresis" unicode="&#xfc;" horiz-adv-x="580" 
d="M205 530v-373c0 -27.333 4.5 -46.5 13.5 -57.5s24.833 -16.5 47.5 -16.5c21.333 0 41.166 5.83301 59.499 17.5s33.833 28.167 46.5 49.5v380h128v-530h-111l-9 64c-19.333 -25.333 -42.666 -44.5 -69.999 -57.5s-57 -19.5 -89 -19.5c-50 0 -86.5 13.833 -109.5 41.5
s-34.5 66.5 -34.5 116.5v385h128zM175 653c-20 0 -37 6.83301 -51 20.5s-21 30.5 -21 50.5s7 36.833 21 50.5s31 20.5 51 20.5c20.667 0 38 -6.83301 52 -20.5s21 -30.5 21 -50.5s-7 -36.833 -21 -50.5s-31.333 -20.5 -52 -20.5zM402 653c-20 0 -37 6.83301 -51 20.5
s-21 30.5 -21 50.5s7 36.833 21 50.5s31 20.5 51 20.5s37.167 -6.83301 51.5 -20.5s21.5 -30.5 21.5 -50.5s-7.16699 -36.833 -21.5 -50.5s-31.5 -20.5 -51.5 -20.5z" />
    <glyph glyph-name="yacute" unicode="&#xfd;" horiz-adv-x="521" 
d="M337 -4c-19.333 -60.667 -50 -110.001 -92 -148.001s-101.333 -60 -178 -66l-16 96c25.333 4 47 9.16699 65 15.5s33.333 14.333 46 24s23 21.334 31 35.001s15 29.5 21 47.5h-40l-166 530h137l110 -437h4l121 437h132zM144 680.999l203 132l57 -95l-222 -101z" />
    <glyph glyph-name="thorn" unicode="&#xfe;" horiz-adv-x="598" 
d="M84 741l128.003 14v-283c19.333 23.333 41.666 41 66.999 53s52.333 18 81 18c34.667 0 64.5 -6.66699 89.5 -20s45.167 -32.166 60.5 -56.499s26.666 -53.5 33.999 -87.5s11 -71.667 11 -113c0 -39.333 -4.5 -76 -13.5 -110s-22.5 -63.5 -40.5 -88.5
s-40.333 -44.667 -67 -59s-57.334 -21.5 -92.001 -21.5c-26 0 -50 4.16699 -72 12.5s-41.333 21.166 -58 38.499v-242l-128 -14v959zM319.003 447c-21.333 0 -41.1689 -6.50098 -59.502 -19.501s-34.166 -29.167 -47.499 -48.5v-244
c12.667 -17.333 27.167 -30.166 43.5 -38.499s33.833 -12.5 52.5 -12.5c34.667 0 61.834 14.333 81.501 43s29.5 74.667 29.5 138c0 66 -8.83301 112.833 -26.5 140.5s-42.167 41.5 -73.5 41.5z" />
    <glyph glyph-name="ydieresis" unicode="&#xff;" horiz-adv-x="521" 
d="M337 -4c-19.333 -60.667 -50 -110.001 -92 -148.001s-101.333 -60 -178 -66l-16 96c25.333 4 47 9.16699 65 15.5s33.333 14.333 46 24s23 21.334 31 35.001s15 29.5 21 47.5h-40l-166 530h137l110 -437h4l121 437h132zM146 652.999c-20 0 -37 6.83301 -51 20.5
s-21 30.5 -21 50.5s7 36.833 21 50.5s31 20.5 51 20.5c20.667 0 38 -6.83301 52 -20.5s21 -30.5 21 -50.5s-7 -36.833 -21 -50.5s-31.333 -20.5 -52 -20.5zM373 652.999c-20 0 -37 6.83301 -51 20.5s-21 30.5 -21 50.5s7 36.833 21 50.5s31 20.5 51 20.5
s37.167 -6.83301 51.5 -20.5s21.5 -30.5 21.5 -50.5s-7.16699 -36.833 -21.5 -50.5s-31.5 -20.5 -51.5 -20.5z" />
    <glyph glyph-name="Amacron" unicode="&#x100;" horiz-adv-x="595" 
d="M414 162h-237l-46 -162h-134l221 692h161l220 -692h-139zM205 262h182l-89 312h-5zM447 798h-298v92h298v-92z" />
    <glyph glyph-name="amacron" unicode="&#x101;" horiz-adv-x="559" 
d="M478 137c0 -19.333 2.66602 -33.333 7.99902 -42s14 -15.334 26 -20.001l-30 -87c-28 3.33301 -51.333 10.166 -70 20.499s-33 26.166 -43 47.499c-19.333 -23.333 -42.5 -40.666 -69.5 -51.999s-56.5 -17 -88.5 -17c-54 0 -96.5 15 -127.5 45s-46.5 70 -46.5 120
c0 56.667 21.333 100.167 64 130.5s105.667 45.5 189 45.5h63v27c0 34.667 -8.5 58.334 -25.5 71.001s-43.833 19 -80.5 19c-16.667 0 -36.667 -2.16699 -60 -6.5s-48.333 -11.166 -75 -20.499l-31 90c33.333 12.667 65.833 21.667 97.5 27s60.834 8 87.501 8
c75.333 0 129.5 -15.667 162.5 -47s49.5 -75.333 49.5 -132v-227zM248.999 78c21.333 0 40.668 5.5 58.001 16.5s32.666 26.5 45.999 46.5v108h-47c-50 0 -84.333 -8.16699 -103 -24.5s-28 -38.5 -28 -66.5c0 -26.667 5.83301 -46.667 17.5 -60s30.5 -20 56.5 -20z
M419.001 668h-298v92h298v-92z" />
    <glyph glyph-name="Abreve" unicode="&#x102;" horiz-adv-x="595" 
d="M414 162h-237l-46 -162h-134l221 692h161l220 -692h-139zM205 262h182l-89 312h-5zM296 756c-25.333 0 -47.667 4.33301 -67 13s-36 20.334 -50 35.001s-25.167 31.334 -33.5 50.001s-13.5 37.667 -15.5 57l75 14c12.667 -51.333 43 -77 91 -77
c49.333 0 80.333 25.667 93 77l76 -14c-2 -19.333 -7.33301 -38.333 -16 -57s-20.167 -35.334 -34.5 -50.001s-31.5 -26.334 -51.5 -35.001s-42.333 -13 -67 -13z" />
    <glyph glyph-name="abreve" unicode="&#x103;" horiz-adv-x="559" 
d="M478 137c0 -19.333 2.66602 -33.333 7.99902 -42s14 -15.334 26 -20.001l-30 -87c-28 3.33301 -51.333 10.166 -70 20.499s-33 26.166 -43 47.499c-19.333 -23.333 -42.5 -40.666 -69.5 -51.999s-56.5 -17 -88.5 -17c-54 0 -96.5 15 -127.5 45s-46.5 70 -46.5 120
c0 56.667 21.333 100.167 64 130.5s105.667 45.5 189 45.5h63v27c0 34.667 -8.5 58.334 -25.5 71.001s-43.833 19 -80.5 19c-16.667 0 -36.667 -2.16699 -60 -6.5s-48.333 -11.166 -75 -20.499l-31 90c33.333 12.667 65.833 21.667 97.5 27s60.834 8 87.501 8
c75.333 0 129.5 -15.667 162.5 -47s49.5 -75.333 49.5 -132v-227zM248.999 78c21.333 0 40.668 5.5 58.001 16.5s32.666 26.5 45.999 46.5v108h-47c-50 0 -84.333 -8.16699 -103 -24.5s-28 -38.5 -28 -66.5c0 -26.667 5.83301 -46.667 17.5 -60s30.5 -20 56.5 -20z
M269.001 620c-25.333 0 -47.834 4.66699 -67.501 14s-36.5 21.833 -50.5 37.5s-25.167 33.334 -33.5 53.001s-13.5 39.834 -15.5 60.501l76 14c6.66699 -26 17.5 -47.167 32.5 -63.5s34.5 -24.5 58.5 -24.5s43.833 8.16699 59.5 24.5s26.834 37.5 33.501 63.5l75 -14
c-2 -20.667 -7.33301 -40.834 -16 -60.501s-20 -37.334 -34 -53.001s-31 -28.167 -51 -37.5s-42.333 -14 -67 -14z" />
    <glyph glyph-name="Aogonek" unicode="&#x104;" horiz-adv-x="595" 
d="M414 162l-237 0.00195312l-46 -162h-134l221 692h161l220 -692c-19.333 -10.667 -35 -21.667 -47 -33s-21.5 -22.333 -28.5 -33s-11.667 -21 -14 -31s-3.5 -19.333 -3.5 -28c0 -14.667 4.5 -26.667 13.5 -36s24.167 -14 45.5 -14c13.333 0 25.666 1.66699 36.999 5
s20.333 6.66602 27 9.99902l30 -65c-33.333 -17.333 -69.666 -26 -108.999 -26c-44 0 -78.167 10.333 -102.5 31s-36.5 49.667 -36.5 87c0 25.333 8.5 49.666 25.5 72.999s40.5 43.333 70.5 60h-47zM205 262.002h182l-89 312h-5z" />
    <glyph glyph-name="aogonek" unicode="&#x105;" horiz-adv-x="559" 
d="M478 137c0 -19.333 2.66992 -33.334 8.00293 -42.001s14 -15.334 26 -20.001l-29 -87c-16.667 -10 -30.167 -20 -40.5 -30s-18.166 -19.833 -23.499 -29.5s-9 -19 -11 -28s-3 -17.5 -3 -25.5c0 -14.667 4.66699 -26.667 14 -36s24.333 -14 45 -14
c13.333 0 25.666 1.66699 36.999 5s20.333 6.66602 27 9.99902l30 -65c-33.333 -17.333 -69.333 -26 -108 -26c-44.667 0 -79.167 10.333 -103.5 31s-36.5 49.667 -36.5 87c0 27.333 10 53 30 77s46.667 43.667 80 59c-11.333 6 -21.166 13.167 -29.499 21.5
s-15.5 18.833 -21.5 31.5c-19.333 -23.333 -42.5 -40.666 -69.5 -51.999s-56.5 -17 -88.5 -17c-54 0 -96.5 15 -127.5 45s-46.5 70 -46.5 120c0 56.667 21.333 100.167 64 130.5s105.667 45.5 189 45.5h63v27c0 34.667 -8.33301 58.334 -25 71.001s-43.334 19 -80.001 19
c-16.667 0 -36.834 -2.16699 -60.501 -6.5s-48.834 -11.166 -75.501 -20.499l-31 90c34 12.667 66.667 21.667 98 27s60.666 8 87.999 8c75.333 0 129.333 -15.667 162 -47s49 -75.333 49 -132v-227zM250.003 77.999c21.333 0 40.499 5.5 57.499 16.5s32.167 26.5 45.5 46.5
v108h-47c-50 0 -84.333 -8.16699 -103 -24.5s-28 -38.5 -28 -66.5c0 -26.667 5.83301 -46.667 17.5 -60s30.834 -20 57.501 -20z" />
    <glyph glyph-name="Cacute" unicode="&#x106;" horiz-adv-x="581" 
d="M357 94c35.333 0 64.335 6.16797 87.002 18.501s42.667 26.166 60 41.499l65 -82c-22.667 -22 -51.667 -41.667 -87 -59s-78.666 -26 -129.999 -26c-44 0 -84.5 7.66699 -121.5 23s-68.833 38.166 -95.5 68.499s-47.5 68 -62.5 113s-22.5 96.833 -22.5 155.5
c0 58 8 109.333 24 154s37.667 82 65 112s59.5 52.833 96.5 68.5s76.167 23.5 117.5 23.5c45.333 0 83.666 -6.5 114.999 -19.5s61 -30.833 89 -53.5l-68 -80c-38.667 32.667 -81.334 49 -128.001 49c-24.667 0 -47.5 -4.33301 -68.5 -13s-39.333 -23 -55 -43
s-27.834 -46.167 -36.501 -78.5s-13 -72.166 -13 -119.499c0 -46.667 4.33301 -86.167 13 -118.5s20.5 -58.5 35.5 -78.5s32.833 -34.333 53.5 -43s43 -13 67 -13zM206.002 817.001l205 125l57 -94l-225 -94z" />
    <glyph glyph-name="cacute" unicode="&#x107;" horiz-adv-x="483" 
d="M299 90c17.333 0 34.001 3.00098 50.001 9.00098s34.667 16.667 56 32l59 -85c-25.333 -20 -52.666 -34.833 -81.999 -44.5s-58 -14.5 -86 -14.5c-42 0 -78.667 6.66699 -110 20s-57.5 32 -78.5 56s-36.667 52.833 -47 86.5s-15.5 71.167 -15.5 112.5
c0 40 5.33301 77.167 16 111.5s26.5 64 47.5 89s47 44.667 78 59s67.167 21.5 108.5 21.5c30 0 59.667 -4.66699 89 -14s56.666 -24.666 81.999 -45.999l-59 -80c-20 15.333 -38.333 25.666 -55 30.999s-33.667 8 -51 8c-36.667 0 -65.834 -14.333 -87.501 -43
s-32.5 -74.334 -32.5 -137.001c0 -31.333 2.83301 -58 8.5 -80s13.5 -39.833 23.5 -53.5s22.333 -23.5 37 -29.5s31 -9 49 -9zM142.001 681.001l203 132l57 -95l-222 -101z" />
    <glyph glyph-name="Ccircumflex" unicode="&#x108;" horiz-adv-x="581" 
d="M357 94c35.333 0 64.335 6.16797 87.002 18.501s42.667 26.166 60 41.499l65 -82c-22.667 -22 -51.667 -41.667 -87 -59s-78.666 -26 -129.999 -26c-44 0 -84.5 7.66699 -121.5 23s-68.833 38.166 -95.5 68.499s-47.5 68 -62.5 113s-22.5 96.833 -22.5 155.5
c0 58 8 109.333 24 154s37.667 82 65 112s59.5 52.833 96.5 68.5s76.167 23.5 117.5 23.5c45.333 0 83.666 -6.5 114.999 -19.5s61 -30.833 89 -53.5l-68 -80c-38.667 32.667 -81.334 49 -128.001 49c-24.667 0 -47.5 -4.33301 -68.5 -13s-39.333 -23 -55 -43
s-27.834 -46.167 -36.501 -78.5s-13 -72.166 -13 -119.499c0 -46.667 4.33301 -86.167 13 -118.5s20.5 -58.5 35.5 -78.5s32.833 -34.333 53.5 -43s43 -13 67 -13zM202.002 757.001l-48 55l144 121h79l143 -121l-48 -55l-135 83z" />
    <glyph glyph-name="ccircumflex" unicode="&#x109;" horiz-adv-x="483" 
d="M299 90c17.333 0 34.001 3.00098 50.001 9.00098s34.667 16.667 56 32l59 -85c-25.333 -20 -52.666 -34.833 -81.999 -44.5s-58 -14.5 -86 -14.5c-42 0 -78.667 6.66699 -110 20s-57.5 32 -78.5 56s-36.667 52.833 -47 86.5s-15.5 71.167 -15.5 112.5
c0 40 5.33301 77.167 16 111.5s26.5 64 47.5 89s47 44.667 78 59s67.167 21.5 108.5 21.5c30 0 59.667 -4.66699 89 -14s56.666 -24.666 81.999 -45.999l-59 -80c-20 15.333 -38.333 25.666 -55 30.999s-33.667 8 -51 8c-36.667 0 -65.834 -14.333 -87.501 -43
s-32.5 -74.334 -32.5 -137.001c0 -31.333 2.83301 -58 8.5 -80s13.5 -39.833 23.5 -53.5s22.333 -23.5 37 -29.5s31 -9 49 -9zM142.001 620.001l-51 57l143 131h79l143 -131l-51 -57l-131 95z" />
    <glyph glyph-name="Cdotaccent" unicode="&#x10a;" horiz-adv-x="581" 
d="M357 94c35.333 0 64.335 6.16797 87.002 18.501s42.667 26.166 60 41.499l65 -82c-22.667 -22 -51.667 -41.667 -87 -59s-78.666 -26 -129.999 -26c-44 0 -84.5 7.66699 -121.5 23s-68.833 38.166 -95.5 68.499s-47.5 68 -62.5 113s-22.5 96.833 -22.5 155.5
c0 58 8 109.333 24 154s37.667 82 65 112s59.5 52.833 96.5 68.5s76.167 23.5 117.5 23.5c45.333 0 83.666 -6.5 114.999 -19.5s61 -30.833 89 -53.5l-68 -80c-38.667 32.667 -81.334 49 -128.001 49c-24.667 0 -47.5 -4.33301 -68.5 -13s-39.333 -23 -55 -43
s-27.834 -46.167 -36.501 -78.5s-13 -72.166 -13 -119.499c0 -46.667 4.33301 -86.167 13 -118.5s20.5 -58.5 35.5 -78.5s32.833 -34.333 53.5 -43s43 -13 67 -13zM420.002 853.001c0 -22.667 -7.66699 -41.834 -23 -57.501s-35.666 -23.5 -60.999 -23.5
c-24.667 0 -44.667 7.83301 -60 23.5s-23 34.834 -23 57.501c0 23.333 7.66699 42.666 23 57.999s35.333 23 60 23c25.333 0 45.666 -7.66699 60.999 -23s23 -34.666 23 -57.999z" />
    <glyph glyph-name="cdotaccent" unicode="&#x10b;" horiz-adv-x="483" 
d="M299 90c17.333 0 34.001 3.00098 50.001 9.00098s34.667 16.667 56 32l59 -85c-25.333 -20 -52.666 -34.833 -81.999 -44.5s-58 -14.5 -86 -14.5c-42 0 -78.667 6.66699 -110 20s-57.5 32 -78.5 56s-36.667 52.833 -47 86.5s-15.5 71.167 -15.5 112.5
c0 40 5.33301 77.167 16 111.5s26.5 64 47.5 89s47 44.667 78 59s67.167 21.5 108.5 21.5c30 0 59.667 -4.66699 89 -14s56.666 -24.666 81.999 -45.999l-59 -80c-20 15.333 -38.333 25.666 -55 30.999s-33.667 8 -51 8c-36.667 0 -65.834 -14.333 -87.501 -43
s-32.5 -74.334 -32.5 -137.001c0 -31.333 2.83301 -58 8.5 -80s13.5 -39.833 23.5 -53.5s22.333 -23.5 37 -29.5s31 -9 49 -9zM358.001 724.001c0 -23.333 -7.66699 -42.666 -23 -57.999s-35.333 -23 -60 -23c-25.333 0 -45.666 7.66699 -60.999 23s-23 34.666 -23 57.999
c0 22.667 7.66699 41.834 23 57.501s35.666 23.5 60.999 23.5c24.667 0 44.667 -7.83301 60 -23.5s23 -34.834 23 -57.501z" />
    <glyph glyph-name="Ccaron" unicode="&#x10c;" horiz-adv-x="581" 
d="M357 94c35.333 0 64.335 6.16797 87.002 18.501s42.667 26.166 60 41.499l65 -82c-22.667 -22 -51.667 -41.667 -87 -59s-78.666 -26 -129.999 -26c-44 0 -84.5 7.66699 -121.5 23s-68.833 38.166 -95.5 68.499s-47.5 68 -62.5 113s-22.5 96.833 -22.5 155.5
c0 58 8 109.333 24 154s37.667 82 65 112s59.5 52.833 96.5 68.5s76.167 23.5 117.5 23.5c45.333 0 83.666 -6.5 114.999 -19.5s61 -30.833 89 -53.5l-68 -80c-38.667 32.667 -81.334 49 -128.001 49c-24.667 0 -47.5 -4.33301 -68.5 -13s-39.333 -23 -55 -43
s-27.834 -46.167 -36.501 -78.5s-13 -72.166 -13 -119.499c0 -46.667 4.33301 -86.167 13 -118.5s20.5 -58.5 35.5 -78.5s32.833 -34.333 53.5 -43s43 -13 67 -13zM337.002 850.001l135 83l48 -54l-143 -122h-79l-144 122l48 54z" />
    <glyph glyph-name="ccaron" unicode="&#x10d;" horiz-adv-x="483" 
d="M299 90c17.333 0 34.001 3.00098 50.001 9.00098s34.667 16.667 56 32l59 -85c-25.333 -20 -52.666 -34.833 -81.999 -44.5s-58 -14.5 -86 -14.5c-42 0 -78.667 6.66699 -110 20s-57.5 32 -78.5 56s-36.667 52.833 -47 86.5s-15.5 71.167 -15.5 112.5
c0 40 5.33301 77.167 16 111.5s26.5 64 47.5 89s47 44.667 78 59s67.167 21.5 108.5 21.5c30 0 59.667 -4.66699 89 -14s56.666 -24.666 81.999 -45.999l-59 -80c-20 15.333 -38.333 25.666 -55 30.999s-33.667 8 -51 8c-36.667 0 -65.834 -14.333 -87.501 -43
s-32.5 -74.334 -32.5 -137.001c0 -31.333 2.83301 -58 8.5 -80s13.5 -39.833 23.5 -53.5s22.333 -23.5 37 -29.5s31 -9 49 -9zM277.001 714.001l131 94l51 -57l-143 -131h-79l-143 131l51 57z" />
    <glyph glyph-name="Dcaron" unicode="&#x10e;" horiz-adv-x="659" 
d="M470 349c0 52.667 -5.33301 94.833 -16 126.5s-24.667 56.167 -42 73.5s-36.833 28.833 -58.5 34.5s-43.5 8.5 -65.5 8.5h-71v-492h70c23.333 0 46 3.66699 68 11s41.5 20.333 58.5 39s30.667 44 41 76s15.5 73 15.5 123zM608 348.999
c0 -71.333 -9.99902 -129.666 -29.999 -174.999s-45.833 -80.833 -77.5 -106.5s-67.334 -43.334 -107.001 -53.001s-79.167 -14.5 -118.5 -14.5h-190v692h178c42 0 83.5 -4.5 124.5 -13.5s77.833 -26 110.5 -51s59.167 -59.833 79.5 -104.5s30.5 -102.667 30.5 -174z
M302.001 849.999l135 83l48 -54l-143 -122h-79l-144 122l48 54z" />
    <glyph glyph-name="dcaron" unicode="&#x10f;" horiz-adv-x="600" 
d="M255 543c28 0 53.501 -4.33203 76.501 -12.999s43.167 -22.334 60.5 -41.001v266l128 -14v-741h-113l-8 63c-17.333 -24 -39 -42.667 -65 -56s-54.667 -20 -86 -20c-36 0 -66.667 6.5 -92 19.5s-46.333 31.667 -63 56s-28.834 53.5 -36.501 87.5s-11.5 72 -11.5 114
c0 40 4.66699 77 14 111s23 63.5 41 88.5s40 44.5 66 58.5s55.667 21 89 21zM292.001 447.001c-36 0 -63.499 -14.332 -82.499 -42.999s-28.5 -75.334 -28.5 -140.001c0 -65.333 9 -112 27 -140s43 -42 75 -42c22.667 0 43.167 6.5 61.5 19.5s34.166 29.167 47.499 48.5v247
c-12 16 -26.667 28.333 -44 37s-36 13 -56 13zM579.002 758.002c0 18.667 6.66895 34.499 20.002 47.499s29.666 19.5 48.999 19.5s35.666 -6.5 48.999 -19.5s20 -28.833 20 -47.5c0 -11.333 -1.66699 -22 -5 -32s-8 -21.333 -14 -34l-52 -108h-67l28 118
c-8.66699 6.66699 -15.5 14.834 -20.5 24.501s-7.5 20.167 -7.5 31.5z" />
    <glyph glyph-name="Dcroat" unicode="&#x110;" horiz-adv-x="662" 
d="M612 349c0 -71.333 -10 -129.666 -30 -174.999s-46 -80.833 -78 -106.5s-67.833 -43.334 -107.5 -53.001s-79.167 -14.5 -118.5 -14.5h-190v308h-77v89h77v295h178c42 0 83.5 -4.5 124.5 -13.5s78 -26 111 -51s59.667 -59.833 80 -104.5s30.5 -102.667 30.5 -174z
M373 308l-152.997 -0.000976562v-208h70c23.333 0 46.166 3.66699 68.499 11s42 20.333 59 39s30.667 44 41 76s15.5 73 15.5 123c0 52.667 -5.33301 94.834 -16 126.501s-24.834 56.167 -42.501 73.5s-37.334 28.833 -59.001 34.5s-43.5 8.5 -65.5 8.5h-71v-195h153v-89z
" />
    <glyph glyph-name="dcroat" unicode="&#x111;" horiz-adv-x="610" 
d="M255 543c28 0 53.501 -4.33203 76.501 -12.999s43.167 -22.334 60.5 -41.001v104h-149v85h149v77l128 -14v-63h76v-85h-76v-593h-113l-8 63c-17.333 -24 -39 -42.667 -65 -56s-54.667 -20 -86 -20c-36 0 -66.667 6.5 -92 19.5s-46.333 31.667 -63 56
s-28.834 53.5 -36.501 87.5s-11.5 72 -11.5 114c0 40 4.66699 77 14 111s23 63.5 41 88.5s40 44.5 66 58.5s55.667 21 89 21zM292.001 447.001c-36 0 -63.499 -14.332 -82.499 -42.999s-28.5 -75.334 -28.5 -140.001c0 -65.333 9 -112 27 -140s43 -42 75 -42
c22.667 0 43.167 6.5 61.5 19.5s34.166 29.167 47.499 48.5v247c-12 16 -26.667 28.333 -44 37s-36 13 -56 13z" />
    <glyph glyph-name="Emacron" unicode="&#x112;" horiz-adv-x="535" 
d="M217 593v-194h222v-99h-222v-201h273v-99h-405v692h401l-14 -99h-255zM430 798h-298v92h298v-92z" />
    <glyph glyph-name="emacron" unicode="&#x113;" horiz-adv-x="547" 
d="M179 225c5.33301 -50 18.668 -85.666 40.001 -106.999s50 -32 86 -32c21.333 0 41.666 3.16699 60.999 9.5s40.666 18.166 63.999 35.499l55 -80c-25.333 -19.333 -53.666 -34.833 -84.999 -46.5s-65 -17.5 -101 -17.5c-43.333 0 -80.833 6.66699 -112.5 20
s-58 32.333 -79 57s-36.667 54 -47 88s-15.5 71.667 -15.5 113c0 39.333 5.16699 75.833 15.5 109.5s25.5 63 45.5 88s44.667 44.667 74 59s63 21.5 101 21.5c72 0 127.667 -23.167 167 -69.5s59 -111.833 59 -196.5c0 -9.33301 -0.166992 -18.5 -0.5 -27.5
s-0.833008 -17.167 -1.5 -24.5h-326zM282.002 449.001c-30 0 -53.833 -11 -71.5 -33s-28.167 -57.333 -31.5 -106h203c-1.33301 45.333 -9.83301 79.833 -25.5 103.5s-40.5 35.5 -74.5 35.5zM427.002 668.001h-298v92h298v-92z" />
    <glyph glyph-name="Ebreve" unicode="&#x114;" horiz-adv-x="535" 
d="M217 593v-194h222v-99h-222v-201h273v-99h-405v692h401l-14 -99h-255zM279 756c-25.333 0 -47.667 4.33301 -67 13s-36 20.334 -50 35.001s-25.167 31.334 -33.5 50.001s-13.5 37.667 -15.5 57l75 14c12.667 -51.333 43 -77 91 -77c49.333 0 80.333 25.667 93 77l76 -14
c-2 -19.333 -7.33301 -38.333 -16 -57s-20.167 -35.334 -34.5 -50.001s-31.5 -26.334 -51.5 -35.001s-42.333 -13 -67 -13z" />
    <glyph glyph-name="ebreve" unicode="&#x115;" horiz-adv-x="547" 
d="M179 225c5.33301 -50 18.668 -85.666 40.001 -106.999s50 -32 86 -32c21.333 0 41.666 3.16699 60.999 9.5s40.666 18.166 63.999 35.499l55 -80c-25.333 -19.333 -53.666 -34.833 -84.999 -46.5s-65 -17.5 -101 -17.5c-43.333 0 -80.833 6.66699 -112.5 20
s-58 32.333 -79 57s-36.667 54 -47 88s-15.5 71.667 -15.5 113c0 39.333 5.16699 75.833 15.5 109.5s25.5 63 45.5 88s44.667 44.667 74 59s63 21.5 101 21.5c72 0 127.667 -23.167 167 -69.5s59 -111.833 59 -196.5c0 -9.33301 -0.166992 -18.5 -0.5 -27.5
s-0.833008 -17.167 -1.5 -24.5h-326zM282.002 449.001c-30 0 -53.833 -11 -71.5 -33s-28.167 -57.333 -31.5 -106h203c-1.33301 45.333 -9.83301 79.833 -25.5 103.5s-40.5 35.5 -74.5 35.5zM278.002 620.001c-25.333 0 -47.834 4.66699 -67.501 14s-36.5 21.833 -50.5 37.5
s-25.167 33.334 -33.5 53.001s-13.5 39.834 -15.5 60.501l76 14c6.66699 -26 17.5 -47.167 32.5 -63.5s34.5 -24.5 58.5 -24.5s43.833 8.16699 59.5 24.5s26.834 37.5 33.501 63.5l75 -14c-2 -20.667 -7.33301 -40.834 -16 -60.501s-20 -37.334 -34 -53.001
s-31 -28.167 -51 -37.5s-42.333 -14 -67 -14z" />
    <glyph glyph-name="Edotaccent" unicode="&#x116;" horiz-adv-x="535" 
d="M217 593v-194h222v-99h-222v-201h273v-99h-405v692h401l-14 -99h-255zM363 853c0 -22.667 -7.66699 -41.834 -23 -57.501s-35.666 -23.5 -60.999 -23.5c-24.667 0 -44.667 7.83301 -60 23.5s-23 34.834 -23 57.501c0 23.333 7.66699 42.666 23 57.999s35.333 23 60 23
c25.333 0 45.666 -7.66699 60.999 -23s23 -34.666 23 -57.999z" />
    <glyph glyph-name="edotaccent" unicode="&#x117;" horiz-adv-x="547" 
d="M179 225c5.33301 -50 18.668 -85.666 40.001 -106.999s50 -32 86 -32c21.333 0 41.666 3.16699 60.999 9.5s40.666 18.166 63.999 35.499l55 -80c-25.333 -19.333 -53.666 -34.833 -84.999 -46.5s-65 -17.5 -101 -17.5c-43.333 0 -80.833 6.66699 -112.5 20
s-58 32.333 -79 57s-36.667 54 -47 88s-15.5 71.667 -15.5 113c0 39.333 5.16699 75.833 15.5 109.5s25.5 63 45.5 88s44.667 44.667 74 59s63 21.5 101 21.5c72 0 127.667 -23.167 167 -69.5s59 -111.833 59 -196.5c0 -9.33301 -0.166992 -18.5 -0.5 -27.5
s-0.833008 -17.167 -1.5 -24.5h-326zM282.002 449.001c-30 0 -53.833 -11 -71.5 -33s-28.167 -57.333 -31.5 -106h203c-1.33301 45.333 -9.83301 79.833 -25.5 103.5s-40.5 35.5 -74.5 35.5zM362.002 724.001c0 -23.333 -7.66699 -42.666 -23 -57.999s-35.333 -23 -60 -23
c-25.333 0 -45.666 7.66699 -60.999 23s-23 34.666 -23 57.999c0 22.667 7.66699 41.834 23 57.501s35.666 23.5 60.999 23.5c24.667 0 44.667 -7.83301 60 -23.5s23 -34.834 23 -57.501z" />
    <glyph glyph-name="Eogonek" unicode="&#x118;" horiz-adv-x="535" 
d="M217 593v-193.998h222v-99h-222v-201h273v-99c-19.333 -11.333 -35 -22.5 -47 -33.5s-21.333 -22 -28 -33s-11.167 -21.5 -13.5 -31.5s-3.5 -19 -3.5 -27c0 -14.667 4.5 -26.667 13.5 -36s23.833 -14 44.5 -14c13.333 0 25.833 1.66699 37.5 5s20.5 6.66602 26.5 9.99902
l30 -65c-33.333 -17.333 -69.333 -26 -108 -26c-44 0 -78.167 10.333 -102.5 31s-36.5 49.667 -36.5 87c0 25.333 8.5 49.666 25.5 72.999s40.5 43.333 70.5 60h-314v692h401l-14 -99h-255z" />
    <glyph glyph-name="eogonek" unicode="&#x119;" horiz-adv-x="547" 
d="M179 225c5.33301 -50 18.6689 -85.666 40.002 -106.999s50 -32 86 -32c21.333 0 41.666 3.16699 60.999 9.5s40.666 18.166 63.999 35.499l54 -79c-31.333 -19.333 -57.166 -37.333 -77.499 -54s-36.5 -32.167 -48.5 -46.5s-20.333 -27.666 -25 -39.999
s-7 -24.5 -7 -36.5c0 -14.667 4.5 -26.667 13.5 -36s23.833 -14 44.5 -14c14 0 26.667 1.66699 38 5s20 6.66602 26 9.99902l30 -65c-33.333 -17.333 -69.333 -26 -108 -26c-44 0 -78.167 10.333 -102.5 31s-36.5 49.667 -36.5 87c0 22 7.83301 44.833 23.5 68.5
s42.5 45.5 80.5 65.5l-1 2c-12.667 -4.66699 -23.834 -8.16699 -33.501 -10.5s-21.167 -3.5 -34.5 -3.5c-34 0 -64.667 7 -92 21s-50.5 33.167 -69.5 57.5s-33.667 53.333 -44 87s-15.5 70.5 -15.5 110.5c0 39.333 5.16699 75.833 15.5 109.5s25.5 63 45.5 88
s44.667 44.667 74 59s63 21.5 101 21.5c72 0 127.667 -23.167 167 -69.5s59 -111.833 59 -196.5c0 -9.33301 -0.166992 -18.5 -0.5 -27.5s-0.833008 -17.167 -1.5 -24.5h-326zM282.003 449.001c-30 0 -53.833 -11 -71.5 -33s-28.167 -57.333 -31.5 -106h203
c-1.33301 45.333 -9.83301 79.833 -25.5 103.5s-40.5 35.5 -74.5 35.5z" />
    <glyph glyph-name="Ecaron" unicode="&#x11a;" horiz-adv-x="535" 
d="M217 593v-194h222v-99h-222v-201h273v-99h-405v692h401l-14 -99h-255zM281 850l135 83l48 -54l-143 -122h-79l-144 122l48 54z" />
    <glyph glyph-name="ecaron" unicode="&#x11b;" horiz-adv-x="547" 
d="M179 225c5.33301 -50 18.668 -85.666 40.001 -106.999s50 -32 86 -32c21.333 0 41.666 3.16699 60.999 9.5s40.666 18.166 63.999 35.499l55 -80c-25.333 -19.333 -53.666 -34.833 -84.999 -46.5s-65 -17.5 -101 -17.5c-43.333 0 -80.833 6.66699 -112.5 20
s-58 32.333 -79 57s-36.667 54 -47 88s-15.5 71.667 -15.5 113c0 39.333 5.16699 75.833 15.5 109.5s25.5 63 45.5 88s44.667 44.667 74 59s63 21.5 101 21.5c72 0 127.667 -23.167 167 -69.5s59 -111.833 59 -196.5c0 -9.33301 -0.166992 -18.5 -0.5 -27.5
s-0.833008 -17.167 -1.5 -24.5h-326zM282.002 449.001c-30 0 -53.833 -11 -71.5 -33s-28.167 -57.333 -31.5 -106h203c-1.33301 45.333 -9.83301 79.833 -25.5 103.5s-40.5 35.5 -74.5 35.5zM279.002 714.001l131 94l51 -57l-143 -131h-79l-143 131l51 57z" />
    <glyph glyph-name="Gcircumflex" unicode="&#x11c;" horiz-adv-x="644" 
d="M345 -13c-94.667 0 -167.499 30.167 -218.499 90.5s-76.5 150.166 -76.5 269.499c0 58.667 8.66699 110.334 26 155.001s40.5 82 69.5 112s62.5 52.667 100.5 68s77.667 23 119 23c48.667 0 90.5 -7.5 125.5 -22.5s66.5 -35.167 94.5 -60.5l-72 -75
c-21.333 19.333 -43.5 33.5 -66.5 42.5s-48.833 13.5 -77.5 13.5c-24 0 -47 -4.5 -69 -13.5s-41.167 -23.667 -57.5 -44s-29.5 -46.833 -39.5 -79.5s-15 -72.334 -15 -119.001c0 -47.333 3.5 -87.333 10.5 -120s17.333 -59.167 31 -79.5s30.667 -35.166 51 -44.499
s44.166 -14 71.499 -14c18 0 36.167 2 54.5 6s36.833 10.667 55.5 20v174h-112l-14 99h254v-337c-32.667 -20 -69.167 -35.667 -109.5 -47s-85.5 -17 -135.5 -17zM209.001 757l-48 55l144 121h79l143 -121l-48 -55l-135 83z" />
    <glyph glyph-name="gcircumflex" unicode="&#x11d;" horiz-adv-x="554" 
d="M148 -30c-2 -5.33301 -3.83301 -11.001 -5.5 -17.001s-2.5 -12.333 -2.5 -19c0 -19.333 9.33301 -34.5 28 -45.5s52 -16.5 100 -16.5c26.667 0 48.667 1.66699 66 5s31 7.66602 41 12.999s17 11.833 21 19.5s6 15.834 6 24.501c0 9.33301 -1.5 17.666 -4.5 24.999
s-9 13.5 -18 18.5s-21.5 9.33301 -37.5 13s-37 6.5 -63 8.5c-36 2.66699 -66.5 6.83398 -91.5 12.501s-45.5 13 -61.5 22s-27.5 20 -34.5 33s-10.5 28.167 -10.5 45.5s4.83301 33.333 14.5 48s23.167 28.334 40.5 41.001c-27.333 16.667 -48.666 37.834 -63.999 63.501
s-23 55.167 -23 88.5c0 27.333 5 52.5 15 75.5s24.5 43 43.5 60s42.5 30.333 70.5 40s59.667 14.5 95 14.5l269 1v-101l-122 25v-4c19.333 -12 35.166 -28.333 47.499 -49s18.5 -44.667 18.5 -72c0 -24.667 -4.66699 -47.667 -14 -69s-23 -39.833 -41 -55.5s-40 -28 -66 -37
s-56 -13.5 -90 -13.5c-20 0 -41.667 2.66699 -65 8c-4.66699 -5.33301 -8.5 -10.5 -11.5 -15.5s-4.5 -10.167 -4.5 -15.5c0 -6 1.33301 -11.333 4 -16s8.83398 -8.66699 18.501 -12s23.5 -6.33301 41.5 -9s42 -5.33398 72 -8.00098c38.667 -3.33301 71 -9.66602 97 -18.999
s46.667 -21 62 -35s26.166 -29.667 32.499 -47s9.5 -35.666 9.5 -54.999c0 -28.667 -6.33301 -53.334 -19 -74.001s-30.5 -37.5 -53.5 -50.5s-50.667 -22.5 -83 -28.5s-67.833 -9 -106.5 -9c-45.333 0 -83.5 3.33301 -114.5 10s-56 16 -75 28s-32.667 26 -41 42
s-12.5 33.333 -12.5 52c0 12 1.5 25.167 4.5 39.5s9.16699 28.166 18.5 41.499zM180 353.999c0 -32 8.00098 -57.168 24.001 -75.501s39 -27.5 69 -27.5s52.5 9.33301 67.5 28s22.5 44.334 22.5 77.001c0 32 -7.5 56.667 -22.5 74s-37.5 26 -67.5 26
c-30.667 0 -53.834 -9.5 -69.501 -28.5s-23.5 -43.5 -23.5 -73.5zM140.001 619.998l-51 57l143 131h79l143 -131l-51 -57l-131 95z" />
    <glyph glyph-name="Gbreve" unicode="&#x11e;" horiz-adv-x="644" 
d="M345 -13c-94.667 0 -167.499 30.167 -218.499 90.5s-76.5 150.166 -76.5 269.499c0 58.667 8.66699 110.334 26 155.001s40.5 82 69.5 112s62.5 52.667 100.5 68s77.667 23 119 23c48.667 0 90.5 -7.5 125.5 -22.5s66.5 -35.167 94.5 -60.5l-72 -75
c-21.333 19.333 -43.5 33.5 -66.5 42.5s-48.833 13.5 -77.5 13.5c-24 0 -47 -4.5 -69 -13.5s-41.167 -23.667 -57.5 -44s-29.5 -46.833 -39.5 -79.5s-15 -72.334 -15 -119.001c0 -47.333 3.5 -87.333 10.5 -120s17.333 -59.167 31 -79.5s30.667 -35.166 51 -44.499
s44.166 -14 71.499 -14c18 0 36.167 2 54.5 6s36.833 10.667 55.5 20v174h-112l-14 99h254v-337c-32.667 -20 -69.167 -35.667 -109.5 -47s-85.5 -17 -135.5 -17zM341.001 756c-25.333 0 -47.667 4.33301 -67 13s-36 20.334 -50 35.001s-25.167 31.334 -33.5 50.001
s-13.5 37.667 -15.5 57l75 14c12.667 -51.333 43 -77 91 -77c49.333 0 80.333 25.667 93 77l76 -14c-2 -19.333 -7.33301 -38.333 -16 -57s-20.167 -35.334 -34.5 -50.001s-31.5 -26.334 -51.5 -35.001s-42.333 -13 -67 -13z" />
    <glyph glyph-name="gbreve" unicode="&#x11f;" horiz-adv-x="554" 
d="M148 -30c-2 -5.33301 -3.83301 -11.001 -5.5 -17.001s-2.5 -12.333 -2.5 -19c0 -19.333 9.33301 -34.5 28 -45.5s52 -16.5 100 -16.5c26.667 0 48.667 1.66699 66 5s31 7.66602 41 12.999s17 11.833 21 19.5s6 15.834 6 24.501c0 9.33301 -1.5 17.666 -4.5 24.999
s-9 13.5 -18 18.5s-21.5 9.33301 -37.5 13s-37 6.5 -63 8.5c-36 2.66699 -66.5 6.83398 -91.5 12.501s-45.5 13 -61.5 22s-27.5 20 -34.5 33s-10.5 28.167 -10.5 45.5s4.83301 33.333 14.5 48s23.167 28.334 40.5 41.001c-27.333 16.667 -48.666 37.834 -63.999 63.501
s-23 55.167 -23 88.5c0 27.333 5 52.5 15 75.5s24.5 43 43.5 60s42.5 30.333 70.5 40s59.667 14.5 95 14.5l269 1v-101l-122 25v-4c19.333 -12 35.166 -28.333 47.499 -49s18.5 -44.667 18.5 -72c0 -24.667 -4.66699 -47.667 -14 -69s-23 -39.833 -41 -55.5s-40 -28 -66 -37
s-56 -13.5 -90 -13.5c-20 0 -41.667 2.66699 -65 8c-4.66699 -5.33301 -8.5 -10.5 -11.5 -15.5s-4.5 -10.167 -4.5 -15.5c0 -6 1.33301 -11.333 4 -16s8.83398 -8.66699 18.501 -12s23.5 -6.33301 41.5 -9s42 -5.33398 72 -8.00098c38.667 -3.33301 71 -9.66602 97 -18.999
s46.667 -21 62 -35s26.166 -29.667 32.499 -47s9.5 -35.666 9.5 -54.999c0 -28.667 -6.33301 -53.334 -19 -74.001s-30.5 -37.5 -53.5 -50.5s-50.667 -22.5 -83 -28.5s-67.833 -9 -106.5 -9c-45.333 0 -83.5 3.33301 -114.5 10s-56 16 -75 28s-32.667 26 -41 42
s-12.5 33.333 -12.5 52c0 12 1.5 25.167 4.5 39.5s9.16699 28.166 18.5 41.499zM180 353.999c0 -32 8.00098 -57.168 24.001 -75.501s39 -27.5 69 -27.5s52.5 9.33301 67.5 28s22.5 44.334 22.5 77.001c0 32 -7.5 56.667 -22.5 74s-37.5 26 -67.5 26
c-30.667 0 -53.834 -9.5 -69.501 -28.5s-23.5 -43.5 -23.5 -73.5zM271.001 619.998c-25.333 0 -47.834 4.66699 -67.501 14s-36.5 21.833 -50.5 37.5s-25.167 33.334 -33.5 53.001s-13.5 39.834 -15.5 60.501l76 14c6.66699 -26 17.5 -47.167 32.5 -63.5
s34.5 -24.5 58.5 -24.5s43.833 8.16699 59.5 24.5s26.834 37.5 33.501 63.5l75 -14c-2 -20.667 -7.33301 -40.834 -16 -60.501s-20 -37.334 -34 -53.001s-31 -28.167 -51 -37.5s-42.333 -14 -67 -14z" />
    <glyph glyph-name="Gdotaccent" unicode="&#x120;" horiz-adv-x="644" 
d="M345 -13c-94.667 0 -167.499 30.167 -218.499 90.5s-76.5 150.166 -76.5 269.499c0 58.667 8.66699 110.334 26 155.001s40.5 82 69.5 112s62.5 52.667 100.5 68s77.667 23 119 23c48.667 0 90.5 -7.5 125.5 -22.5s66.5 -35.167 94.5 -60.5l-72 -75
c-21.333 19.333 -43.5 33.5 -66.5 42.5s-48.833 13.5 -77.5 13.5c-24 0 -47 -4.5 -69 -13.5s-41.167 -23.667 -57.5 -44s-29.5 -46.833 -39.5 -79.5s-15 -72.334 -15 -119.001c0 -47.333 3.5 -87.333 10.5 -120s17.333 -59.167 31 -79.5s30.667 -35.166 51 -44.499
s44.166 -14 71.499 -14c18 0 36.167 2 54.5 6s36.833 10.667 55.5 20v174h-112l-14 99h254v-337c-32.667 -20 -69.167 -35.667 -109.5 -47s-85.5 -17 -135.5 -17zM425.001 853c0 -22.667 -7.66699 -41.834 -23 -57.501s-35.666 -23.5 -60.999 -23.5
c-24.667 0 -44.667 7.83301 -60 23.5s-23 34.834 -23 57.501c0 23.333 7.66699 42.666 23 57.999s35.333 23 60 23c25.333 0 45.666 -7.66699 60.999 -23s23 -34.666 23 -57.999z" />
    <glyph glyph-name="gdotaccent" unicode="&#x121;" horiz-adv-x="554" 
d="M148 -30c-2 -5.33301 -3.83301 -11.001 -5.5 -17.001s-2.5 -12.333 -2.5 -19c0 -19.333 9.33301 -34.5 28 -45.5s52 -16.5 100 -16.5c26.667 0 48.667 1.66699 66 5s31 7.66602 41 12.999s17 11.833 21 19.5s6 15.834 6 24.501c0 9.33301 -1.5 17.666 -4.5 24.999
s-9 13.5 -18 18.5s-21.5 9.33301 -37.5 13s-37 6.5 -63 8.5c-36 2.66699 -66.5 6.83398 -91.5 12.501s-45.5 13 -61.5 22s-27.5 20 -34.5 33s-10.5 28.167 -10.5 45.5s4.83301 33.333 14.5 48s23.167 28.334 40.5 41.001c-27.333 16.667 -48.666 37.834 -63.999 63.501
s-23 55.167 -23 88.5c0 27.333 5 52.5 15 75.5s24.5 43 43.5 60s42.5 30.333 70.5 40s59.667 14.5 95 14.5l269 1v-101l-122 25v-4c19.333 -12 35.166 -28.333 47.499 -49s18.5 -44.667 18.5 -72c0 -24.667 -4.66699 -47.667 -14 -69s-23 -39.833 -41 -55.5s-40 -28 -66 -37
s-56 -13.5 -90 -13.5c-20 0 -41.667 2.66699 -65 8c-4.66699 -5.33301 -8.5 -10.5 -11.5 -15.5s-4.5 -10.167 -4.5 -15.5c0 -6 1.33301 -11.333 4 -16s8.83398 -8.66699 18.501 -12s23.5 -6.33301 41.5 -9s42 -5.33398 72 -8.00098c38.667 -3.33301 71 -9.66602 97 -18.999
s46.667 -21 62 -35s26.166 -29.667 32.499 -47s9.5 -35.666 9.5 -54.999c0 -28.667 -6.33301 -53.334 -19 -74.001s-30.5 -37.5 -53.5 -50.5s-50.667 -22.5 -83 -28.5s-67.833 -9 -106.5 -9c-45.333 0 -83.5 3.33301 -114.5 10s-56 16 -75 28s-32.667 26 -41 42
s-12.5 33.333 -12.5 52c0 12 1.5 25.167 4.5 39.5s9.16699 28.166 18.5 41.499zM180 353.999c0 -32 8.00098 -57.168 24.001 -75.501s39 -27.5 69 -27.5s52.5 9.33301 67.5 28s22.5 44.334 22.5 77.001c0 32 -7.5 56.667 -22.5 74s-37.5 26 -67.5 26
c-30.667 0 -53.834 -9.5 -69.501 -28.5s-23.5 -43.5 -23.5 -73.5zM355.001 723.998c0 -23.333 -7.66699 -42.666 -23 -57.999s-35.333 -23 -60 -23c-25.333 0 -45.666 7.66699 -60.999 23s-23 34.666 -23 57.999c0 22.667 7.66699 41.834 23 57.501s35.666 23.5 60.999 23.5
c24.667 0 44.667 -7.83301 60 -23.5s23 -34.834 23 -57.501z" />
    <glyph glyph-name="uni0122" unicode="&#x122;" horiz-adv-x="644" 
d="M345 -13c-94.667 0 -167.499 30.167 -218.499 90.5s-76.5 150.166 -76.5 269.499c0 58.667 8.66699 110.334 26 155.001s40.5 82 69.5 112s62.5 52.667 100.5 68s77.667 23 119 23c48.667 0 90.5 -7.5 125.5 -22.5s66.5 -35.167 94.5 -60.5l-72 -75
c-21.333 19.333 -43.5 33.5 -66.5 42.5s-48.833 13.5 -77.5 13.5c-24 0 -47 -4.5 -69 -13.5s-41.167 -23.667 -57.5 -44s-29.5 -46.833 -39.5 -79.5s-15 -72.334 -15 -119.001c0 -47.333 3.5 -87.333 10.5 -120s17.333 -59.167 31 -79.5s30.667 -35.166 51 -44.499
s44.166 -14 71.499 -14c18 0 36.167 2 54.5 6s36.833 10.667 55.5 20v174h-112l-14 99h254v-337c-32.667 -20 -69.167 -35.667 -109.5 -47s-85.5 -17 -135.5 -17zM280.001 -159c0 19.333 6.66895 35.333 20.002 48s29.666 19 48.999 19s35.666 -6.33301 48.999 -19
s20 -28.667 20 -48c0 -11.333 -1.5 -21.833 -4.5 -31.5s-7.83301 -20.834 -14.5 -33.501l-53 -109h-67l29 118c-8.66699 6.66699 -15.5 14.834 -20.5 24.501s-7.5 20.167 -7.5 31.5z" />
    <glyph glyph-name="uni0123" unicode="&#x123;" horiz-adv-x="554" 
d="M148 -30c-2 -5.33301 -3.83301 -11.001 -5.5 -17.001s-2.5 -12.333 -2.5 -19c0 -19.333 9.33301 -34.5 28 -45.5s52 -16.5 100 -16.5c26.667 0 48.667 1.66699 66 5s31 7.66602 41 12.999s17 11.833 21 19.5s6 15.834 6 24.501c0 9.33301 -1.5 17.666 -4.5 24.999
s-9 13.5 -18 18.5s-21.5 9.33301 -37.5 13s-37 6.5 -63 8.5c-36 2.66699 -66.5 6.83398 -91.5 12.501s-45.5 13 -61.5 22s-27.5 20 -34.5 33s-10.5 28.167 -10.5 45.5s4.83301 33.333 14.5 48s23.167 28.334 40.5 41.001c-27.333 16.667 -48.666 37.834 -63.999 63.501
s-23 55.167 -23 88.5c0 27.333 5 52.5 15 75.5s24.5 43 43.5 60s42.5 30.333 70.5 40s59.667 14.5 95 14.5l269 1v-101l-122 25v-4c19.333 -12 35.166 -28.333 47.499 -49s18.5 -44.667 18.5 -72c0 -24.667 -4.66699 -47.667 -14 -69s-23 -39.833 -41 -55.5s-40 -28 -66 -37
s-56 -13.5 -90 -13.5c-20 0 -41.667 2.66699 -65 8c-4.66699 -5.33301 -8.5 -10.5 -11.5 -15.5s-4.5 -10.167 -4.5 -15.5c0 -6 1.33301 -11.333 4 -16s8.83398 -8.66699 18.501 -12s23.5 -6.33301 41.5 -9s42 -5.33398 72 -8.00098c38.667 -3.33301 71 -9.66602 97 -18.999
s46.667 -21 62 -35s26.166 -29.667 32.499 -47s9.5 -35.666 9.5 -54.999c0 -28.667 -6.33301 -53.334 -19 -74.001s-30.5 -37.5 -53.5 -50.5s-50.667 -22.5 -83 -28.5s-67.833 -9 -106.5 -9c-45.333 0 -83.5 3.33301 -114.5 10s-56 16 -75 28s-32.667 26 -41 42
s-12.5 33.333 -12.5 52c0 12 1.5 25.167 4.5 39.5s9.16699 28.166 18.5 41.499zM180 353.999c0 -32 8.00098 -57.168 24.001 -75.501s39 -27.5 69 -27.5s52.5 9.33301 67.5 28s22.5 44.334 22.5 77.001c0 32 -7.5 56.667 -22.5 74s-37.5 26 -67.5 26
c-30.667 0 -53.834 -9.5 -69.501 -28.5s-23.5 -43.5 -23.5 -73.5zM338.001 700.998c0 -19.333 -6.66797 -35.332 -20.001 -47.999s-29.666 -19 -48.999 -19c-18.667 0 -34.667 6.33301 -48 19s-20 28.667 -20 48c0 11.333 1.5 21.833 4.5 31.5s7.5 21.167 13.5 34.5l53 108
h67l-29 -118c9.33301 -6.66699 16.333 -14.834 21 -24.501s7 -20.167 7 -31.5z" />
    <glyph glyph-name="Hcircumflex" unicode="&#x124;" horiz-adv-x="673" 
d="M456 0v310h-239v-310h-132v692h132v-279h239v279h132v-692h-132zM201 757l-48 55l144 121h79l143 -121l-48 -55l-135 83z" />
    <glyph glyph-name="hcircumflex" unicode="&#x125;" horiz-adv-x="585" 
d="M80 0l0.00195312 740.001l128 14v-282c22 23.333 46.667 41 74 53s56 18 86 18c49.333 0 85.166 -13.333 107.499 -40s33.5 -65 33.5 -115v-388h-128v379c0 25.333 -4.83301 43 -14.5 53s-25.834 15 -48.501 15c-22 0 -42.333 -6.83301 -61 -20.5
s-35 -29.834 -49 -48.501v-378h-128zM163.002 789.001l-51 57l143 131h79l143 -131l-51 -57l-131 95z" />
    <glyph glyph-name="Hbar" unicode="&#x126;" horiz-adv-x="693" 
d="M466 0v310h-239v-310h-132v502h-74v85h74v105h132v-105h239v105h132v-105h73v-85h-73v-502h-132zM466 413v89h-239v-89h239z" />
    <glyph glyph-name="hbar" unicode="&#x127;" horiz-adv-x="595" 
d="M90 0l0.00195312 593.001h-76v85h76v62l128 14v-76h149v-85h-149v-121c22 23.333 46.667 41 74 53s56 18 86 18c49.333 0 85.166 -13.333 107.499 -40s33.5 -65 33.5 -115v-388h-128v379c0 25.333 -4.83301 43 -14.5 53s-25.834 15 -48.501 15
c-22 0 -42.333 -6.83301 -61 -20.5s-35 -29.834 -49 -48.501v-378h-128z" />
    <glyph glyph-name="Itilde" unicode="&#x128;" horiz-adv-x="301" 
d="M85 0v692h132v-692h-132zM205 773c-15.333 0 -28.332 2.49902 -38.999 7.49902s-20 10.5 -28 16.5l-22.5 16.5c-7 5 -14.5 7.5 -22.5 7.5c-12.667 0 -22.667 -3.83301 -30 -11.5s-15 -18.5 -23 -32.5l-70 32c5.33301 14 12 27.333 20 40s17.167 23.834 27.5 33.501
s22.166 17.334 35.499 23.001s28 8.5 44 8.5c15.333 0 28.333 -2.5 39 -7.5s20 -10.667 28 -17s15.5 -12 22.5 -17s14.5 -7.5 22.5 -7.5c13.333 0 23.5 3.83301 30.5 11.5s14.5 18.5 22.5 32.5l70 -32c-5.33301 -14 -12 -27.167 -20 -39.5s-17.333 -23.333 -28 -33
s-22.5 -17.334 -35.5 -23.001s-27.5 -8.5 -43.5 -8.5z" />
    <glyph glyph-name="itilde" unicode="&#x129;" horiz-adv-x="277" 
d="M75 0v530h128v-530h-128zM193 643c-15.333 0 -28.333 2.49902 -39 7.49902s-20 10.5 -28 16.5l-22.5 16.5c-7 5 -14.5 7.5 -22.5 7.5c-12.667 0 -22.667 -3.83301 -30 -11.5s-15 -18.5 -23 -32.5l-70 32c11.333 28 27.333 52.5 48 73.5s47 31.5 79 31.5
c15.333 0 28.333 -2.5 39 -7.5s20.167 -10.667 28.5 -17l23 -17c7 -5 14.5 -7.5 22.5 -7.5c12.667 0 22.5 3.83301 29.5 11.5s14.5 18.834 22.5 33.501l70 -32c-11.333 -28 -27.333 -52.5 -48 -73.5s-47 -31.5 -79 -31.5z" />
    <glyph glyph-name="Imacron" unicode="&#x12a;" horiz-adv-x="301" 
d="M85 0v692h132v-692h-132zM299 798h-298v92h298v-92z" />
    <glyph glyph-name="imacron" unicode="&#x12b;" horiz-adv-x="277" 
d="M287 668h-298v92h298v-92zM75 0v530h128v-530h-128z" />
    <glyph glyph-name="Ibreve" unicode="&#x12c;" horiz-adv-x="301" 
d="M85 0v692h132v-692h-132zM149 756c-25.333 0 -47.667 4.33301 -67 13s-36 20.334 -50 35.001s-25.167 31.334 -33.5 50.001s-13.5 37.667 -15.5 57l75 14c12.667 -51.333 43 -77 91 -77c49.333 0 80.333 25.667 93 77l76 -14c-2 -19.333 -7.33301 -38.333 -16 -57
s-20.167 -35.334 -34.5 -50.001s-31.5 -26.334 -51.5 -35.001s-42.333 -13 -67 -13z" />
    <glyph glyph-name="ibreve" unicode="&#x12d;" horiz-adv-x="277" 
d="M138 620c-25.333 0 -47.834 4.66699 -67.501 14s-36.5 21.833 -50.5 37.5s-25.167 33.334 -33.5 53.001s-13.5 39.834 -15.5 60.501l76 14c6.66699 -26 17.5 -47.167 32.5 -63.5s34.5 -24.5 58.5 -24.5s43.833 8.16699 59.5 24.5s26.834 37.5 33.501 63.5l75 -14
c-2 -20.667 -7.33301 -40.834 -16 -60.501s-20 -37.334 -34 -53.001s-31 -28.167 -51 -37.5s-42.333 -14 -67 -14zM74.999 0v530h128v-530h-128z" />
    <glyph glyph-name="Iogonek" unicode="&#x12e;" horiz-adv-x="301" 
d="M217 0c-19.333 -11.333 -35.166 -22.498 -47.499 -33.498s-21.833 -22 -28.5 -33s-11.167 -21.5 -13.5 -31.5s-3.5 -19 -3.5 -27c0 -14.667 4.66699 -26.667 14 -36s24.333 -14 45 -14c13.333 0 25.666 1.66699 36.999 5s20.333 6.66602 27 9.99902l30 -65
c-33.333 -17.333 -69.333 -26 -108 -26c-44.667 0 -79.167 10.333 -103.5 31s-36.5 49.667 -36.5 87c0 25.333 8.66699 49.666 26 72.999s41 43.333 71 60h-41v692h132v-692z" />
    <glyph glyph-name="iogonek" unicode="&#x12f;" horiz-adv-x="277" 
d="M203 -1c-19.333 -11.333 -35 -22.4961 -47 -33.4961s-21.333 -21.833 -28 -32.5s-11.167 -20.834 -13.5 -30.501s-3.5 -18.834 -3.5 -27.501c0 -14.667 4.5 -26.667 13.5 -36s24.167 -14 45.5 -14c13.333 0 25.666 1.66699 36.999 5s20.333 6.66602 27 9.99902l30 -65
c-33.333 -17.333 -69.666 -26 -108.999 -26c-44 0 -78.167 10.333 -102.5 31s-36.5 49.667 -36.5 87c0 25.333 8.5 49.666 25.5 72.999s40.5 43.333 70.5 60h-37v530h128v-531zM222 724.004c0 -23.333 -7.66699 -42.666 -23 -57.999s-35.333 -23 -60 -23
c-25.333 0 -45.666 7.66699 -60.999 23s-23 34.666 -23 57.999c0 22.667 7.66699 41.834 23 57.501s35.666 23.5 60.999 23.5c24.667 0 44.667 -7.83301 60 -23.5s23 -34.834 23 -57.501z" />
    <glyph glyph-name="Idotaccent" unicode="&#x130;" horiz-adv-x="301" 
d="M85 0v692h132v-692h-132zM234 853c0 -22.667 -7.66699 -41.834 -23 -57.501s-35.666 -23.5 -60.999 -23.5c-24.667 0 -44.667 7.83301 -60 23.5s-23 34.834 -23 57.501c0 23.333 7.66699 42.666 23 57.999s35.333 23 60 23c25.333 0 45.666 -7.66699 60.999 -23
s23 -34.666 23 -57.999z" />
    <glyph glyph-name="dotlessi" unicode="&#x131;" horiz-adv-x="277" 
d="M75 0v530h128v-530h-128z" />
    <glyph glyph-name="IJ" unicode="&#x132;" horiz-adv-x="612" 
d="M85 0v692h132v-692h-132zM293 -42c22 8.66699 39.999 17.666 53.999 26.999s24.667 20.333 32 33s12.333 27.334 15 44.001s4 36.667 4 60v570h132v-577c0 -40 -5.33301 -74.333 -16 -103s-25.167 -53 -43.5 -73s-39.666 -36.5 -63.999 -49.5s-50.5 -23.833 -78.5 -32.5z
" />
    <glyph glyph-name="ij" unicode="&#x133;" horiz-adv-x="555" 
d="M222 724c0 -23.333 -7.66699 -42.666 -23 -57.999s-35.333 -23 -60 -23c-25.333 0 -45.666 7.66699 -60.999 23s-23 34.666 -23 57.999c0 22.667 7.66699 41.834 23 57.501s35.666 23.5 60.999 23.5c24.667 0 44.667 -7.83301 60 -23.5s23 -34.834 23 -57.501zM75 0v530
h128v-530h-128zM247 -126c16.667 8 31.499 15.833 44.499 23.5s24 17.5 33 29.5s15.833 26.667 20.5 44s7 39.333 7 66v493h128v-481c0 -41.333 -4.33301 -76.333 -13 -105s-21.167 -53 -37.5 -73s-36.166 -37 -59.499 -51s-49.333 -26.667 -78 -38zM498.999 724
c0 -23.333 -7.66699 -42.666 -23 -57.999s-35.333 -23 -60 -23c-25.333 0 -45.666 7.66699 -60.999 23s-23 34.666 -23 57.999c0 22.667 7.66699 41.834 23 57.501s35.666 23.5 60.999 23.5c24.667 0 44.667 -7.83301 60 -23.5s23 -34.834 23 -57.501z" />
    <glyph glyph-name="Jcircumflex" unicode="&#x134;" horiz-adv-x="310" 
d="M-8 -42c22 8.66699 39.999 17.666 53.999 26.999s24.667 20.333 32 33s12.333 27.334 15 44.001s4 36.667 4 60v570h132v-577c0 -40 -5.33301 -74.333 -16 -103s-25.167 -53 -43.5 -73s-39.666 -36.5 -63.999 -49.5s-50.5 -23.833 -78.5 -32.5zM23.999 756.999l-48 55
l144 121h79l143 -121l-48 -55l-135 83z" />
    <glyph glyph-name="jcircumflex" unicode="&#x135;" horiz-adv-x="277" 
d="M7 620l-51 57l143 131h79l143 -131l-51 -57l-131 95zM-29 -126c16.667 8 31.499 15.833 44.499 23.5s23.833 17.5 32.5 29.5s15.334 26.667 20.001 44s7 39.333 7 66v493h128v-481c0 -41.333 -4.33301 -76.333 -13 -105s-21.167 -53 -37.5 -73s-36 -37 -59 -51
s-48.833 -26.667 -77.5 -38z" />
    <glyph glyph-name="uni0136" unicode="&#x136;" horiz-adv-x="623" 
d="M217 0h-132v692h132v-692zM223 369l238 323h144l-238 -313l258 -379h-157zM251 -159c0 19.333 6.66895 35.333 20.002 48s29.666 19 48.999 19s35.666 -6.33301 48.999 -19s20 -28.667 20 -48c0 -11.333 -1.66699 -21.833 -5 -31.5s-8 -20.834 -14 -33.501l-52 -109h-67
l28 118c-8.66699 6.66699 -15.5 14.834 -20.5 24.501s-7.5 20.167 -7.5 31.5z" />
    <glyph glyph-name="uni0137" unicode="&#x137;" horiz-adv-x="541" 
d="M80 0v741l127 14v-755h-127zM213 290l179 240h135l-177 -231l193 -299h-149zM217 -159c0 19.333 6.66895 35.333 20.002 48s29.666 19 48.999 19s35.666 -6.33301 48.999 -19s20 -28.667 20 -48c0 -11.333 -1.5 -21.833 -4.5 -31.5s-7.83301 -20.834 -14.5 -33.501
l-53 -109h-67l29 118c-8.66699 6.66699 -15.5 14.834 -20.5 24.501s-7.5 20.167 -7.5 31.5z" />
    <glyph glyph-name="kgreenlandic" unicode="&#x138;" horiz-adv-x="542" 
d="M207 0h-127v530h127v-530zM527 530l-175 -242l191 -288h-149l-181 280l179 250h135z" />
    <glyph glyph-name="Lacute" unicode="&#x139;" horiz-adv-x="514" 
d="M85 0v692h132v-586h279l-14 -106h-397zM43 817l205 125l57 -94l-225 -94z" />
    <glyph glyph-name="lacute" unicode="&#x13a;" horiz-adv-x="296" 
d="M289 5c-12.667 -5.33301 -26.5 -9.66797 -41.5 -13.001s-30.167 -5 -45.5 -5c-36 0 -66.167 10.833 -90.5 32.5s-36.5 55.834 -36.5 102.501v619l128 14v-626c0 -15.333 2.5 -25.833 7.5 -31.5s12.167 -8.5 21.5 -8.5s19 1.66699 29 5zM18 846.998l203 132l57 -95
l-222 -101z" />
    <glyph glyph-name="uni013B" unicode="&#x13b;" horiz-adv-x="514" 
d="M85 0v692h132v-586h279l-14 -106h-397zM205 -159c0 19.333 6.66895 35.333 20.002 48s29.666 19 48.999 19s35.666 -6.33301 48.999 -19s20 -28.667 20 -48c0 -11.333 -1.66699 -21.833 -5 -31.5s-8 -20.834 -14 -33.501l-52 -109h-67l28 118
c-8.66699 6.66699 -15.5 14.834 -20.5 24.501s-7.5 20.167 -7.5 31.5z" />
    <glyph glyph-name="uni013C" unicode="&#x13c;" horiz-adv-x="296" 
d="M289 5c-12.667 -5.33301 -26.5 -9.66797 -41.5 -13.001s-30.167 -5 -45.5 -5c-36 0 -66.167 10.833 -90.5 32.5s-36.5 55.834 -36.5 102.501v619l128 14v-626c0 -15.333 2.5 -25.833 7.5 -31.5s12.167 -8.5 21.5 -8.5s19 1.66699 29 5zM102 -159.002
c0 19.333 6.66895 35.333 20.002 48s29.666 19 48.999 19s35.666 -6.33301 48.999 -19s20 -28.667 20 -48c0 -11.333 -1.5 -21.833 -4.5 -31.5s-7.83301 -20.834 -14.5 -33.501l-53 -109h-67l29 118c-8.66699 6.66699 -15.5 14.834 -20.5 24.501s-7.5 20.167 -7.5 31.5z" />
    <glyph glyph-name="Lcaron" unicode="&#x13d;" horiz-adv-x="514" 
d="M85 0v692h132v-586h279l-14 -106h-397zM319 632c0 18.667 6.66895 34.499 20.002 47.499s29.666 19.5 48.999 19.5s35.666 -6.5 48.999 -19.5s20 -28.833 20 -47.5c0 -11.333 -1.66699 -22 -5 -32s-8 -21.333 -14 -34l-52 -108h-67l28 118
c-8.66699 6.66699 -15.5 14.834 -20.5 24.501s-7.5 20.167 -7.5 31.5z" />
    <glyph glyph-name="lcaron" unicode="&#x13e;" horiz-adv-x="344" 
d="M289 5c-12.667 -5.33301 -26.5 -9.66797 -41.5 -13.001s-30.167 -5 -45.5 -5c-36 0 -66.167 10.833 -90.5 32.5s-36.5 55.834 -36.5 102.501v619l128 14v-626c0 -15.333 2.5 -25.833 7.5 -31.5s12.167 -8.5 21.5 -8.5s19 1.66699 29 5zM262 758.998
c0 18.667 6.66895 34.499 20.002 47.499s29.666 19.5 48.999 19.5s35.666 -6.5 48.999 -19.5s20 -28.833 20 -47.5c0 -11.333 -1.66699 -22 -5 -32s-8 -21.333 -14 -34l-52 -108h-67l28 118c-8.66699 6.66699 -15.5 14.834 -20.5 24.501s-7.5 20.167 -7.5 31.5z" />
    <glyph glyph-name="Ldot" unicode="&#x13f;" horiz-adv-x="514" 
d="M85 0v692h132v-586h279l-14 -106h-397zM480 370c0 -23.333 -7.66699 -42.666 -23 -57.999s-35.333 -23 -60 -23c-25.333 0 -45.666 7.66699 -60.999 23s-23 34.666 -23 57.999c0 22.667 7.66699 41.834 23 57.501s35.666 23.5 60.999 23.5
c24.667 0 44.667 -7.83301 60 -23.5s23 -34.834 23 -57.501z" />
    <glyph glyph-name="ldot" unicode="&#x140;" horiz-adv-x="410" 
d="M289 5c-12.667 -5.33301 -26.5 -9.66797 -41.5 -13.001s-30.167 -5 -45.5 -5c-36 0 -66.167 10.833 -90.5 32.5s-36.5 55.834 -36.5 102.501v619l128 14v-626c0 -15.333 2.5 -25.833 7.5 -31.5s12.167 -8.5 21.5 -8.5s19 1.66699 29 5zM425 363.998
c0 -23.333 -7.66699 -42.666 -23 -57.999s-35.333 -23 -60 -23c-25.333 0 -45.666 7.66699 -60.999 23s-23 34.666 -23 57.999c0 22.667 7.66699 41.834 23 57.501s35.666 23.5 60.999 23.5c24.667 0 44.667 -7.83301 60 -23.5s23 -34.834 23 -57.501z" />
    <glyph glyph-name="Lslash" unicode="&#x141;" horiz-adv-x="529" 
d="M95 0v243l-50 -31l-49 77l99 62v341h132v-260l136 85l49 -77l-185 -116v-218h279l-14 -106h-397z" />
    <glyph glyph-name="lslash" unicode="&#x142;" horiz-adv-x="316" 
d="M299 5c-12.667 -5.33301 -26.5 -9.66797 -41.5 -13.001s-30.167 -5 -45.5 -5c-36 0 -66.167 10.833 -90.5 32.5s-36.5 55.834 -36.5 102.501v155l-42 -26l-50 79l92 56v355l128 14v-291l59 36l50 -79l-109 -66v-226c0 -15.333 2.5 -25.833 7.5 -31.5
s12.167 -8.5 21.5 -8.5s19 1.66699 29 5z" />
    <glyph glyph-name="Nacute" unicode="&#x143;" horiz-adv-x="675" 
d="M414 0l-221.999 541.001h-4c2 -24.667 4.33301 -50.334 7 -77.001c2 -23.333 3.83301 -49.333 5.5 -78s2.5 -57.667 2.5 -87v-299h-118v692h173l228 -542h4c-2.66699 21.333 -5.33398 45 -8.00098 71c-2 22 -3.83301 47.5 -5.5 76.5s-2.5 59.833 -2.5 92.5v302h117v-692
h-177zM226.001 817.001l205 125l57 -94l-225 -94z" />
    <glyph glyph-name="nacute" unicode="&#x144;" horiz-adv-x="585" 
d="M80 0v530.001h110l11 -64c22.667 25.333 48.5 44.5 77.5 57.5s58.833 19.5 89.5 19.5c49.333 0 85.166 -13.333 107.499 -40s33.5 -65 33.5 -115v-388h-128v373c0 28 -4.66699 47.333 -14 58s-25.666 16 -48.999 16c-22 0 -42.333 -6.83301 -61 -20.5
s-35 -29.834 -49 -48.501v-378h-128zM182 681.001l203 132l57 -95l-222 -101z" />
    <glyph glyph-name="uni0145" unicode="&#x145;" horiz-adv-x="675" 
d="M414 0l-221.999 541.001h-4c2 -24.667 4.33301 -50.334 7 -77.001c2 -23.333 3.83301 -49.333 5.5 -78s2.5 -57.667 2.5 -87v-299h-118v692h173l228 -542h4c-2.66699 21.333 -5.33398 45 -8.00098 71c-2 22 -3.83301 47.5 -5.5 76.5s-2.5 59.833 -2.5 92.5v302h117v-692
h-177zM273.001 -158.999c0 19.333 6.66895 35.333 20.002 48s29.666 19 48.999 19s35.666 -6.33301 48.999 -19s20 -28.667 20 -48c0 -11.333 -1.66699 -21.833 -5 -31.5s-8 -20.834 -14 -33.501l-52 -109h-67l28 118c-8.66699 6.66699 -15.5 14.834 -20.5 24.501
s-7.5 20.167 -7.5 31.5z" />
    <glyph glyph-name="uni0146" unicode="&#x146;" horiz-adv-x="585" 
d="M80 0v530.001h110l11 -64c22.667 25.333 48.5 44.5 77.5 57.5s58.833 19.5 89.5 19.5c49.333 0 85.166 -13.333 107.499 -40s33.5 -65 33.5 -115v-388h-128v373c0 28 -4.66699 47.333 -14 58s-25.666 16 -48.999 16c-22 0 -42.333 -6.83301 -61 -20.5
s-35 -29.834 -49 -48.501v-378h-128zM225 -158.999c0 19.333 6.66895 35.333 20.002 48s29.666 19 48.999 19s35.666 -6.33301 48.999 -19s20 -28.667 20 -48c0 -11.333 -1.5 -21.833 -4.5 -31.5s-7.83301 -20.834 -14.5 -33.501l-53 -109h-67l29 118
c-8.66699 6.66699 -15.5 14.834 -20.5 24.501s-7.5 20.167 -7.5 31.5z" />
    <glyph glyph-name="Ncaron" unicode="&#x147;" horiz-adv-x="675" 
d="M414 0l-221.999 541.001h-4c2 -24.667 4.33301 -50.334 7 -77.001c2 -23.333 3.83301 -49.333 5.5 -78s2.5 -57.667 2.5 -87v-299h-118v692h173l228 -542h4c-2.66699 21.333 -5.33398 45 -8.00098 71c-2 22 -3.83301 47.5 -5.5 76.5s-2.5 59.833 -2.5 92.5v302h117v-692
h-177zM334.001 850.001l135 83l48 -54l-143 -122h-79l-144 122l48 54z" />
    <glyph glyph-name="ncaron" unicode="&#x148;" horiz-adv-x="585" 
d="M80 0v530.001h110l11 -64c22.667 25.333 48.5 44.5 77.5 57.5s58.833 19.5 89.5 19.5c49.333 0 85.166 -13.333 107.499 -40s33.5 -65 33.5 -115v-388h-128v373c0 28 -4.66699 47.333 -14 58s-25.666 16 -48.999 16c-22 0 -42.333 -6.83301 -61 -20.5
s-35 -29.834 -49 -48.501v-378h-128zM306 714.001l131 94l51 -57l-143 -131h-79l-143 131l51 57z" />
    <glyph glyph-name="napostrophe" unicode="&#x149;" horiz-adv-x="585" 
d="M80 0v530.001h110l11 -64c22.667 25.333 48.5 44.5 77.5 57.5s58.833 19.5 89.5 19.5c49.333 0 85.166 -13.333 107.499 -40s33.5 -65 33.5 -115v-388h-128v373c0 28 -4.66699 47.333 -14 58s-25.666 16 -48.999 16c-22 0 -42.333 -6.83301 -61 -20.5
s-35 -29.834 -49 -48.501v-378h-128zM14 809.001c0 18.667 6.66895 34.499 20.002 47.499s29.666 19.5 48.999 19.5s35.666 -6.5 48.999 -19.5s20 -28.833 20 -47.5c0 -11.333 -1.66699 -22 -5 -32s-8 -21.333 -14 -34l-52 -108h-67l28 118
c-8.66699 6.66699 -15.5 14.834 -20.5 24.501s-7.5 20.167 -7.5 31.5z" />
    <glyph glyph-name="Eng" unicode="&#x14a;" horiz-adv-x="675" 
d="M591 -4c0 -28.667 -4.83301 -54.4971 -14.5 -77.4971s-23 -43.167 -40 -60.5s-37.333 -32.333 -61 -45s-49.5 -23.334 -77.5 -32.001l-34 98c20.667 8 37.834 16.167 51.501 24.5s24.167 17.166 31.5 26.499s12.5 19.333 15.5 30s4.5 22.667 4.5 36v4h-53l-222 541h-4
c2 -24.667 4.33301 -50.334 7 -77.001c2 -23.333 3.83301 -49.333 5.5 -78s2.5 -57.667 2.5 -87v-299h-118v692h173l228 -542h4c-2.66699 21.333 -5.33398 45 -8.00098 71c-2 22 -3.83301 47.5 -5.5 76.5s-2.5 59.833 -2.5 92.5v302h117v-696z" />
    <glyph glyph-name="eng" unicode="&#x14b;" horiz-adv-x="585" 
d="M509 45c0 -40 -4.49805 -73.999 -13.498 -101.999s-21.833 -52 -38.5 -72s-36.334 -37 -59.001 -51s-48 -26.667 -76 -38l-45 92c16.667 8 31.5 15.833 44.5 23.5s23.833 17.5 32.5 29.5s15.334 26.667 20.001 44s7 39.333 7 66v342c0 25.333 -4.83301 43 -14.5 53
s-25.834 15 -48.501 15c-22 0 -42.333 -6.83301 -61 -20.5s-35 -29.834 -49 -48.501v-378h-128v530h110l11 -64c22.667 25.333 48.5 44.5 77.5 57.5s58.833 19.5 89.5 19.5c49.333 0 85.166 -13.333 107.499 -40s33.5 -65 33.5 -115v-343z" />
    <glyph glyph-name="Omacron" unicode="&#x14c;" horiz-adv-x="703" 
d="M653 346c0 -57.333 -7.16699 -108.331 -21.5 -152.998s-34.5 -82.334 -60.5 -113.001s-57.5 -53.834 -94.5 -69.501s-78.5 -23.5 -124.5 -23.5s-87.667 7.66699 -125 23s-69 38.166 -95 68.499s-46.167 67.833 -60.5 112.5s-21.5 96.334 -21.5 155.001
c0 57.333 7.16699 108.333 21.5 153s34.5 82.167 60.5 112.5s57.667 53.5 95 69.5s79 24 125 24s87.5 -7.66699 124.5 -23s68.5 -38.166 94.5 -68.499s46.167 -67.833 60.5 -112.5s21.5 -96.334 21.5 -155.001zM515 346.002c0 46.667 -3.66602 86.334 -10.999 119.001
s-18 59.334 -32 80.001s-31 35.5 -51 44.5s-43 13.5 -69 13.5s-49.167 -4.5 -69.5 -13.5s-37.5 -23.833 -51.5 -44.5s-24.667 -47.334 -32 -80.001s-11 -72.334 -11 -119.001c0 -47.333 3.83301 -87.166 11.5 -119.499s18.5 -58.833 32.5 -79.5s31.167 -35.5 51.5 -44.5
s43.166 -13.5 68.499 -13.5c26 0 49 4.5 69 13.5s37 23.833 51 44.5s24.667 47.167 32 79.5s11 72.166 11 119.499zM500.001 798.002h-298v92h298v-92z" />
    <glyph glyph-name="omacron" unicode="&#x14d;" horiz-adv-x="587" 
d="M407 265c0 64 -9.66699 110 -29 138s-47.333 42 -84 42c-37.333 0 -65.666 -14 -84.999 -42s-29 -74 -29 -138s9.66699 -110 29 -138s47.666 -42 84.999 -42c36.667 0 64.667 14 84 42s29 74 29 138zM45 265c0 40 5.5 77 16.5 111s27.167 63.333 48.5 88s47.333 44 78 58
s66 21 106 21s75.333 -6.83301 106 -20.5s56.5 -32.667 77.5 -57s37 -53.666 48 -87.999s16.5 -71.833 16.5 -112.5c0 -41.333 -5.5 -79 -16.5 -113s-27 -63.333 -48 -88s-46.833 -43.667 -77.5 -57s-66 -20 -106 -20s-75.5 6.5 -106.5 19.5s-57 31.667 -78 56
s-37 53.666 -48 87.999s-16.5 72.5 -16.5 114.5zM442 668h-298v92h298v-92z" />
    <glyph glyph-name="Obreve" unicode="&#x14e;" horiz-adv-x="703" 
d="M653 346c0 -57.333 -7.16699 -108.331 -21.5 -152.998s-34.5 -82.334 -60.5 -113.001s-57.5 -53.834 -94.5 -69.501s-78.5 -23.5 -124.5 -23.5s-87.667 7.66699 -125 23s-69 38.166 -95 68.499s-46.167 67.833 -60.5 112.5s-21.5 96.334 -21.5 155.001
c0 57.333 7.16699 108.333 21.5 153s34.5 82.167 60.5 112.5s57.667 53.5 95 69.5s79 24 125 24s87.5 -7.66699 124.5 -23s68.5 -38.166 94.5 -68.499s46.167 -67.833 60.5 -112.5s21.5 -96.334 21.5 -155.001zM515 346.002c0 46.667 -3.66602 86.334 -10.999 119.001
s-18 59.334 -32 80.001s-31 35.5 -51 44.5s-43 13.5 -69 13.5s-49.167 -4.5 -69.5 -13.5s-37.5 -23.833 -51.5 -44.5s-24.667 -47.334 -32 -80.001s-11 -72.334 -11 -119.001c0 -47.333 3.83301 -87.166 11.5 -119.499s18.5 -58.833 32.5 -79.5s31.167 -35.5 51.5 -44.5
s43.166 -13.5 68.499 -13.5c26 0 49 4.5 69 13.5s37 23.833 51 44.5s24.667 47.167 32 79.5s11 72.166 11 119.499zM350.001 756.002c-25.333 0 -47.667 4.33301 -67 13s-36 20.334 -50 35.001s-25.167 31.334 -33.5 50.001s-13.5 37.667 -15.5 57l75 14
c12.667 -51.333 43 -77 91 -77c49.333 0 80.333 25.667 93 77l76 -14c-2 -19.333 -7.33301 -38.333 -16 -57s-20.167 -35.334 -34.5 -50.001s-31.5 -26.334 -51.5 -35.001s-42.333 -13 -67 -13z" />
    <glyph glyph-name="obreve" unicode="&#x14f;" horiz-adv-x="587" 
d="M407 265c0 64 -9.66699 110 -29 138s-47.333 42 -84 42c-37.333 0 -65.666 -14 -84.999 -42s-29 -74 -29 -138s9.66699 -110 29 -138s47.666 -42 84.999 -42c36.667 0 64.667 14 84 42s29 74 29 138zM45 265c0 40 5.5 77 16.5 111s27.167 63.333 48.5 88s47.333 44 78 58
s66 21 106 21s75.333 -6.83301 106 -20.5s56.5 -32.667 77.5 -57s37 -53.666 48 -87.999s16.5 -71.833 16.5 -112.5c0 -41.333 -5.5 -79 -16.5 -113s-27 -63.333 -48 -88s-46.833 -43.667 -77.5 -57s-66 -20 -106 -20s-75.5 6.5 -106.5 19.5s-57 31.667 -78 56
s-37 53.666 -48 87.999s-16.5 72.5 -16.5 114.5zM293 620c-25.333 0 -47.834 4.66699 -67.501 14s-36.5 21.833 -50.5 37.5s-25.167 33.334 -33.5 53.001s-13.5 39.834 -15.5 60.501l76 14c6.66699 -26 17.5 -47.167 32.5 -63.5s34.5 -24.5 58.5 -24.5
s43.833 8.16699 59.5 24.5s26.834 37.5 33.501 63.5l75 -14c-2 -20.667 -7.33301 -40.834 -16 -60.501s-20 -37.334 -34 -53.001s-31 -28.167 -51 -37.5s-42.333 -14 -67 -14z" />
    <glyph glyph-name="Ohungarumlaut" unicode="&#x150;" horiz-adv-x="703" 
d="M653 346c0 -57.333 -7.16699 -108.331 -21.5 -152.998s-34.5 -82.334 -60.5 -113.001s-57.5 -53.834 -94.5 -69.501s-78.5 -23.5 -124.5 -23.5s-87.667 7.66699 -125 23s-69 38.166 -95 68.499s-46.167 67.833 -60.5 112.5s-21.5 96.334 -21.5 155.001
c0 57.333 7.16699 108.333 21.5 153s34.5 82.167 60.5 112.5s57.667 53.5 95 69.5s79 24 125 24s87.5 -7.66699 124.5 -23s68.5 -38.166 94.5 -68.499s46.167 -67.833 60.5 -112.5s21.5 -96.334 21.5 -155.001zM515 346.002c0 46.667 -3.66602 86.334 -10.999 119.001
s-18 59.334 -32 80.001s-31 35.5 -51 44.5s-43 13.5 -69 13.5s-49.167 -4.5 -69.5 -13.5s-37.5 -23.833 -51.5 -44.5s-24.667 -47.334 -32 -80.001s-11 -72.334 -11 -119.001c0 -47.333 3.83301 -87.166 11.5 -119.499s18.5 -58.833 32.5 -79.5s31.167 -35.5 51.5 -44.5
s43.166 -13.5 68.499 -13.5c26 0 49 4.5 69 13.5s37 23.833 51 44.5s24.667 47.167 32 79.5s11 72.166 11 119.499zM222.001 801.002l84 182l96 -45l-107 -167zM400.001 801.002l94 181l94 -48l-116 -166z" />
    <glyph glyph-name="ohungarumlaut" unicode="&#x151;" horiz-adv-x="587" 
d="M407 265c0 64 -9.66699 110 -29 138s-47.333 42 -84 42c-37.333 0 -65.666 -14 -84.999 -42s-29 -74 -29 -138s9.66699 -110 29 -138s47.666 -42 84.999 -42c36.667 0 64.667 14 84 42s29 74 29 138zM45 265c0 40 5.5 77 16.5 111s27.167 63.333 48.5 88s47.333 44 78 58
s66 21 106 21s75.333 -6.83301 106 -20.5s56.5 -32.667 77.5 -57s37 -53.666 48 -87.999s16.5 -71.833 16.5 -112.5c0 -41.333 -5.5 -79 -16.5 -113s-27 -63.333 -48 -88s-46.833 -43.667 -77.5 -57s-66 -20 -106 -20s-75.5 6.5 -106.5 19.5s-57 31.667 -78 56
s-37 53.666 -48 87.999s-16.5 72.5 -16.5 114.5zM129 667l84 189l94 -45l-107 -177zM306 667l93 188l92 -47l-116 -177z" />
    <glyph glyph-name="OE" unicode="&#x152;" horiz-adv-x="928" 
d="M573 593c16.667 -24.667 29.333 -53.167 38 -85.5s14.334 -68.5 17.001 -108.5h200v-99h-200c-4 -84.667 -23.333 -151.667 -58 -201h313v-99h-443c-26.667 -8.66699 -57.334 -13 -92.001 -13c-43.333 0 -83 7.66699 -119 23s-67 38.166 -93 68.499
s-46.167 67.833 -60.5 112.5s-21.5 96.334 -21.5 155.001c0 57.333 7.33301 108.333 22 153s35 82.167 61 112.5s57 53.5 93 69.5s75.333 24 118 24c34.667 0 66 -4.33301 94 -13h433l-14 -99h-288zM498.999 346c0 46.667 -2.99805 86.334 -8.99805 119.001
s-15.333 59.334 -28 80.001s-28.334 35.5 -47.001 44.5s-41 13.5 -67 13.5c-23.333 0 -44.5 -4.5 -63.5 -13.5s-35.333 -23.833 -49 -44.5s-24.334 -47.334 -32.001 -80.001s-11.5 -72.334 -11.5 -119.001c0 -47.333 3.83301 -87.166 11.5 -119.499s18.5 -58.833 32.5 -79.5
s30.5 -35.5 49.5 -44.5s39.833 -13.5 62.5 -13.5c28 0 51.5 4.5 70.5 13.5s34.5 23.833 46.5 44.5s20.667 47.167 26 79.5s8 72.166 8 119.499z" />
    <glyph glyph-name="oe" unicode="&#x153;" horiz-adv-x="891" 
d="M46 265c0 40 5.49805 76.9971 16.498 110.997s26.833 63.333 47.5 88s46 44 76 58s64.333 21 103 21c42 0 77.5 -8.5 106.5 -25.5s52.833 -40.5 71.5 -70.5c17.333 28.667 39.166 51.834 65.499 69.501s58.833 26.5 97.5 26.5c72.667 0 128.334 -23.333 167.001 -70
s58 -112 58 -196c0 -9.33301 -0.166992 -18.666 -0.5 -27.999s-0.833008 -17.666 -1.5 -24.999h-326c5.33301 -49.333 19 -84.833 41 -106.5s51 -32.5 87 -32.5c21.333 0 41.833 3.33301 61.5 10s41.167 18.667 64.5 36l55 -81c-25.333 -19.333 -53.833 -34.833 -85.5 -46.5
s-65.5 -17.5 -101.5 -17.5c-46 0 -83.667 8.33301 -113 25s-52.666 39.334 -69.999 68.001c-19.333 -29.333 -43.166 -52 -71.499 -68s-63.5 -24 -105.5 -24c-38.667 0 -73 6.5 -103 19.5s-55.333 31.667 -76 56s-36.5 53.666 -47.5 87.999s-16.5 72.5 -16.5 114.5z
M404.998 264.997c0 64 -9.5 110 -28.5 138s-47.167 42 -84.5 42c-36.667 0 -64.167 -14 -82.5 -42s-27.5 -74 -27.5 -138s9.16699 -110 27.5 -138s45.833 -42 82.5 -42s64.667 14 84 42s29 74 29 138zM628.998 447.997c-30 0 -53.666 -11 -70.999 -33s-28 -57.333 -32 -106
h204c-1.33301 45.333 -9.83301 79.833 -25.5 103.5s-40.834 35.5 -75.501 35.5z" />
    <glyph glyph-name="Racute" unicode="&#x154;" horiz-adv-x="613" 
d="M559 488c0 -50 -14 -90.999 -42 -122.999s-63 -54.667 -105 -68l189 -297h-154l-164 277h-66v-277h-132v692h199c89.333 0 157.5 -16.833 204.5 -50.5s70.5 -84.834 70.5 -153.501zM421 487.001c0 36.667 -10.167 63.833 -30.5 81.5s-52.833 26.5 -97.5 26.5h-76v-222h80
c40.667 0 71.5 9 92.5 27s31.5 47 31.5 87zM179 817l205 125l57 -94l-225 -94z" />
    <glyph glyph-name="racute" unicode="&#x155;" horiz-adv-x="395" 
d="M77 0v530.001h114l11 -97c15.333 34.667 34.833 61.167 58.5 79.5s50.5 27.5 80.5 27.5c8 0 16.5 -0.333008 25.5 -1s17.5 -2.33398 25.5 -5.00098l-22 -123c-8.66699 2.66699 -16 4.5 -22 5.5s-14 1.5 -24 1.5c-16 0 -30.5 -3.66699 -43.5 -11s-24.5 -17 -34.5 -29
s-18.333 -26 -25 -42s-12 -32.333 -16 -49v-287h-128zM93 681.001l203 132l57 -95l-222 -101z" />
    <glyph glyph-name="uni0156" unicode="&#x156;" horiz-adv-x="613" 
d="M559 488c0 -50 -14 -90.999 -42 -122.999s-63 -54.667 -105 -68l189 -297h-154l-164 277h-66v-277h-132v692h199c89.333 0 157.5 -16.833 204.5 -50.5s70.5 -84.834 70.5 -153.501zM421 487.001c0 36.667 -10.167 63.833 -30.5 81.5s-52.833 26.5 -97.5 26.5h-76v-222h80
c40.667 0 71.5 9 92.5 27s31.5 47 31.5 87zM238 -159c0 19.333 6.66895 35.333 20.002 48s29.666 19 48.999 19s35.666 -6.33301 48.999 -19s20 -28.667 20 -48c0 -11.333 -1.66699 -21.833 -5 -31.5s-8 -20.834 -14 -33.501l-52 -109h-67l28 118
c-8.66699 6.66699 -15.5 14.834 -20.5 24.501s-7.5 20.167 -7.5 31.5z" />
    <glyph glyph-name="uni0157" unicode="&#x157;" horiz-adv-x="395" 
d="M77 0v530.001h114l11 -97c15.333 34.667 34.833 61.167 58.5 79.5s50.5 27.5 80.5 27.5c8 0 16.5 -0.333008 25.5 -1s17.5 -2.33398 25.5 -5.00098l-22 -123c-8.66699 2.66699 -16 4.5 -22 5.5s-14 1.5 -24 1.5c-16 0 -30.5 -3.66699 -43.5 -11s-24.5 -17 -34.5 -29
s-18.333 -26 -25 -42s-12 -32.333 -16 -49v-287h-128zM77 -158.999c0 19.333 6.66895 35.333 20.002 48s29.666 19 48.999 19s35.666 -6.33301 48.999 -19s20 -28.667 20 -48c0 -11.333 -1.5 -21.833 -4.5 -31.5s-7.83301 -20.834 -14.5 -33.501l-53 -109h-67l29 118
c-8.66699 6.66699 -15.5 14.834 -20.5 24.501s-7.5 20.167 -7.5 31.5z" />
    <glyph glyph-name="Rcaron" unicode="&#x158;" horiz-adv-x="613" 
d="M559 488c0 -50 -14 -90.999 -42 -122.999s-63 -54.667 -105 -68l189 -297h-154l-164 277h-66v-277h-132v692h199c89.333 0 157.5 -16.833 204.5 -50.5s70.5 -84.834 70.5 -153.501zM421 487.001c0 36.667 -10.167 63.833 -30.5 81.5s-52.833 26.5 -97.5 26.5h-76v-222h80
c40.667 0 71.5 9 92.5 27s31.5 47 31.5 87zM296 850l135 83l48 -54l-143 -122h-79l-144 122l48 54z" />
    <glyph glyph-name="rcaron" unicode="&#x159;" horiz-adv-x="395" 
d="M77 0v530.001h114l11 -97c15.333 34.667 34.833 61.167 58.5 79.5s50.5 27.5 80.5 27.5c8 0 16.5 -0.333008 25.5 -1s17.5 -2.33398 25.5 -5.00098l-22 -123c-8.66699 2.66699 -16 4.5 -22 5.5s-14 1.5 -24 1.5c-16 0 -30.5 -3.66699 -43.5 -11s-24.5 -17 -34.5 -29
s-18.333 -26 -25 -42s-12 -32.333 -16 -49v-287h-128zM213 714.001l131 94l51 -57l-143 -131h-79l-143 131l51 57z" />
    <glyph glyph-name="Sacute" unicode="&#x15a;" horiz-adv-x="560" 
d="M528 198c0 -31.333 -5.83105 -60.001 -17.498 -86.001s-28.5 -48.333 -50.5 -67s-49.167 -33 -81.5 -43s-68.833 -15 -109.5 -15c-54 0 -102.167 8.66699 -144.5 26s-77.833 40.333 -106.5 69l72 83c23.333 -22 49.166 -39.667 77.499 -53s60.833 -20 97.5 -20
c17.333 0 33.666 2 48.999 6s28.833 10 40.5 18s20.834 18.167 27.501 30.5s10 27.166 10 44.499c0 13.333 -1.83301 25.166 -5.5 35.499s-10.5 20 -20.5 29s-23.5 17.333 -40.5 25s-38.833 15.5 -65.5 23.5c-36.667 11.333 -68.334 23.833 -95.001 37.5s-48.667 29 -66 46
s-30.166 36 -38.499 57s-12.5 44.833 -12.5 71.5c0 28.667 5.83301 54.5 17.5 77.5s27.834 42.833 48.501 59.5s45.167 29.5 73.5 38.5s59.5 13.5 93.5 13.5c48 0 90.5 -7.33301 127.5 -22s70.5 -36.334 100.5 -65.001l-70 -78c-23.333 22.667 -47.5 38.834 -72.5 48.501
s-51.5 14.5 -79.5 14.5c-30 0 -54.833 -6.5 -74.5 -19.5s-29.5 -33.167 -29.5 -60.5c0 -12 2 -22.833 6 -32.5s11.167 -18.5 21.5 -26.5s24.666 -16 42.999 -24s42.166 -16.667 71.499 -26s56.5 -19.666 81.5 -30.999s46.5 -25.166 64.5 -41.499s32 -36.166 42 -59.499
s15 -51.333 15 -84zM148.002 816.999l205 125l57 -94l-225 -94z" />
    <glyph glyph-name="sacute" unicode="&#x15b;" horiz-adv-x="491" 
d="M229 86c28.667 0 51.002 5.49512 67.002 16.4951s24 26.167 24 45.5c0 10 -1.66699 18.5 -5 25.5s-9.33301 13.333 -18 19s-20.834 11.334 -36.501 17.001s-35.834 11.834 -60.501 18.501c-24 6.66699 -45.667 14.5 -65 23.5s-35.833 20 -49.5 33
s-24.334 27.833 -32.001 44.5s-11.5 35.667 -11.5 57c0 22.667 4.83301 43.667 14.5 63s23.5 36 41.5 50s40 24.833 66 32.5s55.333 11.5 88 11.5c38 0 72.667 -5.33301 104 -16s58 -24 80 -40l-55 -79c-19.333 12.667 -39.333 22.334 -60 29.001s-43.667 10 -69 10
c-24.667 0 -44 -4.66699 -58 -14s-21 -22.333 -21 -39c0 -9.33301 2 -17 6 -23s10.5 -11.667 19.5 -17s21.167 -10.5 36.5 -15.5s34 -10.5 56 -16.5c22.667 -6.66699 44 -14.167 64 -22.5s37.5 -18.666 52.5 -30.999s26.833 -27.666 35.5 -45.999s13 -40.5 13 -66.5
c0 -29.333 -6.16699 -54.5 -18.5 -75.5s-29 -38.5 -50 -52.5s-45 -24.333 -72 -31s-54.833 -10 -83.5 -10c-45.333 0 -86.166 7 -122.499 21s-66.166 32 -89.499 54l67 77c43.333 -35.333 90.666 -53 141.999 -53zM108.002 680.995l203 132l57 -95l-222 -101z" />
    <glyph glyph-name="Scircumflex" unicode="&#x15c;" horiz-adv-x="560" 
d="M528 198c0 -31.333 -5.83105 -60.001 -17.498 -86.001s-28.5 -48.333 -50.5 -67s-49.167 -33 -81.5 -43s-68.833 -15 -109.5 -15c-54 0 -102.167 8.66699 -144.5 26s-77.833 40.333 -106.5 69l72 83c23.333 -22 49.166 -39.667 77.499 -53s60.833 -20 97.5 -20
c17.333 0 33.666 2 48.999 6s28.833 10 40.5 18s20.834 18.167 27.501 30.5s10 27.166 10 44.499c0 13.333 -1.83301 25.166 -5.5 35.499s-10.5 20 -20.5 29s-23.5 17.333 -40.5 25s-38.833 15.5 -65.5 23.5c-36.667 11.333 -68.334 23.833 -95.001 37.5s-48.667 29 -66 46
s-30.166 36 -38.499 57s-12.5 44.833 -12.5 71.5c0 28.667 5.83301 54.5 17.5 77.5s27.834 42.833 48.501 59.5s45.167 29.5 73.5 38.5s59.5 13.5 93.5 13.5c48 0 90.5 -7.33301 127.5 -22s70.5 -36.334 100.5 -65.001l-70 -78c-23.333 22.667 -47.5 38.834 -72.5 48.501
s-51.5 14.5 -79.5 14.5c-30 0 -54.833 -6.5 -74.5 -19.5s-29.5 -33.167 -29.5 -60.5c0 -12 2 -22.833 6 -32.5s11.167 -18.5 21.5 -26.5s24.666 -16 42.999 -24s42.166 -16.667 71.499 -26s56.5 -19.666 81.5 -30.999s46.5 -25.166 64.5 -41.499s32 -36.166 42 -59.499
s15 -51.333 15 -84zM145.002 756.999l-48 55l144 121h79l143 -121l-48 -55l-135 83z" />
    <glyph glyph-name="scircumflex" unicode="&#x15d;" horiz-adv-x="491" 
d="M229 86c28.667 0 51.002 5.49512 67.002 16.4951s24 26.167 24 45.5c0 10 -1.66699 18.5 -5 25.5s-9.33301 13.333 -18 19s-20.834 11.334 -36.501 17.001s-35.834 11.834 -60.501 18.501c-24 6.66699 -45.667 14.5 -65 23.5s-35.833 20 -49.5 33
s-24.334 27.833 -32.001 44.5s-11.5 35.667 -11.5 57c0 22.667 4.83301 43.667 14.5 63s23.5 36 41.5 50s40 24.833 66 32.5s55.333 11.5 88 11.5c38 0 72.667 -5.33301 104 -16s58 -24 80 -40l-55 -79c-19.333 12.667 -39.333 22.334 -60 29.001s-43.667 10 -69 10
c-24.667 0 -44 -4.66699 -58 -14s-21 -22.333 -21 -39c0 -9.33301 2 -17 6 -23s10.5 -11.667 19.5 -17s21.167 -10.5 36.5 -15.5s34 -10.5 56 -16.5c22.667 -6.66699 44 -14.167 64 -22.5s37.5 -18.666 52.5 -30.999s26.833 -27.666 35.5 -45.999s13 -40.5 13 -66.5
c0 -29.333 -6.16699 -54.5 -18.5 -75.5s-29 -38.5 -50 -52.5s-45 -24.333 -72 -31s-54.833 -10 -83.5 -10c-45.333 0 -86.166 7 -122.499 21s-66.166 32 -89.499 54l67 77c43.333 -35.333 90.666 -53 141.999 -53zM110.002 619.995l-51 57l143 131h79l143 -131l-51 -57
l-131 95z" />
    <glyph glyph-name="Scedilla" unicode="&#x15e;" horiz-adv-x="560" 
d="M326 -141c0 16 -7.3291 26.4971 -21.9961 31.4971s-37 7.5 -67 7.5l7 90c-48 2.66699 -91.167 12.334 -129.5 29.001s-70.5 38.334 -96.5 65.001l72 83c23.333 -22 49.166 -39.667 77.499 -53s60.833 -20 97.5 -20c17.333 0 33.666 2 48.999 6s28.833 10 40.5 18
s20.834 18.167 27.501 30.5s10 27.166 10 44.499c0 13.333 -1.83301 25.166 -5.5 35.499s-10.5 19.833 -20.5 28.5s-23.5 17 -40.5 25s-38.833 16 -65.5 24c-73.333 22.667 -127 50.334 -161 83.001s-51 75.667 -51 129c0 28.667 5.83301 54.5 17.5 77.5
s27.834 42.833 48.501 59.5s45.167 29.5 73.5 38.5s59.5 13.5 93.5 13.5c48 0 90.5 -7.33301 127.5 -22s70.5 -36.334 100.5 -65.001l-70 -78c-23.333 22.667 -47.5 38.834 -72.5 48.501s-51.5 14.5 -79.5 14.5c-30 0 -54.833 -6.5 -74.5 -19.5s-29.5 -33.167 -29.5 -60.5
c0 -12 2 -22.833 6 -32.5s11.167 -18.5 21.5 -26.5s24.666 -16 42.999 -24s42.166 -16.667 71.499 -26s56.5 -19.666 81.5 -30.999s46.5 -25.166 64.5 -41.499s32 -36.166 42 -59.499s15 -51.333 15 -84c0 -56 -17.667 -102.333 -53 -139s-85.333 -59.334 -150 -68.001v-41
c34.667 -3.33301 59.667 -13.833 75 -31.5s23 -37.5 23 -59.5c0 -34.667 -12.833 -61.667 -38.5 -81s-58.834 -29 -99.501 -29c-22.667 0 -44.334 2.83301 -65.001 8.5s-37.667 12.5 -51 20.5l34 63c10 -5.33301 20.833 -9.66602 32.5 -12.999s23.167 -5 34.5 -5
c17.333 0 31 2.66699 41 8s15 14.666 15 27.999z" />
    <glyph glyph-name="scedilla" unicode="&#x15f;" horiz-adv-x="491" 
d="M288 -141c0 16 -7.49414 26.4951 -22.4941 31.4951s-37.5 7.5 -67.5 7.5l8 90c-40 3.33301 -75.667 11.5 -107 24.5s-57.666 29.5 -78.999 49.5l67 77c43.333 -35.333 90.666 -53 141.999 -53c28.667 0 51 5.5 67 16.5s24 26.167 24 45.5c0 10 -1.66699 18.5 -5 25.5
s-9.33301 13.333 -18 19s-20.834 11.334 -36.501 17.001s-35.834 11.834 -60.501 18.501c-24 6.66699 -45.667 14.5 -65 23.5s-35.833 20 -49.5 33s-24.334 27.833 -32.001 44.5s-11.5 35.667 -11.5 57c0 22.667 4.83301 43.667 14.5 63s23.5 36 41.5 50s40 24.833 66 32.5
s55.333 11.5 88 11.5c38 0 72.667 -5.33301 104 -16s58 -24 80 -40l-55 -79c-19.333 12.667 -39.333 22.334 -60 29.001s-43.667 10 -69 10c-24.667 0 -44 -4.66699 -58 -14s-21 -22.333 -21 -39c0 -9.33301 2 -17 6 -23s10.5 -11.667 19.5 -17s21.167 -10.5 36.5 -15.5
s34 -10.5 56 -16.5c22.667 -6.66699 44 -14.167 64 -22.5s37.5 -18.666 52.5 -30.999s26.833 -27.666 35.5 -45.999s13 -40.5 13 -66.5c0 -24.667 -4.5 -46.5 -13.5 -65.5s-21.167 -35.167 -36.5 -48.5s-33.333 -24.333 -54 -33s-42.667 -14.667 -66 -18v-41
c34.667 -3.33301 59.667 -13.833 75 -31.5s23 -37.5 23 -59.5c0 -34.667 -12.833 -61.667 -38.5 -81s-58.834 -29 -99.501 -29c-22.667 0 -44.334 2.83301 -65.001 8.5s-37.667 12.5 -51 20.5l34 63c10 -5.33301 20.833 -9.66602 32.5 -12.999s23.167 -5 34.5 -5
c17.333 0 31.166 2.66699 41.499 8s15.5 14.666 15.5 27.999z" />
    <glyph glyph-name="Scaron" unicode="&#x160;" horiz-adv-x="560" 
d="M528 198c0 -31.333 -5.83105 -60.001 -17.498 -86.001s-28.5 -48.333 -50.5 -67s-49.167 -33 -81.5 -43s-68.833 -15 -109.5 -15c-54 0 -102.167 8.66699 -144.5 26s-77.833 40.333 -106.5 69l72 83c23.333 -22 49.166 -39.667 77.499 -53s60.833 -20 97.5 -20
c17.333 0 33.666 2 48.999 6s28.833 10 40.5 18s20.834 18.167 27.501 30.5s10 27.166 10 44.499c0 13.333 -1.83301 25.166 -5.5 35.499s-10.5 20 -20.5 29s-23.5 17.333 -40.5 25s-38.833 15.5 -65.5 23.5c-36.667 11.333 -68.334 23.833 -95.001 37.5s-48.667 29 -66 46
s-30.166 36 -38.499 57s-12.5 44.833 -12.5 71.5c0 28.667 5.83301 54.5 17.5 77.5s27.834 42.833 48.501 59.5s45.167 29.5 73.5 38.5s59.5 13.5 93.5 13.5c48 0 90.5 -7.33301 127.5 -22s70.5 -36.334 100.5 -65.001l-70 -78c-23.333 22.667 -47.5 38.834 -72.5 48.501
s-51.5 14.5 -79.5 14.5c-30 0 -54.833 -6.5 -74.5 -19.5s-29.5 -33.167 -29.5 -60.5c0 -12 2 -22.833 6 -32.5s11.167 -18.5 21.5 -26.5s24.666 -16 42.999 -24s42.166 -16.667 71.499 -26s56.5 -19.666 81.5 -30.999s46.5 -25.166 64.5 -41.499s32 -36.166 42 -59.499
s15 -51.333 15 -84zM280.002 849.999l135 83l48 -54l-143 -122h-79l-144 122l48 54z" />
    <glyph glyph-name="scaron" unicode="&#x161;" horiz-adv-x="491" 
d="M229 86c28.667 0 51.002 5.49512 67.002 16.4951s24 26.167 24 45.5c0 10 -1.66699 18.5 -5 25.5s-9.33301 13.333 -18 19s-20.834 11.334 -36.501 17.001s-35.834 11.834 -60.501 18.501c-24 6.66699 -45.667 14.5 -65 23.5s-35.833 20 -49.5 33
s-24.334 27.833 -32.001 44.5s-11.5 35.667 -11.5 57c0 22.667 4.83301 43.667 14.5 63s23.5 36 41.5 50s40 24.833 66 32.5s55.333 11.5 88 11.5c38 0 72.667 -5.33301 104 -16s58 -24 80 -40l-55 -79c-19.333 12.667 -39.333 22.334 -60 29.001s-43.667 10 -69 10
c-24.667 0 -44 -4.66699 -58 -14s-21 -22.333 -21 -39c0 -9.33301 2 -17 6 -23s10.5 -11.667 19.5 -17s21.167 -10.5 36.5 -15.5s34 -10.5 56 -16.5c22.667 -6.66699 44 -14.167 64 -22.5s37.5 -18.666 52.5 -30.999s26.833 -27.666 35.5 -45.999s13 -40.5 13 -66.5
c0 -29.333 -6.16699 -54.5 -18.5 -75.5s-29 -38.5 -50 -52.5s-45 -24.333 -72 -31s-54.833 -10 -83.5 -10c-45.333 0 -86.166 7 -122.499 21s-66.166 32 -89.499 54l67 77c43.333 -35.333 90.666 -53 141.999 -53zM242.002 713.995l131 94l51 -57l-143 -131h-79l-143 131
l51 57z" />
    <glyph glyph-name="uni0162" unicode="&#x162;" horiz-adv-x="539" 
d="M340 -141c0 16 -7.49805 26.5 -22.498 31.5s-37.167 7.5 -66.5 7.5l8 102h-52v586h-192v106h518l-15 -106h-179v-636c34.667 -3.33301 59.667 -13.833 75 -31.5s23 -37.5 23 -59.5c0 -34.667 -12.833 -61.667 -38.5 -81s-58.834 -29 -99.501 -29
c-22.667 0 -44.334 2.83301 -65.001 8.5s-37.667 12.5 -51 20.5l34 63c10 -5.33301 20.833 -9.66602 32.5 -12.999s23.167 -5 34.5 -5c17.333 0 31 2.66699 41 8s15 14.666 15 27.999z" />
    <glyph glyph-name="uni0163" unicode="&#x163;" horiz-adv-x="376" 
d="M269 -141c0 16 -7.49707 26.5 -22.4971 31.5s-37.5 7.5 -67.5 7.5l8 97c-34.667 10.667 -59.5 30.167 -74.5 58.5s-22.5 63.833 -22.5 106.5v276h-80v94h80v115l128 15v-130h129l-15 -94h-114v-274c0 -25.333 4.16699 -43.833 12.5 -55.5s22.5 -17.5 42.5 -17.5
c18 0 38.333 6.66699 61 20l46 -84c-15.333 -11.333 -33 -20 -53 -26s-40 -9.66699 -60 -11v-38c34.667 -3.33301 59.667 -13.833 75 -31.5s23 -37.5 23 -59.5c0 -34.667 -12.833 -61.667 -38.5 -81s-58.834 -29 -99.501 -29c-22.667 0 -44.334 2.83301 -65.001 8.5
s-37.667 12.5 -51 20.5l34 63c10 -5.33301 20.833 -9.66602 32.5 -12.999s23.167 -5 34.5 -5c17.333 0 31.166 2.66699 41.499 8s15.5 14.666 15.5 27.999z" />
    <glyph glyph-name="Tcaron" unicode="&#x164;" horiz-adv-x="539" 
d="M338 586v-586h-132v586h-191v106h518l-15 -106h-180zM269 850l135 83l48 -54l-143 -122h-79l-144 122l48 54z" />
    <glyph glyph-name="tcaron" unicode="&#x165;" horiz-adv-x="376" 
d="M380 25c-16.667 -12 -36.667 -21.333 -60 -28s-46.333 -10 -69 -10c-58.667 0 -100.167 15.5 -124.5 46.5s-36.5 73.167 -36.5 126.5v276h-80v94h80v115l128 15v-130h129l-15 -94h-114v-274c0 -25.333 4.16699 -43.833 12.5 -55.5s22.5 -17.5 42.5 -17.5
c18 0 38.333 6.66699 61 20zM284 773c0 18.667 6.66895 34.499 20.002 47.499s29.666 19.5 48.999 19.5s35.666 -6.5 48.999 -19.5s20 -28.833 20 -47.5c0 -11.333 -1.66699 -22 -5 -32s-8 -21.333 -14 -34l-52 -108h-67l28 118c-8.66699 6.66699 -15.5 14.834 -20.5 24.501
s-7.5 20.167 -7.5 31.5z" />
    <glyph glyph-name="Tbar" unicode="&#x166;" horiz-adv-x="549" 
d="M466 336h-123v-336h-132v336h-122v85h122v165h-191v106h518l-15 -106h-180v-165h123v-85z" />
    <glyph glyph-name="tbar" unicode="&#x167;" horiz-adv-x="386" 
d="M385 25c-16.667 -12 -36.667 -21.333 -60 -28s-46.333 -10 -69 -10c-58.667 0 -100.167 15.5 -124.5 46.5s-36.5 73.167 -36.5 126.5v110h-76v89h76v77h-80v94h80v115l128 15v-130h129l-15 -94h-114v-77h117v-89h-117v-108c0 -25.333 4.16699 -43.833 12.5 -55.5
s22.5 -17.5 42.5 -17.5c18 0 38.333 6.66699 61 20z" />
    <glyph glyph-name="Utilde" unicode="&#x168;" horiz-adv-x="672" 
d="M592 229c0 -35.333 -5.33203 -67.667 -15.999 -97s-26.834 -54.833 -48.501 -76.5s-48.5 -38.5 -80.5 -50.5s-69 -18 -111 -18c-43.333 0 -81 5.83301 -113 17.5s-58.5 28.167 -79.5 49.5s-36.833 46.833 -47.5 76.5s-16 62.5 -16 98.5v463h132v-456
c0 -50 9.83301 -86.667 29.5 -110s51.167 -35 94.5 -35s74.833 11.667 94.5 35s29.5 60 29.5 110v456h132v-463zM390.001 772.999c-15.333 0 -28.332 2.49902 -38.999 7.49902s-20 10.5 -28 16.5l-22.5 16.5c-7 5 -14.5 7.5 -22.5 7.5c-12.667 0 -22.667 -3.83301 -30 -11.5
s-15 -18.5 -23 -32.5l-70 32c5.33301 14 12 27.333 20 40s17.167 23.834 27.5 33.501s22.166 17.334 35.499 23.001s28 8.5 44 8.5c15.333 0 28.333 -2.5 39 -7.5s20 -10.667 28 -17s15.5 -12 22.5 -17s14.5 -7.5 22.5 -7.5c13.333 0 23.5 3.83301 30.5 11.5
s14.5 18.5 22.5 32.5l70 -32c-5.33301 -14 -12 -27.167 -20 -39.5s-17.333 -23.333 -28 -33s-22.5 -17.334 -35.5 -23.001s-27.5 -8.5 -43.5 -8.5z" />
    <glyph glyph-name="utilde" unicode="&#x169;" horiz-adv-x="580" 
d="M205 530v-373c0 -27.333 4.5 -46.5 13.5 -57.5s24.833 -16.5 47.5 -16.5c21.333 0 41.166 5.83301 59.499 17.5s33.833 28.167 46.5 49.5v380h128v-530h-111l-9 64c-19.333 -25.333 -42.666 -44.5 -69.999 -57.5s-57 -19.5 -89 -19.5c-50 0 -86.5 13.833 -109.5 41.5
s-34.5 66.5 -34.5 116.5v385h128zM342 643c-15.333 0 -28.333 2.49902 -39 7.49902s-20 10.5 -28 16.5l-22.5 16.5c-7 5 -14.5 7.5 -22.5 7.5c-12.667 0 -22.667 -3.83301 -30 -11.5s-15 -18.5 -23 -32.5l-70 32c11.333 28 27.333 52.5 48 73.5s47 31.5 79 31.5
c15.333 0 28.333 -2.5 39 -7.5s20.167 -10.667 28.5 -17l23 -17c7 -5 14.5 -7.5 22.5 -7.5c12.667 0 22.5 3.83301 29.5 11.5s14.5 18.834 22.5 33.501l70 -32c-11.333 -28 -27.333 -52.5 -48 -73.5s-47 -31.5 -79 -31.5z" />
    <glyph glyph-name="Umacron" unicode="&#x16a;" horiz-adv-x="672" 
d="M592 229c0 -35.333 -5.33203 -67.667 -15.999 -97s-26.834 -54.833 -48.501 -76.5s-48.5 -38.5 -80.5 -50.5s-69 -18 -111 -18c-43.333 0 -81 5.83301 -113 17.5s-58.5 28.167 -79.5 49.5s-36.833 46.833 -47.5 76.5s-16 62.5 -16 98.5v463h132v-456
c0 -50 9.83301 -86.667 29.5 -110s51.167 -35 94.5 -35s74.833 11.667 94.5 35s29.5 60 29.5 110v456h132v-463zM485.001 797.999h-298v92h298v-92z" />
    <glyph glyph-name="umacron" unicode="&#x16b;" horiz-adv-x="580" 
d="M205 530v-373c0 -27.333 4.5 -46.5 13.5 -57.5s24.833 -16.5 47.5 -16.5c21.333 0 41.166 5.83301 59.499 17.5s33.833 28.167 46.5 49.5v380h128v-530h-111l-9 64c-19.333 -25.333 -42.666 -44.5 -69.999 -57.5s-57 -19.5 -89 -19.5c-50 0 -86.5 13.833 -109.5 41.5
s-34.5 66.5 -34.5 116.5v385h128zM437 668h-298v92h298v-92z" />
    <glyph glyph-name="Ubreve" unicode="&#x16c;" horiz-adv-x="672" 
d="M592 229c0 -35.333 -5.33203 -67.667 -15.999 -97s-26.834 -54.833 -48.501 -76.5s-48.5 -38.5 -80.5 -50.5s-69 -18 -111 -18c-43.333 0 -81 5.83301 -113 17.5s-58.5 28.167 -79.5 49.5s-36.833 46.833 -47.5 76.5s-16 62.5 -16 98.5v463h132v-456
c0 -50 9.83301 -86.667 29.5 -110s51.167 -35 94.5 -35s74.833 11.667 94.5 35s29.5 60 29.5 110v456h132v-463zM335.001 755.999c-25.333 0 -47.667 4.33301 -67 13s-36 20.334 -50 35.001s-25.167 31.334 -33.5 50.001s-13.5 37.667 -15.5 57l75 14
c12.667 -51.333 43 -77 91 -77c49.333 0 80.333 25.667 93 77l76 -14c-2 -19.333 -7.33301 -38.333 -16 -57s-20.167 -35.334 -34.5 -50.001s-31.5 -26.334 -51.5 -35.001s-42.333 -13 -67 -13z" />
    <glyph glyph-name="ubreve" unicode="&#x16d;" horiz-adv-x="580" 
d="M205 530v-373c0 -27.333 4.5 -46.5 13.5 -57.5s24.833 -16.5 47.5 -16.5c21.333 0 41.166 5.83301 59.499 17.5s33.833 28.167 46.5 49.5v380h128v-530h-111l-9 64c-19.333 -25.333 -42.666 -44.5 -69.999 -57.5s-57 -19.5 -89 -19.5c-50 0 -86.5 13.833 -109.5 41.5
s-34.5 66.5 -34.5 116.5v385h128zM287 620c-25.333 0 -47.834 4.66699 -67.501 14s-36.5 21.833 -50.5 37.5s-25.167 33.334 -33.5 53.001s-13.5 39.834 -15.5 60.501l76 14c6.66699 -26 17.5 -47.167 32.5 -63.5s34.5 -24.5 58.5 -24.5s43.833 8.16699 59.5 24.5
s26.834 37.5 33.501 63.5l75 -14c-2 -20.667 -7.33301 -40.834 -16 -60.501s-20 -37.334 -34 -53.001s-31 -28.167 -51 -37.5s-42.333 -14 -67 -14z" />
    <glyph glyph-name="Uring" unicode="&#x16e;" horiz-adv-x="672" 
d="M592 229c0 -35.333 -5.33203 -67.667 -15.999 -97s-26.834 -54.833 -48.501 -76.5s-48.5 -38.5 -80.5 -50.5s-69 -18 -111 -18c-43.333 0 -81 5.83301 -113 17.5s-58.5 28.167 -79.5 49.5s-36.833 46.833 -47.5 76.5s-16 62.5 -16 98.5v463h132v-456
c0 -50 9.83301 -86.667 29.5 -110s51.167 -35 94.5 -35s74.833 11.667 94.5 35s29.5 60 29.5 110v456h132v-463zM285.001 859.999c0 -17.333 4.66699 -30.666 14 -39.999s21.666 -14 36.999 -14s27.666 4.66699 36.999 14s14 22.666 14 39.999s-4.66699 30.666 -14 39.999
s-21.666 14 -36.999 14s-27.666 -4.66699 -36.999 -14s-14 -22.666 -14 -39.999zM466.001 859.999c0 -16.667 -3.16699 -32.334 -9.5 -47.001s-15.333 -27.5 -27 -38.5s-25.5 -19.667 -41.5 -26s-33.333 -9.5 -52 -9.5c-19.333 0 -37 3.16699 -53 9.5s-29.667 15 -41 26
s-20.166 23.833 -26.499 38.5s-9.5 30.334 -9.5 47.001s3.16699 32.167 9.5 46.5s15.166 27 26.499 38s25 19.667 41 26s33.667 9.5 53 9.5c18.667 0 36 -3.16699 52 -9.5s29.833 -15 41.5 -26s20.667 -23.667 27 -38s9.5 -29.833 9.5 -46.5z" />
    <glyph glyph-name="uring" unicode="&#x16f;" horiz-adv-x="580" 
d="M205 530v-373c0 -27.333 4.5 -46.5 13.5 -57.5s24.833 -16.5 47.5 -16.5c21.333 0 41.166 5.83301 59.499 17.5s33.833 28.167 46.5 49.5v380h128v-530h-111l-9 64c-19.333 -25.333 -42.666 -44.5 -69.999 -57.5s-57 -19.5 -89 -19.5c-50 0 -86.5 13.833 -109.5 41.5
s-34.5 66.5 -34.5 116.5v385h128zM238 730c0 -17.333 4.5 -30.666 13.5 -39.999s21.5 -14 37.5 -14c15.333 0 27.666 4.66699 36.999 14s14 22.666 14 39.999s-4.66699 30.833 -14 40.5s-21.666 14.5 -36.999 14.5c-16 0 -28.5 -4.83301 -37.5 -14.5
s-13.5 -23.167 -13.5 -40.5zM419 730c0 -16.667 -3.16699 -32.167 -9.5 -46.5s-15.333 -27 -27 -38s-25.5 -19.667 -41.5 -26s-33.333 -9.5 -52 -9.5c-19.333 0 -37 3.16699 -53 9.5s-29.833 15 -41.5 26s-20.667 23.667 -27 38s-9.5 29.833 -9.5 46.5
s3.16699 32.334 9.5 47.001s15.333 27.5 27 38.5s25.5 19.667 41.5 26s33.667 9.5 53 9.5c18.667 0 36 -3.16699 52 -9.5s29.833 -15 41.5 -26s20.667 -23.833 27 -38.5s9.5 -30.334 9.5 -47.001z" />
    <glyph glyph-name="Uhungarumlaut" unicode="&#x170;" horiz-adv-x="672" 
d="M592 229c0 -35.333 -5.33203 -67.667 -15.999 -97s-26.834 -54.833 -48.501 -76.5s-48.5 -38.5 -80.5 -50.5s-69 -18 -111 -18c-43.333 0 -81 5.83301 -113 17.5s-58.5 28.167 -79.5 49.5s-36.833 46.833 -47.5 76.5s-16 62.5 -16 98.5v463h132v-456
c0 -50 9.83301 -86.667 29.5 -110s51.167 -35 94.5 -35s74.833 11.667 94.5 35s29.5 60 29.5 110v456h132v-463zM190.001 800.999l84 182l96 -45l-107 -167zM368.001 800.999l94 181l94 -48l-116 -166z" />
    <glyph glyph-name="uhungarumlaut" unicode="&#x171;" horiz-adv-x="580" 
d="M205 530v-373c0 -27.333 4.5 -46.5 13.5 -57.5s24.833 -16.5 47.5 -16.5c21.333 0 41.166 5.83301 59.499 17.5s33.833 28.167 46.5 49.5v380h128v-530h-111l-9 64c-19.333 -25.333 -42.666 -44.5 -69.999 -57.5s-57 -19.5 -89 -19.5c-50 0 -86.5 13.833 -109.5 41.5
s-34.5 66.5 -34.5 116.5v385h128zM144 667l84 189l94 -45l-107 -177zM321 667l93 188l92 -47l-116 -177z" />
    <glyph glyph-name="Uogonek" unicode="&#x172;" horiz-adv-x="672" 
d="M592 229c0 -50.667 -11.333 -95.167 -34 -133.5s-56 -67.166 -100 -86.499c-23.333 -11.333 -42 -23 -56 -35s-25 -23.833 -33 -35.5s-13.333 -23 -16 -34s-4 -20.833 -4 -29.5c0 -14.667 4.66699 -26.667 14 -36s24.333 -14 45 -14c13.333 0 25.666 1.66699 36.999 5
s20.333 6.66602 27 9.99902l30 -65c-33.333 -17.333 -69.666 -26 -108.999 -26c-44 0 -78.167 10.333 -102.5 31s-36.5 49.667 -36.5 87c0 22 6.83301 43.5 20.5 64.5s32.167 39.5 55.5 55.5c-42 0.666992 -78.667 7 -110 19s-57.333 28.5 -78 49.5s-36.167 46.333 -46.5 76
s-15.5 62.167 -15.5 97.5v463h132v-456c0 -50 9.83301 -86.667 29.5 -110s51.167 -35 94.5 -35s74.833 11.667 94.5 35s29.5 60 29.5 110v456h132v-463z" />
    <glyph glyph-name="uogonek" unicode="&#x173;" horiz-adv-x="580" 
d="M205 530l0.00195312 -368.998c0 -29.333 4.33301 -49.666 13 -60.999s24.667 -17 48 -17c21.333 0 41.166 5.83301 59.499 17.5s33.833 28.167 46.5 49.5v380h128v-530c-18.667 -12 -33.834 -23.667 -45.501 -35s-21 -22.333 -28 -33s-11.833 -20.834 -14.5 -30.501
s-4 -18.5 -4 -26.5c0 -14.667 4.66699 -26.667 14 -36s24.333 -14 45 -14c13.333 0 25.666 1.66699 36.999 5s20.333 6.66602 27 9.99902l30 -65c-33.333 -17.333 -69.333 -26 -108 -26c-44.667 0 -79.167 10.333 -103.5 31s-36.5 49.667 -36.5 87
c0 25.333 9.5 49.666 28.5 72.999s43.833 43.333 74.5 60h-29l-7 64c-19.333 -25.333 -42.666 -44.5 -69.999 -57.5s-57 -19.5 -89 -19.5c-50 0 -86.5 13.833 -109.5 41.5s-34.5 66.5 -34.5 116.5v385h128z" />
    <glyph glyph-name="Wcircumflex" unicode="&#x174;" horiz-adv-x="862" 
d="M710 0h-177l-101 537h-4l-104 -537h-170l-129 692h129l93 -578h4l110 578h143l110 -576h4l97 576h122zM296 757l-48 55l144 121h79l143 -121l-48 -55l-135 83z" />
    <glyph glyph-name="wcircumflex" unicode="&#x175;" horiz-adv-x="757" 
d="M624 0h-164l-78 384h-4l-83 -384h-159l-118 530h130l71 -429h4l94 429h133l85 -427h4l75 427h124zM247 620l-51 57l143 131h79l143 -131l-51 -57l-131 95z" />
    <glyph glyph-name="Ycircumflex" unicode="&#x176;" horiz-adv-x="586" 
d="M359 260v-260h-132v259l-222 433h142l147 -322h4l147 322h136zM158 757l-48 55l144 121h79l143 -121l-48 -55l-135 83z" />
    <glyph glyph-name="ycircumflex" unicode="&#x177;" horiz-adv-x="521" 
d="M337 -4c-19.333 -60.667 -50 -110.001 -92 -148.001s-101.333 -60 -178 -66l-16 96c25.333 4 47 9.16699 65 15.5s33.333 14.333 46 24s23 21.334 31 35.001s15 29.5 21 47.5h-40l-166 530h137l110 -437h4l121 437h132zM129 619.999l-51 57l143 131h79l143 -131l-51 -57
l-131 95z" />
    <glyph glyph-name="Ydieresis" unicode="&#x178;" horiz-adv-x="586" 
d="M359 260v-260h-132v259l-222 433h142l147 -322h4l147 322h136zM179 783c-20 0 -37 6.83301 -51 20.5s-21 30.5 -21 50.5s7 36.833 21 50.5s31 20.5 51 20.5c20.667 0 37.834 -6.83301 51.501 -20.5s20.5 -30.5 20.5 -50.5s-6.83301 -36.833 -20.5 -50.5
s-30.834 -20.5 -51.501 -20.5zM406 783c-20 0 -37 6.83301 -51 20.5s-21 30.5 -21 50.5s7 36.833 21 50.5s31 20.5 51 20.5s37.167 -6.83301 51.5 -20.5s21.5 -30.5 21.5 -50.5s-7.16699 -36.833 -21.5 -50.5s-31.5 -20.5 -51.5 -20.5z" />
    <glyph glyph-name="Zacute" unicode="&#x179;" horiz-adv-x="540" 
d="M177 109h325l-15 -109h-460v103l325 482h-290v107h437v-104zM152 817l205 125l57 -94l-225 -94z" />
    <glyph glyph-name="zacute" unicode="&#x17a;" horiz-adv-x="457" 
d="M168 102h261l-14 -102h-393v93l257 335h-234v102h378v-94zM98 681l203 132l57 -95l-222 -101z" />
    <glyph glyph-name="Zdotaccent" unicode="&#x17b;" horiz-adv-x="540" 
d="M177 109h325l-15 -109h-460v103l325 482h-290v107h437v-104zM359 853c0 -22.667 -7.66699 -41.834 -23 -57.501s-35.666 -23.5 -60.999 -23.5c-24.667 0 -44.667 7.83301 -60 23.5s-23 34.834 -23 57.501c0 23.333 7.66699 42.666 23 57.999s35.333 23 60 23
c25.333 0 45.666 -7.66699 60.999 -23s23 -34.666 23 -57.999z" />
    <glyph glyph-name="zdotaccent" unicode="&#x17c;" horiz-adv-x="457" 
d="M168 102h261l-14 -102h-393v93l257 335h-234v102h378v-94zM312 724c0 -23.333 -7.66699 -42.666 -23 -57.999s-35.333 -23 -60 -23c-25.333 0 -45.666 7.66699 -60.999 23s-23 34.666 -23 57.999c0 22.667 7.66699 41.834 23 57.501s35.666 23.5 60.999 23.5
c24.667 0 44.667 -7.83301 60 -23.5s23 -34.834 23 -57.501z" />
    <glyph glyph-name="Zcaron" unicode="&#x17d;" horiz-adv-x="540" 
d="M177 109h325l-15 -109h-460v103l325 482h-290v107h437v-104zM276 850l135 83l48 -54l-143 -122h-79l-144 122l48 54z" />
    <glyph glyph-name="zcaron" unicode="&#x17e;" horiz-adv-x="457" 
d="M168 102h261l-14 -102h-393v93l257 335h-234v102h378v-94zM229 714l131 94l51 -57l-143 -131h-79l-143 131l51 57z" />
    <glyph glyph-name="florin" unicode="&#x192;" horiz-adv-x="350" 
d="M-11 -126c16.667 8 31.499 15.832 44.499 23.499s23.833 17.5 32.5 29.5s15.334 26.667 20.001 44s7 39.333 7 66v399h-80v94h80v55c0 24 4 46.5 12 67.5s19.667 39 35 54s34.666 26.833 57.999 35.5s50.333 13 81 13c28.667 0 53.834 -2.66699 75.501 -8
s43.167 -12.666 64.5 -21.999l-37 -87c-16.667 7.33301 -32.334 12.333 -47.001 15s-28.667 4 -42 4c-26.667 0 -45.167 -5.5 -55.5 -16.5s-15.5 -29.167 -15.5 -54.5v-56h125l-14 -94h-111v-391c0 -40 -4.66699 -74 -14 -102s-22.166 -52 -38.499 -72s-36 -37 -59 -51
s-48.5 -26.667 -76.5 -38z" />
    <glyph glyph-name="AEacute" unicode="&#x1fc;" horiz-adv-x="818" 
d="M420 162h-245l-59 -162h-133l274 692h495l-14 -99h-292l45 -194h254v-99h-230l47 -201h228v-99h-336zM210 262h189l-68 318h-5zM366 817l205 125l57 -94l-225 -94z" />
    <glyph glyph-name="aeacute" unicode="&#x1fd;" horiz-adv-x="848" 
d="M472 225c5.33301 -50 19.0049 -85.668 41.0049 -107.001s51 -32 87 -32c22 0 42.667 3.16699 62 9.5s40.666 18.166 63.999 35.499l55 -80c-25.333 -19.333 -53.666 -34.833 -84.999 -46.5s-65.333 -17.5 -102 -17.5c-45.333 0 -83.333 7.16699 -114 21.5
s-55.667 34.5 -75 60.5c-44.667 -54.667 -106.667 -82 -186 -82c-58.667 0 -103.667 15 -135 45s-47 70 -47 120c0 56.667 21.167 100.167 63.5 130.5s105.166 45.5 188.499 45.5h64v27c0 34.667 -8.5 58.334 -25.5 71.001s-43.833 19 -80.5 19
c-16.667 0 -36.834 -2.16699 -60.501 -6.5s-48.834 -11.166 -75.501 -20.499l-30 90c33.333 12.667 65.666 21.667 96.999 27s60.666 8 87.999 8c42 0 75.5 -6.5 100.5 -19.5s44.5 -30.5 58.5 -52.5c17.333 22 38.333 39.5 63 52.5s54 19.5 88 19.5
c72.667 0 128.167 -23.167 166.5 -69.5s57.5 -111.833 57.5 -196.5c0 -9.33301 -0.166992 -18.5 -0.5 -27.5s-0.833008 -17.167 -1.5 -24.5h-326zM249.005 77.999c23.333 0 44.999 6.83398 64.999 20.501s37 32.5 51 56.5c-3.33301 14.667 -6.16602 29.667 -8.49902 45
s-3.5 31.666 -3.5 48.999h-48c-50 0 -84.167 -8.16699 -102.5 -24.5s-27.5 -38.5 -27.5 -66.5c0 -26.667 5.83301 -46.667 17.5 -60s30.5 -20 56.5 -20zM575.004 449c-30.667 0 -54.667 -11 -72 -33s-28 -57.333 -32 -106h204c-1.33301 45.333 -9.83301 79.833 -25.5 103.5
s-40.5 35.5 -74.5 35.5zM314.004 681l203 132l57 -95l-222 -101z" />
    <glyph glyph-name="Oslashacute" unicode="&#x1fe;" horiz-adv-x="703" 
d="M651 346c0 -57.333 -7.16797 -108.332 -21.501 -152.999s-34.5 -82.334 -60.5 -113.001s-57.5 -53.834 -94.5 -69.501s-78.5 -23.5 -124.5 -23.5c-9.33301 0 -18.166 0.333008 -26.499 1s-16.5 1.66699 -24.5 3l-37 -126l-105 28l40 131
c-46.667 26.667 -83 66.834 -109 120.501s-39 120.834 -39 201.501c0 57.333 7.16699 108.333 21.5 153s34.5 82.167 60.5 112.5s57.5 53.5 94.5 69.5s78.5 24 124.5 24c20.667 0 38.667 -1.33301 54 -4l38 124l105 -28l-41 -131c46 -27.333 81.667 -67.833 107 -121.5
s38 -119.834 38 -198.501zM186.999 346.001c0 -60.667 5.33301 -108.831 16 -144.498s26 -62.167 46 -79.5l139 478c-12 2 -24.667 3 -38 3c-26 0 -49 -4.5 -69 -13.5s-37 -23.833 -51 -44.5s-24.667 -47.334 -32 -80.001s-11 -72.334 -11 -119.001zM512.999 346.004
c0 59.333 -5.00098 106.501 -15.001 141.501s-24.333 61.167 -43 78.5l-140 -474c10.667 -2 22.334 -3 35.001 -3c26 0 49 4.5 69 13.5s37 23.833 51 44.5s24.667 47.167 32 79.5s11 72.166 11 119.499zM189.998 844.005l205 125l57 -94l-225 -94z" />
    <glyph glyph-name="oslashacute" unicode="&#x1ff;" horiz-adv-x="587" 
d="M45 265c0 40 5.49902 76.999 16.499 110.999s27.167 63.333 48.5 88s47.333 44 78 58s66 21 106 21c12 0 24.667 -1 38 -3l39 123l98 -30l-41 -126c36.667 -23.333 64.834 -55.833 84.501 -97.5s29.5 -89.834 29.5 -144.501c0 -41.333 -5.5 -79 -16.5 -113
s-27 -63.333 -48 -88s-46.833 -43.667 -77.5 -57s-66 -20 -106 -20c-13.333 0 -26 1 -38 3l-39 -126l-99 29l42 128c-37.333 22.667 -65.833 54.834 -85.5 96.501s-29.5 90.834 -29.5 147.501zM178.999 264.999c0 -70.667 11.667 -119 35 -145l102 323
c-4 1.33301 -8 2 -12 2h-10c-37.333 0 -65.833 -14 -85.5 -42s-29.5 -74 -29.5 -138zM407.999 264.999c0 35.333 -2.83301 64.5 -8.5 87.5s-14.167 41.167 -25.5 54.5l-102 -320c3.33301 -1.33301 6.66602 -2 9.99902 -2h12c36.667 0 64.834 14 84.501 42s29.5 74 29.5 138z
M145.999 683.999l203 132l57 -95l-222 -101z" />
    <glyph glyph-name="uni0218" unicode="&#x218;" horiz-adv-x="560" 
d="M528 198c0 -31.333 -5.83105 -60.001 -17.498 -86.001s-28.5 -48.333 -50.5 -67s-49.167 -33 -81.5 -43s-68.833 -15 -109.5 -15c-54 0 -102.167 8.66699 -144.5 26s-77.833 40.333 -106.5 69l72 83c23.333 -22 49.166 -39.667 77.499 -53s60.833 -20 97.5 -20
c17.333 0 33.666 2 48.999 6s28.833 10 40.5 18s20.834 18.167 27.501 30.5s10 27.166 10 44.499c0 13.333 -1.83301 25.166 -5.5 35.499s-10.5 20 -20.5 29s-23.5 17.333 -40.5 25s-38.833 15.5 -65.5 23.5c-36.667 11.333 -68.334 23.833 -95.001 37.5s-48.667 29 -66 46
s-30.166 36 -38.499 57s-12.5 44.833 -12.5 71.5c0 28.667 5.83301 54.5 17.5 77.5s27.834 42.833 48.501 59.5s45.167 29.5 73.5 38.5s59.5 13.5 93.5 13.5c48 0 90.5 -7.33301 127.5 -22s70.5 -36.334 100.5 -65.001l-70 -78c-23.333 22.667 -47.5 38.834 -72.5 48.501
s-51.5 14.5 -79.5 14.5c-30 0 -54.833 -6.5 -74.5 -19.5s-29.5 -33.167 -29.5 -60.5c0 -12 2 -22.833 6 -32.5s11.167 -18.5 21.5 -26.5s24.666 -16 42.999 -24s42.166 -16.667 71.499 -26s56.5 -19.666 81.5 -30.999s46.5 -25.166 64.5 -41.499s32 -36.166 42 -59.499
s15 -51.333 15 -84zM217.002 -159.001c0 19.333 6.66895 35.333 20.002 48s29.666 19 48.999 19s35.666 -6.33301 48.999 -19s20 -28.667 20 -48c0 -11.333 -1.5 -21.833 -4.5 -31.5s-7.83301 -20.834 -14.5 -33.501l-53 -109h-67l29 118
c-8.66699 6.66699 -15.5 14.834 -20.5 24.501s-7.5 20.167 -7.5 31.5z" />
    <glyph glyph-name="uni0219" unicode="&#x219;" horiz-adv-x="491" 
d="M229 86c28.667 0 51.002 5.49512 67.002 16.4951s24 26.167 24 45.5c0 10 -1.66699 18.5 -5 25.5s-9.33301 13.333 -18 19s-20.834 11.334 -36.501 17.001s-35.834 11.834 -60.501 18.501c-24 6.66699 -45.667 14.5 -65 23.5s-35.833 20 -49.5 33
s-24.334 27.833 -32.001 44.5s-11.5 35.667 -11.5 57c0 22.667 4.83301 43.667 14.5 63s23.5 36 41.5 50s40 24.833 66 32.5s55.333 11.5 88 11.5c38 0 72.667 -5.33301 104 -16s58 -24 80 -40l-55 -79c-19.333 12.667 -39.333 22.334 -60 29.001s-43.667 10 -69 10
c-24.667 0 -44 -4.66699 -58 -14s-21 -22.333 -21 -39c0 -9.33301 2 -17 6 -23s10.5 -11.667 19.5 -17s21.167 -10.5 36.5 -15.5s34 -10.5 56 -16.5c22.667 -6.66699 44 -14.167 64 -22.5s37.5 -18.666 52.5 -30.999s26.833 -27.666 35.5 -45.999s13 -40.5 13 -66.5
c0 -29.333 -6.16699 -54.5 -18.5 -75.5s-29 -38.5 -50 -52.5s-45 -24.333 -72 -31s-54.833 -10 -83.5 -10c-45.333 0 -86.166 7 -122.499 21s-66.166 32 -89.499 54l67 77c43.333 -35.333 90.666 -53 141.999 -53zM180.002 -159.005c0 19.333 6.66895 35.333 20.002 48
s29.666 19 48.999 19s35.666 -6.33301 48.999 -19s20 -28.667 20 -48c0 -11.333 -1.5 -21.833 -4.5 -31.5s-7.83301 -20.834 -14.5 -33.501l-53 -109h-67l29 118c-8.66699 6.66699 -15.5 14.834 -20.5 24.501s-7.5 20.167 -7.5 31.5z" />
    <glyph glyph-name="uni021A" unicode="&#x21a;" horiz-adv-x="539" 
d="M338 586v-586h-132v586h-191v106h518l-15 -106h-180zM204 -159c0 19.333 6.66895 35.333 20.002 48s29.666 19 48.999 19s35.666 -6.33301 48.999 -19s20 -28.667 20 -48c0 -11.333 -1.66699 -21.833 -5 -31.5s-8 -20.834 -14 -33.501l-52 -109h-67l28 118
c-8.66699 6.66699 -15.5 14.834 -20.5 24.501s-7.5 20.167 -7.5 31.5z" />
    <glyph glyph-name="uni021B" unicode="&#x21b;" horiz-adv-x="376" 
d="M380 25c-16.667 -12 -36.667 -21.333 -60 -28s-46.333 -10 -69 -10c-58.667 0 -100.167 15.5 -124.5 46.5s-36.5 73.167 -36.5 126.5v276h-80v94h80v115l128 15v-130h129l-15 -94h-114v-274c0 -25.333 4.16699 -43.833 12.5 -55.5s22.5 -17.5 42.5 -17.5
c18 0 38.333 6.66699 61 20zM146 -159c0 19.333 6.66895 35.333 20.002 48s29.666 19 48.999 19s35.666 -6.33301 48.999 -19s20 -28.667 20 -48c0 -11.333 -1.5 -21.833 -4.5 -31.5s-7.83301 -20.834 -14.5 -33.501l-53 -109h-67l29 118
c-8.66699 6.66699 -15.5 14.834 -20.5 24.501s-7.5 20.167 -7.5 31.5z" />
    <glyph glyph-name="dotlessj" unicode="&#x237;" horiz-adv-x="278" 
d="M-29 -126c16.667 8 31.499 15.833 44.499 23.5s23.833 17.5 32.5 29.5s15.334 26.667 20.001 44s7 39.333 7 66v493h128v-481c0 -41.333 -4.33301 -76.333 -13 -105s-21.167 -53 -37.5 -73s-36 -37 -59 -51s-48.833 -26.667 -77.5 -38z" />
    <glyph glyph-name="circumflex" unicode="&#x2c6;" horiz-adv-x="425" 
d="M80 634l-50 57l144 124h79l142 -124l-49 -57l-133 88z" />
    <glyph glyph-name="caron" unicode="&#x2c7;" horiz-adv-x="425" 
d="M213 727l133 88l49 -57l-142 -124h-79l-144 124l50 57z" />
    <glyph glyph-name="uni02C9" unicode="&#x2c9;" horiz-adv-x="358" 
d="M328 675h-298v92h298v-92z" />
    <glyph glyph-name="breve" unicode="&#x2d8;" horiz-adv-x="396" 
d="M197 633c-25.333 0 -47.6689 4.5 -67.002 13.5s-36 21 -50 36s-25.167 32 -33.5 51s-13.833 38.5 -16.5 58.5l76 14c6.66699 -26 17.5 -46 32.5 -60s34.5 -21 58.5 -21s43.833 7 59.5 21s26.834 34 33.501 60l76 -14c-2.66699 -20 -8.16699 -39.5 -16.5 -58.5
s-19.666 -36 -33.999 -51s-31.5 -27 -51.5 -36s-42.333 -13.5 -67 -13.5z" />
    <glyph glyph-name="dotaccent" unicode="&#x2d9;" horiz-adv-x="227" 
d="M197 730c0 -22.667 -7.66699 -41.834 -23 -57.501s-35.666 -23.5 -60.999 -23.5c-24.667 0 -44.667 7.83301 -60 23.5s-23 34.834 -23 57.501c0 23.333 7.66699 42.666 23 57.999s35.333 23 60 23c25.333 0 45.666 -7.66699 60.999 -23s23 -34.666 23 -57.999z" />
    <glyph glyph-name="ring" unicode="&#x2da;" horiz-adv-x="321" 
d="M109 737c0 -17.333 4.66699 -30.666 14 -39.999s21.666 -14 36.999 -14c16 0 28.5 4.66699 37.5 14s13.5 22.666 13.5 39.999s-4.5 30.666 -13.5 39.999s-21.5 14 -37.5 14c-15.333 0 -27.666 -4.66699 -36.999 -14s-14 -22.666 -14 -39.999zM291 737
c0 -16.667 -3.16699 -32.334 -9.5 -47.001s-15.333 -27.5 -27 -38.5s-25.5 -19.667 -41.5 -26s-33.667 -9.5 -53 -9.5s-36.833 3.16699 -52.5 9.5s-29.334 15 -41.001 26s-20.667 23.833 -27 38.5s-9.5 30.334 -9.5 47.001s3.16699 32.167 9.5 46.5s15.333 27 27 38
s25.334 19.667 41.001 26s33.167 9.5 52.5 9.5s37 -3.16699 53 -9.5s29.833 -15 41.5 -26s20.667 -23.667 27 -38s9.5 -29.833 9.5 -46.5z" />
    <glyph glyph-name="ogonek" unicode="&#x2db;" horiz-adv-x="308" 
d="M125 -125c0 -14.667 4.5 -26.668 13.5 -36.001s24.167 -14 45.5 -14c13.333 0 25.666 1.66699 36.999 5s20.333 6.66602 27 9.99902l30 -65c-33.333 -17.333 -69.666 -26 -108.999 -26c-44 0 -78.167 10.333 -102.5 31s-36.5 49.667 -36.5 87c0 16.667 4 33 12 49
s19 31 33 45s30.667 26.667 50 38s40.666 20.333 63.999 27h83c-31.333 -12.667 -56.666 -25.667 -75.999 -39s-34.333 -26.666 -45 -39.999s-17.667 -26.166 -21 -38.499s-5 -23.5 -5 -33.5z" />
    <glyph glyph-name="tilde" unicode="&#x2dc;" horiz-adv-x="421" 
d="M265 650c-15.333 0 -28.332 2.49902 -38.999 7.49902s-20.167 10.5 -28.5 16.5l-23 16.5c-7 5 -14.5 7.5 -22.5 7.5c-12.667 0 -22.667 -3.83301 -30 -11.5s-15 -18.5 -23 -32.5l-69 32c5.33301 14 12 27.333 20 40s17.167 23.834 27.5 33.501s22 17.334 35 23.001
s27.5 8.5 43.5 8.5c15.333 0 28.333 -2.5 39 -7.5s20.167 -10.667 28.5 -17l23 -17c7 -5 14.5 -7.5 22.5 -7.5c12.667 0 22.667 3.83301 30 11.5s15 18.5 23 32.5l69 -32c-5.33301 -14 -11.833 -27.167 -19.5 -39.5s-16.834 -23.333 -27.501 -33
s-22.5 -17.334 -35.5 -23.001s-27.5 -8.5 -43.5 -8.5z" />
    <glyph glyph-name="hungarumlaut" unicode="&#x2dd;" horiz-adv-x="421" 
d="M30 678l82 185l95 -45l-104 -171zM207 678l90 184l94 -48l-113 -169z" />
    <glyph glyph-name="gravecomb" unicode="&#x300;" 
d="M-187 616l-222 101l58 95l202 -132z" />
    <glyph glyph-name="acutecomb" unicode="&#x301;" 
d="M-408 681l203 132l57 -95l-222 -101z" />
    <glyph glyph-name="uni0302" unicode="&#x302;" 
d="M-423 620l-51 57l143 131h79l143 -131l-51 -57l-131 95z" />
    <glyph glyph-name="tildecomb" unicode="&#x303;" 
d="M-235 643c-15.333 0 -28.333 2.49902 -39 7.49902s-20 10.5 -28 16.5l-22.5 16.5c-7 5 -14.5 7.5 -22.5 7.5c-12.667 0 -22.667 -3.83301 -30 -11.5s-15 -18.5 -23 -32.5l-70 32c11.333 28 27.333 52.5 48 73.5s47 31.5 79 31.5c15.333 0 28.333 -2.5 39 -7.5
s20.167 -10.667 28.5 -17l23 -17c7 -5 14.5 -7.5 22.5 -7.5c12.667 0 22.5 3.83301 29.5 11.5s14.5 18.834 22.5 33.501l70 -32c-11.333 -28 -27.333 -52.5 -48 -73.5s-47 -31.5 -79 -31.5z" />
    <glyph glyph-name="uni0304" unicode="&#x304;" 
d="M-138 668h-298v92h298v-92z" />
    <glyph glyph-name="uni0306" unicode="&#x306;" 
d="M-297 620c-25.333 0 -47.834 4.66699 -67.501 14s-36.5 21.833 -50.5 37.5s-25.167 33.334 -33.5 53.001s-13.5 39.834 -15.5 60.501l76 14c6.66699 -26 17.5 -47.167 32.5 -63.5s34.5 -24.5 58.5 -24.5s43.833 8.16699 59.5 24.5s26.834 37.5 33.501 63.5l75 -14
c-2 -20.667 -7.33301 -40.834 -16 -60.501s-20 -37.334 -34 -53.001s-31 -28.167 -51 -37.5s-42.333 -14 -67 -14z" />
    <glyph glyph-name="uni0307" unicode="&#x307;" 
d="M-207 724c0 -23.333 -7.66699 -42.666 -23 -57.999s-35.333 -23 -60 -23c-25.333 0 -45.666 7.66699 -60.999 23s-23 34.666 -23 57.999c0 22.667 7.66699 41.834 23 57.501s35.666 23.5 60.999 23.5c24.667 0 44.667 -7.83301 60 -23.5s23 -34.834 23 -57.501z" />
    <glyph glyph-name="uni0308" unicode="&#x308;" 
d="M-402 653c-20 0 -37 6.83301 -51 20.5s-21 30.5 -21 50.5s7 36.833 21 50.5s31 20.5 51 20.5c20.667 0 38 -6.83301 52 -20.5s21 -30.5 21 -50.5s-7 -36.833 -21 -50.5s-31.333 -20.5 -52 -20.5zM-175 653c-20 0 -37 6.83301 -51 20.5s-21 30.5 -21 50.5
s7 36.833 21 50.5s31 20.5 51 20.5s37.167 -6.83301 51.5 -20.5s21.5 -30.5 21.5 -50.5s-7.16699 -36.833 -21.5 -50.5s-31.5 -20.5 -51.5 -20.5z" />
    <glyph glyph-name="uni030A" unicode="&#x30a;" 
d="M-348 730c0 -17.333 4.5 -30.666 13.5 -39.999s21.5 -14 37.5 -14c15.333 0 27.666 4.66699 36.999 14s14 22.666 14 39.999s-4.66699 30.833 -14 40.5s-21.666 14.5 -36.999 14.5c-16 0 -28.5 -4.83301 -37.5 -14.5s-13.5 -23.167 -13.5 -40.5zM-167 730
c0 -16.667 -3.16699 -32.167 -9.5 -46.5s-15.333 -27 -27 -38s-25.5 -19.667 -41.5 -26s-33.333 -9.5 -52 -9.5c-19.333 0 -37 3.16699 -53 9.5s-29.833 15 -41.5 26s-20.667 23.667 -27 38s-9.5 29.833 -9.5 46.5s3.16699 32.334 9.5 47.001s15.333 27.5 27 38.5
s25.5 19.667 41.5 26s33.667 9.5 53 9.5c18.667 0 36 -3.16699 52 -9.5s29.833 -15 41.5 -26s20.667 -23.833 27 -38.5s9.5 -30.334 9.5 -47.001z" />
    <glyph glyph-name="uni030B" unicode="&#x30b;" 
d="M-422 667l84 189l94 -45l-107 -177zM-245 667l93 188l92 -47l-116 -177z" />
    <glyph glyph-name="uni030C" unicode="&#x30c;" 
d="M-291 714l131 94l51 -57l-143 -131h-79l-143 131l51 57z" />
    <glyph glyph-name="uni0312" unicode="&#x312;" 
d="M-219 701c0 -19.333 -6.66797 -35.332 -20.001 -47.999s-29.666 -19 -48.999 -19c-18.667 0 -34.667 6.33301 -48 19s-20 28.667 -20 48c0 11.333 1.5 21.833 4.5 31.5s7.5 21.167 13.5 34.5l53 108h67l-29 -118c9.33301 -6.66699 16.333 -14.834 21 -24.501
s7 -20.167 7 -31.5z" />
    <glyph glyph-name="uni0313" unicode="&#x313;" 
d="M-354 809c0 18.667 6.66895 34.499 20.002 47.499s29.666 19.5 48.999 19.5s35.666 -6.5 48.999 -19.5s20 -28.833 20 -47.5c0 -11.333 -1.66699 -22 -5 -32s-8 -21.333 -14 -34l-52 -108h-67l28 118c-8.66699 6.66699 -15.5 14.834 -20.5 24.501s-7.5 20.167 -7.5 31.5z
" />
    <glyph glyph-name="uni0326" unicode="&#x326;" horiz-adv-x="1" 
d="M-357 -159c0 19.333 6.66895 35.333 20.002 48s29.666 19 48.999 19s35.666 -6.33301 48.999 -19s20 -28.667 20 -48c0 -11.333 -1.5 -21.833 -4.5 -31.5s-7.83301 -20.834 -14.5 -33.501l-53 -109h-67l29 118c-8.66699 6.66699 -15.5 14.834 -20.5 24.501
s-7.5 20.167 -7.5 31.5z" />
    <glyph glyph-name="uni0327" unicode="&#x327;" 
d="M-259 -141c0 16 -7.49902 26.5 -22.499 31.5s-37.5 7.5 -67.5 7.5l11 118h77v-66c34.667 -3.33301 59.834 -13.833 75.501 -31.5s23.5 -37.5 23.5 -59.5c0 -34.667 -12.833 -61.667 -38.5 -81s-58.834 -29 -99.501 -29c-22.667 0 -44.334 2.83301 -65.001 8.5
s-37.667 12.5 -51 20.5l34 63c10 -5.33301 20.833 -9.66602 32.5 -12.999s23.167 -5 34.5 -5c17.333 0 31 2.66699 41 8s15 14.666 15 27.999z" />
    <glyph glyph-name="uni0328" unicode="&#x328;" 
d="M-298 -125c0 -14.667 4.5 -26.668 13.5 -36.001s23.833 -14 44.5 -14c13.333 0 25.666 1.66699 36.999 5s20.333 6.66602 27 9.99902l30 -65c-33.333 -17.333 -69.333 -26 -108 -26c-44.667 0 -79.167 10.333 -103.5 31s-36.5 49.667 -36.5 87c0 16.667 4 33 12 49
s19 31 33 45s30.833 26.667 50.5 38s41.167 20.333 64.5 27h83c-31.333 -12.667 -56.666 -25.667 -75.999 -39s-34.333 -26.666 -45 -39.999s-17.667 -26.166 -21 -38.499s-5 -23.5 -5 -33.5z" />
    <glyph glyph-name="uni0335" unicode="&#x335;" 
d="M-9 278h-378v86h378v-86z" />
    <glyph glyph-name="uni0336" unicode="&#x336;" 
d="M-25 278h-675v86h675v-86z" />
    <glyph glyph-name="uni0394" unicode="&#x394;" horiz-adv-x="602" 
d="M219 692h165l218 -692h-602zM161 102h276l-136 474h-5z" />
    </font>
</defs>
</svg>
